<svg width="18" height="20" viewBox="0 0 18 20" fill="none" xmlns="http://www.w3.org/2000/svg">
<circle cx="9" cy="10" r="9" fill="#F5A93F"/>
<path d="M13.3248 8.58705C13.3248 8.44754 13.269 8.30804 13.1685 8.20759L12.4096 7.44866C12.3092 7.34821 12.1696 7.29241 12.0301 7.29241C11.8906 7.29241 11.7511 7.34821 11.6507 7.44866L7.98996 11.115L6.34933 9.46875C6.24888 9.3683 6.10938 9.3125 5.96987 9.3125C5.83036 9.3125 5.69085 9.3683 5.5904 9.46875L4.83147 10.2277C4.73103 10.3281 4.67522 10.4676 4.67522 10.6071C4.67522 10.7467 4.73103 10.8862 4.83147 10.9866L6.85156 13.0067L7.61049 13.7656C7.71094 13.8661 7.85045 13.9219 7.98996 13.9219C8.12946 13.9219 8.26897 13.8661 8.36942 13.7656L9.12835 13.0067L13.1685 8.96652C13.269 8.86607 13.3248 8.72656 13.3248 8.58705Z" fill="white"/>
</svg>
