<svg width="11" height="11" viewBox="0 0 11 11" fill="none" xmlns="http://www.w3.org/2000/svg">
<path d="M7.6942 7.22768C7.6942 7.34152 7.64732 7.45536 7.56696 7.53571L6.96429 8.13839C6.88393 8.21875 6.77009 8.26562 6.65625 8.26562C6.54241 8.26562 6.43527 8.21875 6.35491 8.13839L5.14286 6.92634L3.9308 8.13839C3.85045 8.21875 3.7433 8.26562 3.62946 8.26562C3.51562 8.26562 3.40179 8.21875 3.32143 8.13839L2.71875 7.53571C2.63839 7.45536 2.59152 7.34152 2.59152 7.22768C2.59152 7.11384 2.63839 7.0067 2.71875 6.92634L3.9308 5.71429L2.71875 4.50223C2.63839 4.42187 2.59152 4.31473 2.59152 4.20089C2.59152 4.08705 2.63839 3.97321 2.71875 3.89286L3.32143 3.29018C3.40179 3.20982 3.51562 3.16295 3.62946 3.16295C3.7433 3.16295 3.85045 3.20982 3.9308 3.29018L5.14286 4.50223L6.35491 3.29018C6.43527 3.20982 6.54241 3.16295 6.65625 3.16295C6.77009 3.16295 6.88393 3.20982 6.96429 3.29018L7.56696 3.89286C7.64732 3.97321 7.6942 4.08705 7.6942 4.20089C7.6942 4.31473 7.64732 4.42187 7.56696 4.50223L6.35491 5.71429L7.56696 6.92634C7.64732 7.0067 7.6942 7.11384 7.6942 7.22768ZM10.2857 5.71429C10.2857 2.875 7.98214 0.571428 5.14286 0.571428C2.30357 0.571428 0 2.875 0 5.71429C0 8.55357 2.30357 10.8571 5.14286 10.8571C7.98214 10.8571 10.2857 8.55357 10.2857 5.71429Z" fill="#F5A93F"/>
</svg>
