<svg width="10" height="11" viewBox="0 0 10 11" fill="none" xmlns="http://www.w3.org/2000/svg">
<path d="M9.46429 2.57145H7.14286C6.92522 2.57145 6.64621 2.66631 6.42857 2.79466V0.964303C6.42857 0.668545 6.18862 0.428589 5.89286 0.428589H3.57143C3.27567 0.428589 2.86272 0.60158 2.65625 0.808053L0.379464 3.08484C0.172991 3.29131 0 3.70426 0 4.00002V7.75002C0 8.04578 0.239955 8.28573 0.535714 8.28573H3.57143V9.89288C3.57143 10.1886 3.81138 10.4286 4.10714 10.4286H9.46429C9.76004 10.4286 10 10.1886 10 9.89288V3.10716C10 2.8114 9.76004 2.57145 9.46429 2.57145ZM6.42857 3.76006V5.42859H4.76005L6.42857 3.76006ZM2.85714 1.61721V3.28573H1.18862L2.85714 1.61721ZM3.95089 5.2277C3.74442 5.43417 3.57143 5.84712 3.57143 6.14288V7.57145H0.714286V4.00002H3.03571C3.33147 4.00002 3.57143 3.76006 3.57143 3.4643V1.14287H5.71429V3.4643L3.95089 5.2277ZM9.28572 9.7143H4.28571V6.14288H6.60714C6.9029 6.14288 7.14286 5.90292 7.14286 5.60716V3.28573H9.28572V9.7143Z" fill="#4F4F4F"/>
</svg>
