<svg width="12" height="12" viewBox="0 0 12 12" fill="none" xmlns="http://www.w3.org/2000/svg">
<path d="M11.7857 9.52232C11.7857 9.46373 11.7857 9.40513 11.7606 9.34654C11.702 9.17076 11.2919 8.98661 11.1244 8.9029C10.6473 8.63504 10.1618 8.37556 9.69308 8.09933C9.47545 7.9654 9.20759 7.71429 8.9481 7.71429C8.4375 7.71429 7.69252 9.22935 7.24051 9.22935C7.01451 9.22935 6.72154 9.02009 6.52065 8.9029C4.99721 8.05748 3.94252 7.00279 3.0971 5.47935C2.97991 5.27846 2.77065 4.98549 2.77065 4.75949C2.77065 4.30748 4.28571 3.5625 4.28571 3.0519C4.28571 2.79241 4.0346 2.52455 3.90067 2.30692C3.62444 1.83817 3.36496 1.35268 3.0971 0.875558C3.01339 0.708147 2.82924 0.297991 2.65346 0.239397C2.59487 0.214285 2.53627 0.214285 2.47768 0.214285C2.17634 0.214285 1.5904 0.348214 1.31417 0.473772C0.904018 0.649553 0.636161 1.1183 0.426897 1.49498C0.15904 1.98884 0 2.49107 0 3.0519C0 3.83036 0.31808 4.53348 0.577567 5.24498C0.761719 5.75558 0.987723 6.24944 1.27232 6.70982C2.15123 8.13281 3.86719 9.84877 5.29018 10.7277C5.75056 11.0123 6.24442 11.2383 6.75502 11.4224C7.46652 11.6819 8.16964 12 8.9481 12C9.50893 12 10.0112 11.841 10.505 11.5731C10.8817 11.3638 11.3504 11.096 11.5262 10.6858C11.6518 10.4096 11.7857 9.82366 11.7857 9.52232Z" fill="white"/>
</svg>
