<svg width="21" height="20" viewBox="0 0 21 20" fill="none" xmlns="http://www.w3.org/2000/svg">
<path d="M15.4 20C11.3173 19.9947 7.40332 18.3705 4.5164 15.4836C1.62949 12.5967 0.00529192 8.6827 0 4.59999C0 3.38 0.484642 2.20997 1.34731 1.3473C2.20998 0.484634 3.38 -7.77552e-06 4.6 -7.77552e-06C4.85834 -0.00197558 5.11625 0.0214706 5.37 0.0699922C5.61531 0.106293 5.85647 0.166582 6.09 0.249992C6.25425 0.307622 6.40061 0.407126 6.51461 0.538664C6.62861 0.670203 6.7063 0.829221 6.74 0.999992L8.11 6.99999C8.14693 7.16286 8.14248 7.33237 8.09707 7.49308C8.05165 7.65378 7.96671 7.80055 7.85 7.91999C7.72 8.05999 7.71 8.06999 6.48 8.70999C7.465 10.8708 9.1932 12.6062 11.35 13.6C12 12.36 12.01 12.35 12.15 12.22C12.2694 12.1033 12.4162 12.0183 12.5769 11.9729C12.7376 11.9275 12.9071 11.9231 13.07 11.96L19.07 13.33C19.2353 13.3683 19.3881 13.4481 19.5141 13.5618C19.6401 13.6756 19.735 13.8195 19.79 13.98C19.8744 14.2174 19.938 14.4616 19.98 14.71C20.0202 14.9613 20.0403 15.2155 20.04 15.47C20.0216 16.6848 19.5233 17.8429 18.654 18.6916C17.7847 19.5404 16.6149 20.0107 15.4 20Z" fill="#B6C0F8"/>
</svg>
