<svg width="12" height="13" viewBox="0 0 12 13" fill="none" xmlns="http://www.w3.org/2000/svg">
<path d="M0.857143 11.8571V9.92857H2.78571V11.8571H0.857143ZM3.21429 11.8571V9.92857H5.35714V11.8571H3.21429ZM0.857143 9.5V7.35714H2.78571V9.5H0.857143ZM3.21429 9.5V7.35714H5.35714V9.5H3.21429ZM0.857143 6.92857V5H2.78571V6.92857H0.857143ZM5.78571 11.8571V9.92857H7.92857V11.8571H5.78571ZM3.21429 6.92857V5H5.35714V6.92857H3.21429ZM8.35714 11.8571V9.92857H10.2857V11.8571H8.35714ZM5.78571 9.5V7.35714H7.92857V9.5H5.78571ZM3.42857 3.71429C3.42857 3.82812 3.32812 3.92857 3.21429 3.92857H2.78571C2.67188 3.92857 2.57143 3.82812 2.57143 3.71429V1.78571C2.57143 1.67187 2.67188 1.57143 2.78571 1.57143H3.21429C3.32812 1.57143 3.42857 1.67187 3.42857 1.78571V3.71429ZM8.35714 9.5V7.35714H10.2857V9.5H8.35714ZM5.78571 6.92857V5H7.92857V6.92857H5.78571ZM8.35714 6.92857V5H10.2857V6.92857H8.35714ZM8.57143 3.71429C8.57143 3.82812 8.47098 3.92857 8.35714 3.92857H7.92857C7.81473 3.92857 7.71429 3.82812 7.71429 3.71429V1.78571C7.71429 1.67187 7.81473 1.57143 7.92857 1.57143H8.35714C8.47098 1.57143 8.57143 1.67187 8.57143 1.78571V3.71429ZM11.1429 3.28571C11.1429 2.81696 10.7545 2.42857 10.2857 2.42857H9.42857V1.78571C9.42857 1.19643 8.94643 0.714285 8.35714 0.714285H7.92857C7.33929 0.714285 6.85714 1.19643 6.85714 1.78571V2.42857H4.28571V1.78571C4.28571 1.19643 3.80357 0.714285 3.21429 0.714285H2.78571C2.19643 0.714285 1.71429 1.19643 1.71429 1.78571V2.42857H0.857143C0.388393 2.42857 0 2.81696 0 3.28571V11.8571C0 12.3259 0.388393 12.7143 0.857143 12.7143H10.2857C10.7545 12.7143 11.1429 12.3259 11.1429 11.8571V3.28571Z" fill="#1E2F89"/>
</svg>
