<svg width="12" height="10" viewBox="0 0 12 10" fill="none" xmlns="http://www.w3.org/2000/svg">
<path d="M5.94643 7.64286H5.57143V7H4.92857V6.625L5.70536 5.84821L6.72321 6.86607L5.94643 7.64286ZM8.89286 2.82143C8.95313 2.8817 8.94643 2.98214 8.88616 3.04241L6.54241 5.38616C6.48214 5.44643 6.3817 5.45312 6.32143 5.39286C6.26116 5.33259 6.26786 5.23214 6.32812 5.17187L8.67188 2.82812C8.73214 2.76786 8.83259 2.76116 8.89286 2.82143ZM9.42857 6.79911C9.42857 6.71205 9.375 6.63839 9.29464 6.60491C9.21429 6.57143 9.12723 6.58482 9.06027 6.65179L8.6317 7.08036C8.59152 7.12054 8.57143 7.17411 8.57143 7.22768V8.07143C8.57143 8.66071 8.08929 9.14286 7.5 9.14286H1.92857C1.33929 9.14286 0.857143 8.66071 0.857143 8.07143V2.5C0.857143 1.91071 1.33929 1.42857 1.92857 1.42857H7.5C7.60045 1.42857 7.70089 1.44196 7.80134 1.46875C7.875 1.49554 7.95536 1.47545 8.01563 1.41518L8.34375 1.08705C8.39732 1.03348 8.41741 0.966517 8.40402 0.892857C8.39063 0.825892 8.34375 0.765624 8.28348 0.738839C8.03571 0.624999 7.76786 0.571428 7.5 0.571428H1.92857C0.863839 0.571428 0 1.43527 0 2.5V8.07143C0 9.13616 0.863839 10 1.92857 10H7.5C8.56473 10 9.42857 9.13616 9.42857 8.07143V6.79911ZM8.78571 1.85714L4.28571 6.35714V8.28571H6.21429L10.7143 3.78571L8.78571 1.85714ZM11.7589 2.74107C12.0067 2.4933 12.0067 2.07812 11.7589 1.83036L10.7411 0.812499C10.4933 0.564732 10.0781 0.564732 9.83036 0.812499L9.21429 1.42857L11.1429 3.35714L11.7589 2.74107Z" fill="#F5A93F"/>
</svg>
