<svg width="30" height="35" viewBox="0 0 30 35" fill="none" xmlns="http://www.w3.org/2000/svg">
<path d="M21.6879 9.26752H27.4682C28.8535 9.26752 30 10.3662 30 11.7994V20.4936H16.242V10.3662C15.7643 10.2229 15.3344 10.0318 15.0478 9.74522C15 9.74522 15 9.69745 14.9522 9.69745C14.9522 9.69745 14.9522 9.74522 14.9045 9.74522C14.5701 10.0318 14.1879 10.2229 13.758 10.3662V20.4936H0V11.7994C0 10.3662 1.09873 9.26752 2.48408 9.26752H8.3121C7.64331 8.93312 7.02229 8.45541 6.49682 8.02548C4.20382 5.82803 3.77389 2.7707 5.58917 1.05096C6.3535 0.382166 7.35669 0 8.45541 0C10.0318 0 11.6561 0.621019 13.0414 1.91083C13.8057 2.62739 14.5223 3.63057 14.9522 4.58599C15.4299 3.63057 16.1465 2.62739 16.9108 1.91083C18.2484 0.621019 19.9682 0 21.4968 0C22.6433 0 23.6465 0.382166 24.3631 1.05096C26.1783 2.7707 25.7484 5.82803 23.4076 8.02548C22.9299 8.45541 22.3089 8.93312 21.6879 9.26752ZM13.1847 7.88216C13.3758 7.45223 12.8981 5.25478 11.3217 3.77389C10.5096 3.00955 9.41083 2.57962 8.45541 2.57962C8.16879 2.57962 7.69108 2.62739 7.35669 2.91401C7.26115 3.00955 6.97452 3.20064 6.97452 3.72611C6.97452 4.34713 7.35669 5.30255 8.26433 6.11465C9.41083 7.21338 11.2261 7.97771 12.5637 7.97771C12.9936 7.97771 13.1847 7.88216 13.1847 7.88216ZM16.8153 7.88216C16.8153 7.88216 17.0541 7.97771 17.4363 7.97771C18.7739 7.97771 20.5892 7.21338 21.7357 6.11465C22.6433 5.30255 22.9299 4.34713 22.9299 3.72611C22.9299 3.20064 22.6911 3.00955 22.6433 2.91401C22.3089 2.62739 21.7834 2.57962 21.4968 2.57962C20.5892 2.57962 19.4427 3.00955 18.6306 3.77389C17.1019 5.25478 16.5764 7.40446 16.8153 7.92994V7.88216ZM13.758 34.2516H2.48408C1.09873 34.2516 0 33.1529 0 31.7675V23.0255H13.758V34.2516ZM27.4682 34.2516H16.242V23.0255H30V31.7675C30 33.1529 28.8535 34.2516 27.4682 34.2516Z" fill="white"/>
</svg>
