<svg width="16" height="13" viewBox="0 0 16 13" fill="none" xmlns="http://www.w3.org/2000/svg">
<path d="M15.7118 11.0714C15.7118 10.7199 15.4205 10.4286 15.0689 10.4286H0.92606C0.574498 10.4286 0.283203 10.7199 0.283203 11.0714V12.3571C0.283203 12.7087 0.574498 13 0.92606 13H15.0689C15.4205 13 15.7118 12.7087 15.7118 12.3571V11.0714ZM15.7118 5.92857C15.7118 5.577 15.4205 5.28571 15.0689 5.28571H0.92606C0.574498 5.28571 0.283203 5.577 0.283203 5.92857V7.21428C0.283203 7.56584 0.574498 7.85714 0.92606 7.85714H15.0689C15.4205 7.85714 15.7118 7.56584 15.7118 7.21428V5.92857ZM15.7118 0.78571C15.7118 0.434147 15.4205 0.142853 15.0689 0.142853H0.92606C0.574498 0.142853 0.283203 0.434147 0.283203 0.78571V2.07142C0.283203 2.42299 0.574498 2.71428 0.92606 2.71428H15.0689C15.4205 2.71428 15.7118 2.42299 15.7118 2.07142V0.78571Z" fill="white"/>
</svg>
