<svg width="13" height="14" viewBox="0 0 13 14" fill="none" xmlns="http://www.w3.org/2000/svg">
<path d="M12.8571 6.64286C12.8571 3.10212 9.96931 0.214285 6.42857 0.214285C4.77958 0.214285 3.1808 0.875558 2.00056 1.98884L0.912388 0.90904C0.761719 0.749999 0.527344 0.708147 0.334821 0.791852C0.133929 0.875558 0 1.06808 0 1.28571V5.03571C0 5.32868 0.242746 5.57143 0.535714 5.57143H4.28571C4.50335 5.57143 4.69587 5.4375 4.77958 5.23661C4.86328 5.04408 4.82143 4.80971 4.66239 4.65904L3.51563 3.50391C4.29409 2.77567 5.33203 2.35714 6.42857 2.35714C8.78906 2.35714 10.7143 4.28237 10.7143 6.64286C10.7143 9.00335 8.78906 10.9286 6.42857 10.9286C5.09766 10.9286 3.86719 10.3259 3.04688 9.26283C3.00502 9.20424 2.92969 9.17076 2.85435 9.16239C2.77902 9.16239 2.70368 9.1875 2.64509 9.23772L1.49833 10.3929C1.40625 10.4849 1.39788 10.644 1.48158 10.7528C2.70368 12.226 4.51172 13.0714 6.42857 13.0714C9.96931 13.0714 12.8571 10.1836 12.8571 6.64286ZM7.5 4.23214C7.5 4.08147 7.38281 3.96429 7.23214 3.96429H6.69643C6.54576 3.96429 6.42857 4.08147 6.42857 4.23214V7.17857H4.55357C4.4029 7.17857 4.28571 7.29576 4.28571 7.44643V7.98214C4.28571 8.13281 4.4029 8.25 4.55357 8.25H7.23214C7.38281 8.25 7.5 8.13281 7.5 7.98214V4.23214Z" fill="white"/>
</svg>
