<svg width="19" height="21" viewBox="0 0 19 21" fill="none" xmlns="http://www.w3.org/2000/svg">
<path d="M13.6667 0.0833282L18.875 5.29062V19.8844C18.8749 20.0201 18.848 20.1544 18.7959 20.2797C18.7439 20.4051 18.6677 20.5189 18.5716 20.6147C18.4756 20.7106 18.3616 20.7866 18.2361 20.8384C18.1107 20.8902 17.9763 20.9168 17.8406 20.9167H1.15937C0.885811 20.9148 0.623976 20.8053 0.430435 20.612C0.236894 20.4186 0.127182 20.1569 0.125 19.8833V1.11666C0.125 0.545828 0.588542 0.0833282 1.15937 0.0833282H13.6667ZM10.5417 7.375H8.45833V13.625H13.6667V11.5417H10.5417V7.375Z" fill="#B6C0F8"/>
</svg>
