<svg width="14" height="11" viewBox="0 0 14 11" fill="none" xmlns="http://www.w3.org/2000/svg">
<path d="M11.7857 6.44643C11.7857 6.42969 11.7857 6.41295 11.7773 6.39621L6.96429 2.42857L2.15123 6.39621C2.15123 6.41295 2.14286 6.42969 2.14286 6.44643V10.4643C2.14286 10.7573 2.3856 11 2.67857 11H5.89286V7.78571H8.03571V11H11.25C11.543 11 11.7857 10.7573 11.7857 10.4643V6.44643ZM13.6523 5.86886C13.7444 5.76004 13.7277 5.58426 13.6189 5.49219L11.7857 3.96875V0.553571C11.7857 0.402902 11.6685 0.285714 11.5179 0.285714H9.91071C9.76005 0.285714 9.64286 0.402902 9.64286 0.553571V2.18583L7.60045 0.478236C7.24888 0.185267 6.67969 0.185267 6.32813 0.478236L0.30971 5.49219C0.200893 5.58426 0.184152 5.76004 0.276228 5.86886L0.795201 6.48828C0.837054 6.5385 0.904018 6.57199 0.970982 6.58036C1.04632 6.58873 1.11328 6.56362 1.17188 6.52176L6.96429 1.69196L12.7567 6.52176C12.8069 6.56362 12.8655 6.58036 12.9325 6.58036C12.9408 6.58036 12.9492 6.58036 12.9576 6.58036C13.0246 6.57199 13.0915 6.5385 13.1334 6.48828L13.6523 5.86886Z" fill="white"/>
</svg>
