<svg width="13" height="14" viewBox="0 0 13 14" fill="none" xmlns="http://www.w3.org/2000/svg">
<path d="M4.31083 6.76841H2.20145V7.83984H4.31083V6.76841ZM4.31083 4.63393H2.20145V5.69699H4.31083V4.63393ZM10.6557 8.91127H7.80134V9.9827H10.6557V8.91127ZM10.6557 6.76841H5.03069V7.83984H10.6557V6.76841ZM10.6557 4.63393H5.03069V5.69699H10.6557V4.63393ZM11.7857 11.8326C11.7857 11.9247 11.7104 12 11.6183 12H1.23884C1.14676 12 1.07143 11.9247 1.07143 11.8326V1.45312C1.07143 1.36105 1.14676 1.28571 1.23884 1.28571H1.5067L4.67076 3.42857L6.42857 1.99721L8.18638 3.42857L11.3504 1.28571H11.6183C11.7104 1.28571 11.7857 1.36105 11.7857 1.45312V11.8326ZM4.62891 2.54129L2.77902 1.28571H6.17746L4.62891 2.54129ZM8.22824 2.54129L6.67969 1.28571H10.0781L8.22824 2.54129ZM12.8571 1.45312C12.8571 0.766741 12.3047 0.214285 11.6183 0.214285H1.23884C0.552455 0.214285 0 0.766741 0 1.45312V11.8326C0 12.519 0.552455 13.0714 1.23884 13.0714H11.6183C12.3047 13.0714 12.8571 12.519 12.8571 11.8326V1.45312Z" fill="white"/>
</svg>
