<svg width="16" height="17" viewBox="0 0 16 17" fill="none" xmlns="http://www.w3.org/2000/svg">
<path d="M15.7118 7.57143C15.7118 6.88839 15.2598 6.28571 14.5366 6.28571H7.46512L10.4082 3.34263C10.6493 3.10156 10.7899 2.77009 10.7899 2.42857C10.7899 2.08705 10.6493 1.75558 10.4082 1.51451L9.65486 0.771205C9.41378 0.530133 9.09236 0.389508 8.75084 0.389508C8.40932 0.389508 8.07785 0.530133 7.83677 0.771205L1.29771 7.30022C1.06669 7.54129 0.92606 7.87277 0.92606 8.21429C0.92606 8.5558 1.06669 8.88728 1.29771 9.1183L7.83677 15.6674C8.07785 15.8984 8.40932 16.0391 8.75084 16.0391C9.09236 16.0391 9.42383 15.8984 9.65486 15.6674L10.4082 14.904C10.6493 14.673 10.7899 14.3415 10.7899 14C10.7899 13.6585 10.6493 13.327 10.4082 13.096L7.46512 10.1429H14.5366C15.2598 10.1429 15.7118 9.54018 15.7118 8.85714V7.57143Z" fill="white"/>
</svg>
