<svg width="10" height="14" viewBox="0 0 10 14" fill="none" xmlns="http://www.w3.org/2000/svg">
<path d="M6.85924 4.5C6.85924 5.68025 5.89662 6.64286 4.71638 6.64286C3.53613 6.64286 2.57352 5.68025 2.57352 4.5C2.57352 3.31975 3.53613 2.35714 4.71638 2.35714C5.89662 2.35714 6.85924 3.31975 6.85924 4.5ZM9.00209 4.5C9.00209 2.13114 7.08524 0.214285 4.71638 0.214285C2.34752 0.214285 0.430664 2.13114 0.430664 4.5C0.430664 5.0106 0.489258 5.53795 0.706892 5.99833L3.76214 12.4771C3.92955 12.8454 4.31459 13.0714 4.71638 13.0714C5.11816 13.0714 5.50321 12.8454 5.67899 12.4771L8.72587 5.99833C8.9435 5.53795 9.00209 5.0106 9.00209 4.5Z" fill="#F5A93F"/>
</svg>
