<svg width="17" height="21" viewBox="0 0 17 21" fill="none" xmlns="http://www.w3.org/2000/svg">
<path d="M1.20832 20.9167C0.932056 20.9167 0.667104 20.8069 0.471754 20.6116C0.276403 20.4162 0.166656 20.1513 0.166656 19.875V1.12499C0.166656 0.848728 0.276403 0.583776 0.471754 0.388425C0.667104 0.193075 0.932056 0.0833282 1.20832 0.0833282H15.7917C16.0679 0.0833282 16.3329 0.193075 16.5282 0.388425C16.7236 0.583776 16.8333 0.848728 16.8333 1.12499V19.875C16.8333 20.1513 16.7236 20.4162 16.5282 20.6116C16.3329 20.8069 16.0679 20.9167 15.7917 20.9167H1.20832ZM11.625 14.6667L16.8333 10.5L11.625 6.33333V9.45833H5.37499V11.5417H11.625V14.6667Z" fill="#B6C0F8"/>
</svg>
