<svg width="8" height="10" viewBox="0 0 8 10" fill="none" xmlns="http://www.w3.org/2000/svg">
<path d="M3.58334 7.47416C2.7428 7.36721 1.97453 6.94422 1.43467 6.29115C0.894806 5.63809 0.623872 4.80397 0.67693 3.95832C0.729989 3.11267 1.10306 2.31895 1.72032 1.73849C2.33757 1.15803 3.15269 0.83438 4.00001 0.833329C4.84835 0.832697 5.66503 1.15555 6.28361 1.73611C6.9022 2.31667 7.27615 3.11124 7.32928 3.95793C7.3824 4.80461 7.1107 5.6397 6.56953 6.29302C6.02836 6.94635 5.25845 7.36875 4.41667 7.47416V8.33833C6.06084 8.37666 7.33334 8.63958 7.33334 8.95833C7.33334 9.30333 5.84084 9.58333 4.00001 9.58333C2.15917 9.58333 0.666672 9.30333 0.666672 8.95833C0.666672 8.63958 1.93917 8.37666 3.58334 8.33833V7.47416ZM4.00001 5C4.22102 5 4.43298 4.9122 4.58926 4.75592C4.74554 4.59964 4.83334 4.38768 4.83334 4.16666C4.83334 3.94565 4.74554 3.73369 4.58926 3.57741C4.43298 3.42113 4.22102 3.33333 4.00001 3.33333C3.77899 3.33333 3.56703 3.42113 3.41075 3.57741C3.25447 3.73369 3.16667 3.94565 3.16667 4.16666C3.16667 4.38768 3.25447 4.59964 3.41075 4.75592C3.56703 4.9122 3.77899 5 4.00001 5Z" fill="#525252"/>
</svg>
