<svg width="7" height="11" viewBox="0 0 7 11" fill="none" xmlns="http://www.w3.org/2000/svg">
<path d="M5.14286 4C5.14286 4.9442 4.37277 5.71429 3.42857 5.71429C2.48438 5.71429 1.71429 4.9442 1.71429 4C1.71429 3.0558 2.48438 2.28571 3.42857 2.28571C4.37277 2.28571 5.14286 3.0558 5.14286 4ZM6.85714 4C6.85714 2.10491 5.32366 0.571428 3.42857 0.571428C1.53348 0.571428 0 2.10491 0 4C0 4.40848 0.046875 4.83036 0.220982 5.19866L2.66518 10.3817C2.79911 10.6763 3.10714 10.8571 3.42857 10.8571C3.75 10.8571 4.05804 10.6763 4.19866 10.3817L6.63616 5.19866C6.81027 4.83036 6.85714 4.40848 6.85714 4Z" fill="#1E2F89"/>
</svg>
