<svg width="13" height="15" viewBox="0 0 13 15" fill="none" xmlns="http://www.w3.org/2000/svg">
<path d="M12.8571 7.64286C12.8571 5.60882 11.9196 3.73382 10.2874 2.51172C9.81864 2.15179 9.14062 2.24386 8.78906 2.72098C8.42913 3.18973 8.52958 3.86775 8.99833 4.21931C10.0865 5.03962 10.7143 6.28683 10.7143 7.64286C10.7143 10.0033 8.78906 11.9286 6.42857 11.9286C4.06808 11.9286 2.14286 10.0033 2.14286 7.64286C2.14286 6.28683 2.77065 5.03962 3.85882 4.21931C4.32757 3.86775 4.42801 3.18973 4.06808 2.72098C3.71652 2.24386 3.04688 2.15179 2.56975 2.51172C0.9375 3.73382 0 5.60882 0 7.64286C0 11.1836 2.88783 14.0714 6.42857 14.0714C9.96931 14.0714 12.8571 11.1836 12.8571 7.64286ZM7.5 1.21429C7.5 0.628348 7.01451 0.142856 6.42857 0.142856C5.84263 0.142856 5.35714 0.628348 5.35714 1.21429V6.57143C5.35714 7.15737 5.84263 7.64286 6.42857 7.64286C7.01451 7.64286 7.5 7.15737 7.5 6.57143V1.21429Z" fill="white"/>
</svg>
