<svg width="20" height="26" viewBox="0 0 20 26" fill="none" xmlns="http://www.w3.org/2000/svg">
<path d="M8.83329 19.6751C6.47979 19.3649 4.32862 18.1383 2.81701 16.2444C1.3054 14.3505 0.546785 11.9315 0.69535 9.47914C0.843914 7.02675 1.88851 4.72497 3.61683 3.04163C5.34514 1.35829 7.62748 0.41972 9.99996 0.416674C12.3753 0.414842 14.662 1.35112 16.3941 3.03474C18.1261 4.71836 19.1732 7.02262 19.3219 9.47801C19.4707 11.9334 18.7099 14.3551 17.1946 16.2498C15.6793 18.1444 13.5236 19.3694 11.1666 19.6751V22.1812C15.7703 22.2923 19.3333 23.0548 19.3333 23.9792C19.3333 24.9797 15.1543 25.7917 9.99996 25.7917C4.84562 25.7917 0.666626 24.9797 0.666626 23.9792C0.666626 23.0548 4.22963 22.2923 8.83329 22.1812V19.6751ZM9.99996 12.5C10.6188 12.5 11.2123 12.2454 11.6499 11.7922C12.0875 11.339 12.3333 10.7243 12.3333 10.0833C12.3333 9.4424 12.0875 8.82771 11.6499 8.3745C11.2123 7.92129 10.6188 7.66668 9.99996 7.66668C9.38112 7.66668 8.78763 7.92129 8.35004 8.3745C7.91246 8.82771 7.66663 9.4424 7.66663 10.0833C7.66663 10.7243 7.91246 11.339 8.35004 11.7922C8.78763 12.2454 9.38112 12.5 9.99996 12.5Z" fill="#D61212"/>
</svg>
