<svg width="40" height="24" viewBox="0 0 40 24" fill="none" xmlns="http://www.w3.org/2000/svg">
<path d="M32.0562 8C31.125 7.99375 30.2375 8.14375 29.4062 8.43125L27.35 5H32.5C33.3312 5 34 4.33125 34 3.5V1.5C34 0.66875 33.3312 0 32.5 0H29.6687C29.2437 0 28.8375 0.18125 28.5562 0.49375L26.2125 3.1L24.7875 0.725C24.5125 0.275 24.025 0 23.5 0H18.5C17.95 0 17.5 0.45 17.5 1V2C17.5 2.55 17.95 3 18.5 3H22.65L23.85 5H14.2437C13.1375 3.55625 11.4375 2.5 8 2.5H4.53126C3.68751 2.5 2.98126 3.1875 3.00001 4.03125C3.01251 4.84375 3.68126 5.5 4.50001 5.5H8C9.53125 5.5 10.4188 6.18125 10.9875 7.05L10.2813 8.33125C9.46875 8.0875 8.6 7.975 7.7 8.00625C3.49376 8.15625 0.10001 11.6 9.64198e-06 15.8125C-0.0999903 20.3188 3.51876 24 8 24C11.725 24 14.8562 21.45 15.75 18H21.0125C21.8687 18 22.55 17.2875 22.5125 16.4312C22.3812 13.4875 23.6062 10.575 26.025 8.61875L26.8062 9.91875C25.0812 11.4 23.9875 13.6 24.0062 16.0562C24.0375 20.4062 27.5812 23.9625 31.9312 24C36.4062 24.0438 40.0437 20.4062 40.0062 15.9312C39.9625 11.5812 36.4062 8.03125 32.0562 8ZM8 21C5.24376 21 3.00001 18.7563 3.00001 16C3.00001 13.2437 5.24376 11 8 11C8.2625 11 8.525 11.0188 8.78125 11.0625L6.18751 15.775C5.63751 16.775 6.36251 18 7.5 18H12.5813C11.8063 19.7625 10.0438 21 8 21ZM36.9937 16.275C36.8562 18.8125 34.8062 20.8625 32.275 20.9937C29.3937 21.15 27 18.85 27 16C27 14.6625 27.525 13.45 28.3812 12.5562L31.4687 17.7062C31.75 18.1812 32.3687 18.3312 32.8437 18.05L33.7 17.5375C34.175 17.2563 34.325 16.6375 34.0437 16.1625L31.0062 11.1062C31.3312 11.0375 31.6625 11.0063 32 11.0063C34.85 11 37.1437 13.3937 36.9937 16.275Z" fill="white"/>
</svg>
