<svg width="10" height="10" viewBox="0 0 10 10" fill="none" xmlns="http://www.w3.org/2000/svg">
<path d="M9.42857 8.01786C9.42857 7.97098 9.42857 7.92411 9.40848 7.87723C9.36161 7.73661 9.03348 7.58929 8.89955 7.52232C8.51786 7.30804 8.12946 7.10045 7.75446 6.87946C7.58036 6.77232 7.36607 6.57143 7.15848 6.57143C6.75 6.57143 6.15402 7.78348 5.79241 7.78348C5.61161 7.78348 5.37723 7.61607 5.21652 7.52232C3.99777 6.84598 3.15402 6.00223 2.47768 4.78348C2.38393 4.62277 2.21652 4.38839 2.21652 4.20759C2.21652 3.84598 3.42857 3.25 3.42857 2.84152C3.42857 2.63393 3.22768 2.41964 3.12054 2.24554C2.89955 1.87054 2.69196 1.48214 2.47768 1.10045C2.41071 0.966517 2.26339 0.638392 2.12277 0.591517C2.07589 0.571428 2.02902 0.571428 1.98214 0.571428C1.74107 0.571428 1.27232 0.678571 1.05134 0.779017C0.723214 0.919642 0.508929 1.29464 0.341518 1.59598C0.127232 1.99107 0 2.39286 0 2.84152C0 3.46429 0.254464 4.02679 0.462054 4.59598C0.609375 5.00446 0.790179 5.39955 1.01786 5.76786C1.72098 6.90625 3.09375 8.27902 4.23214 8.98214C4.60045 9.20982 4.99554 9.39062 5.40402 9.53795C5.97321 9.74554 6.53571 10 7.15848 10C7.60714 10 8.00893 9.87277 8.40402 9.65848C8.70536 9.49107 9.08036 9.27679 9.22098 8.94866C9.32143 8.72768 9.42857 8.25893 9.42857 8.01786Z" fill="#1E2F89"/>
</svg>
