<svg width="10" height="10" viewBox="0 0 10 10" fill="none" xmlns="http://www.w3.org/2000/svg">
<path d="M7.25 9.16666C5.54887 9.16446 3.91804 8.48771 2.71516 7.28483C1.51228 6.08195 0.835533 4.45113 0.833328 2.75C0.833328 2.24167 1.03526 1.75415 1.39471 1.39471C1.75415 1.03526 2.24166 0.83333 2.74999 0.83333C2.85764 0.83251 2.9651 0.842279 3.07083 0.862497C3.17304 0.877622 3.27352 0.902742 3.37083 0.937497C3.43927 0.961509 3.50025 1.00297 3.54775 1.05778C3.59525 1.11258 3.62762 1.17884 3.64166 1.25L4.21249 3.75C4.22788 3.81786 4.22603 3.88849 4.20711 3.95545C4.18818 4.02241 4.15279 4.08356 4.10416 4.13333C4.05 4.19166 4.04583 4.19583 3.53333 4.4625C3.94374 5.36285 4.66383 6.0859 5.5625 6.5C5.83333 5.98333 5.83749 5.97916 5.89583 5.925C5.9456 5.87637 6.00675 5.84098 6.07371 5.82205C6.14067 5.80313 6.2113 5.80128 6.27916 5.81666L8.77916 6.3875C8.84804 6.40348 8.91172 6.43672 8.9642 6.4841C9.01668 6.53148 9.05624 6.59144 9.07916 6.65833C9.11433 6.75723 9.14082 6.859 9.15833 6.9625C9.1751 7.06722 9.18346 7.17311 9.18333 7.27916C9.17565 7.78532 8.96803 8.26789 8.60582 8.62152C8.2436 8.97515 7.75619 9.17112 7.25 9.16666Z" fill="#525252"/>
</svg>
