<svg width="143" height="143" viewBox="0 0 143 143" fill="none" xmlns="http://www.w3.org/2000/svg">
<circle cx="71.5" cy="71.5" r="67.5" stroke="url(#paint0_angular)" stroke-width="8"/>
<path d="M72 106C85.2548 106 96 105.02 96 103.812C96 102.603 85.2548 101.623 72 101.623C58.7452 101.623 48 102.603 48 103.812C48 105.02 58.7452 106 72 106Z" fill="#D1D3D4"/>
<path d="M95.1874 89.0962C96.756 96.2867 91.5482 101.517 91.5482 101.517H54.8768C54.8768 101.517 49.6753 96.3086 51.2345 89.0962C52.7937 81.8839 63.8462 77.9542 67.2062 74.9967C70.5662 72.0393 69.3678 67.0122 64.0847 63.1669C58.8015 59.3216 51.6486 56.8831 51.8494 48.5766C51.9686 43.2619 56.1725 39.8011 56.1725 39.8011H90.2651C90.2651 39.8011 94.469 43.24 94.5882 48.5766C94.7764 56.8831 87.6235 59.3216 82.3372 63.1669C77.0509 67.0122 75.8525 72.0393 79.2157 74.9967C82.5788 77.9542 93.6282 81.8996 95.1874 89.0962Z" fill="white"/>
<path d="M91.5482 101.661H54.8768C54.8379 101.66 54.8006 101.645 54.7733 101.617C54.7231 101.564 49.5372 96.2554 51.0964 89.065C52.2258 83.8566 58.3309 80.2927 62.789 77.6916C64.6023 76.6349 66.1647 75.7221 67.1121 74.878C67.7213 74.3675 68.2034 73.7233 68.5208 72.9959C68.8381 72.2685 68.982 71.4777 68.9411 70.6856C68.8251 68.1846 67.0243 65.4679 64 63.2701C62.9615 62.5135 61.8258 61.7976 60.7278 61.1036C56.2102 58.2556 51.5419 55.3075 51.6925 48.561C51.8117 43.2463 56.0251 39.7136 56.069 39.6792C56.0941 39.6571 56.1264 39.6449 56.16 39.6448H90.265C90.2985 39.6455 90.3306 39.6576 90.356 39.6792C90.3968 39.7136 94.6101 43.2338 94.7325 48.561C94.8831 55.3075 90.2117 58.2524 85.6941 61.1036C84.5992 61.7976 83.4635 62.5135 82.4219 63.2701C79.4007 65.4585 77.6 68.1721 77.4839 70.6856C77.4424 71.4775 77.5857 72.2682 77.9025 72.9956C78.2193 73.723 78.701 74.3673 79.3098 74.878C80.2509 75.7095 81.8196 76.6224 83.6329 77.6916C88.0909 80.2927 94.1992 83.8566 95.3286 89.065C96.8972 96.2554 91.7019 101.57 91.6486 101.617C91.6359 101.631 91.6203 101.642 91.6031 101.649C91.5858 101.657 91.5671 101.661 91.5482 101.661ZM54.9364 101.373H91.4854C91.9654 100.864 96.5051 95.824 95.0494 89.1244C93.9451 84.0379 87.8996 80.5146 83.4886 77.9386C81.6658 76.8756 80.0878 75.9565 79.1215 75.1031C78.4777 74.5641 77.9685 73.8833 77.6341 73.1144C77.2998 72.3456 77.1496 71.5098 77.1952 70.6731C77.3176 68.0721 79.1592 65.2897 82.2525 63.0388C83.3035 62.2759 84.4486 61.5569 85.5435 60.8504C89.9921 58.0367 94.5913 55.1387 94.4439 48.5547C94.3341 43.6308 90.6321 40.2826 90.2117 39.9199H56.2133C55.7929 40.2826 52.0909 43.6308 51.978 48.5547C51.8305 55.1387 56.4329 58.043 60.8815 60.8504C61.9827 61.5444 63.1215 62.2634 64.1694 63.0388C67.2627 65.2897 69.1074 68.0721 69.2266 70.6731C69.2709 71.5075 69.1203 72.3408 68.7866 73.1073C68.4529 73.8738 67.9452 74.5527 67.3035 75.0905C66.3341 75.944 64.7592 76.8631 62.9364 77.9261C58.5223 80.5021 52.48 84.0254 51.3756 89.1119C49.9231 95.824 54.4564 100.864 54.9364 101.373Z" fill="#231F20"/>
<path d="M62.3654 59.3309C63.4979 60.0469 64.6713 60.7847 65.7818 61.5944C68.4062 63.4173 70.3832 66.0222 71.4289 69.0349C72.4391 71.9236 72.1568 74.9998 72.7842 77.9854C72.7922 78.1001 72.8267 78.2114 72.8849 78.3106C72.9431 78.4098 73.0235 78.4943 73.1199 78.5575C73.2641 78.6166 73.4231 78.63 73.5752 78.5958C73.7273 78.5617 73.8652 78.4818 73.9701 78.3668C74.1384 78.1482 74.2388 77.8851 74.2587 77.6103C74.654 75.2155 74.6352 72.9552 74.7858 70.5293C74.9803 67.428 77.0979 64.1704 80.6273 61.6069C81.7411 60.7972 82.9113 60.0594 84.0469 59.3435C86.6007 57.7303 96.596 50.6086 89.9513 48.4765C88.5301 48.0232 86.9458 48.1451 85.4305 48.2764L61.6752 50.3148C60.2979 50.4336 58.8924 50.5586 57.6344 51.0338C56.3764 51.509 55.272 52.4031 55.0493 53.5348C54.6415 55.667 60.5081 58.168 62.3654 59.3309Z" fill="#B6C0F8"/>
<path d="M91.5766 88.4929C90.1865 87.4276 88.4623 86.8882 86.7107 86.9704C84.2825 87.0579 81.9201 87.8489 79.495 87.7332C76.6056 87.5956 73.8762 86.1701 71.0025 86.4639C67.6299 86.7953 65.1828 89.3432 61.9044 90.0998C60.1632 90.4999 58.2683 90.3718 56.5711 90.8939C54.5695 91.5191 53.6942 93.1979 53.9264 94.8549C53.9985 95.3707 55.4134 99.4223 56.2072 99.4223H90.2056C91.953 99.4223 93.2707 91.9818 93.095 90.9501C92.9056 89.9743 92.3658 89.1007 91.5766 88.4929Z" fill="#B6C0F8"/>
<path d="M90.8863 37.1407H55.5357C54.7976 37.1407 54.1992 37.7362 54.1992 38.4709C54.1992 39.2056 54.7976 39.8011 55.5357 39.8011H90.8863C91.6244 39.8011 92.2227 39.2056 92.2227 38.4709C92.2227 37.7362 91.6244 37.1407 90.8863 37.1407Z" fill="#231F20"/>
<path d="M90.8894 39.9387H55.5294C55.1384 39.9387 54.7633 39.7839 54.4868 39.5083C54.2103 39.2328 54.0549 38.859 54.0549 38.4693C54.0549 38.0797 54.2103 37.7059 54.4868 37.4304C54.7633 37.1548 55.1384 37 55.5294 37H90.8894C91.2805 37 91.6556 37.1548 91.9321 37.4304C92.2086 37.7059 92.364 38.0797 92.364 38.4693C92.364 38.859 92.2086 39.2328 91.9321 39.5083C91.6556 39.7839 91.2805 39.9387 90.8894 39.9387ZM55.5294 37.2782C55.3671 37.27 55.2048 37.2947 55.0523 37.3509C54.8999 37.4071 54.7605 37.4936 54.6427 37.6051C54.5248 37.7167 54.431 37.851 54.3669 37.9998C54.3028 38.1487 54.2697 38.3089 54.2697 38.4709C54.2697 38.6329 54.3028 38.7932 54.3669 38.942C54.431 39.0908 54.5248 39.2251 54.6427 39.3367C54.7605 39.4483 54.8999 39.5348 55.0523 39.591C55.2048 39.6472 55.3671 39.6719 55.5294 39.6636H90.8894C91.1963 39.6479 91.4853 39.5154 91.697 39.2935C91.9086 39.0715 92.0266 38.7771 92.0266 38.4709C92.0266 38.1648 91.9086 37.8703 91.697 37.6483C91.4853 37.4264 91.1963 37.2939 90.8894 37.2782H55.5294Z" fill="#231F20"/>
<path d="M91.5701 101.517H54.8548C54.1167 101.517 53.5183 102.112 53.5183 102.847C53.5183 103.582 54.1167 104.177 54.8548 104.177H91.5701C92.3082 104.177 92.9066 103.582 92.9066 102.847C92.9066 102.112 92.3082 101.517 91.5701 101.517Z" fill="#231F20"/>
<path d="M91.5703 104.318H54.8644C54.4733 104.318 54.0983 104.163 53.8218 103.888C53.5452 103.612 53.3899 103.238 53.3899 102.849C53.3899 102.459 53.5452 102.085 53.8218 101.81C54.0983 101.534 54.4733 101.379 54.8644 101.379H91.5703C91.9614 101.379 92.3364 101.534 92.6129 101.81C92.8894 102.085 93.0448 102.459 93.0448 102.849C93.0448 103.238 92.8894 103.612 92.6129 103.888C92.3364 104.163 91.9614 104.318 91.5703 104.318ZM54.8644 101.655C54.5466 101.655 54.2417 101.78 54.017 102.004C53.7922 102.228 53.666 102.532 53.666 102.849C53.666 103.165 53.7922 103.469 54.017 103.693C54.2417 103.917 54.5466 104.043 54.8644 104.043H91.5703C91.8881 104.043 92.193 103.917 92.4177 103.693C92.6425 103.469 92.7687 103.165 92.7687 102.849C92.7687 102.532 92.6425 102.228 92.4177 102.004C92.193 101.78 91.8881 101.655 91.5703 101.655H54.8644Z" fill="#231F20"/>
<path d="M72.6715 79.7393C71.655 79.7393 71.6519 83.0906 72.6715 83.0906C73.6911 83.0906 73.6911 79.7393 72.6715 79.7393Z" fill="#B6C0F8"/>
<path d="M74.4501 83.0844C74.0391 83.0844 74.0391 84.2693 74.4501 84.2693C74.8611 84.2693 74.8642 83.0844 74.4501 83.0844Z" fill="#B6C0F8"/>
<path d="M71.9374 56.211C67.2678 56.1711 62.6276 55.4711 58.1554 54.132C58.1374 54.1267 58.1207 54.1178 58.1062 54.1058C58.0918 54.0939 58.0799 54.0791 58.0714 54.0624C58.0629 54.0457 58.0579 54.0275 58.0567 54.0088C58.0555 53.9901 58.0581 53.9714 58.0644 53.9538C58.0766 53.9178 58.1026 53.8881 58.1367 53.8711C58.1707 53.8541 58.2102 53.8512 58.2464 53.8631C58.4409 53.9288 77.9233 60.2282 88.364 50.493C88.3921 50.4681 88.4289 50.455 88.4664 50.4567C88.504 50.4583 88.5394 50.4745 88.5652 50.5018C88.591 50.5291 88.605 50.5654 88.6043 50.6029C88.6037 50.6403 88.5884 50.6761 88.5617 50.7025C83.9562 54.9948 77.6284 56.211 71.9374 56.211Z" fill="#231F20"/>
<path d="M67.5419 94.0076C63.8764 94.0078 60.23 93.4813 56.7152 92.4445C56.6959 92.4397 56.6777 92.431 56.6619 92.4189C56.6461 92.4069 56.633 92.3916 56.6234 92.3743C56.6138 92.3569 56.6079 92.3377 56.6061 92.3179C56.6043 92.2981 56.6066 92.2782 56.6129 92.2594C56.6192 92.2405 56.6293 92.2232 56.6427 92.2085C56.656 92.1937 56.6723 92.1819 56.6905 92.1738C56.7086 92.1656 56.7283 92.1613 56.7482 92.1611C56.7681 92.1608 56.7879 92.1647 56.8062 92.1725C56.9097 92.21 67.498 95.6645 77.0666 92.1725L88.4141 88.0302C88.4323 88.0212 88.4522 88.0162 88.4725 88.0154C88.4928 88.0147 88.513 88.0182 88.5319 88.0257C88.5507 88.0333 88.5678 88.0448 88.5819 88.0593C88.596 88.0739 88.6068 88.0913 88.6137 88.1104C88.6206 88.1294 88.6234 88.1497 88.6219 88.1699C88.6203 88.1901 88.6146 88.2097 88.6049 88.2275C88.5952 88.2454 88.5819 88.2609 88.5658 88.2732C88.5496 88.2856 88.5311 88.2944 88.5113 88.299L77.1764 92.4351C74.0814 93.5146 70.8208 94.0468 67.5419 94.0076Z" fill="#231F20"/>
<path d="M81.7067 88.7461H81.6722C78.4032 87.9426 72.6965 86.5765 72.6369 86.5577C72.6026 86.5461 72.574 86.5222 72.5566 86.4906C72.5392 86.4589 72.5344 86.422 72.543 86.3869C72.5517 86.3519 72.5733 86.3215 72.6035 86.3016C72.6336 86.2816 72.6702 86.2738 72.7059 86.2795C72.7624 86.2951 78.4691 87.6581 81.7412 88.4679C81.7597 88.4719 81.7772 88.4796 81.7926 88.4905C81.8081 88.5014 81.8212 88.5153 81.8311 88.5313C81.8411 88.5473 81.8477 88.5652 81.8506 88.5839C81.8534 88.6025 81.8525 88.6215 81.8479 88.6398C81.8396 88.6706 81.8211 88.6978 81.7956 88.717C81.77 88.7363 81.7388 88.7465 81.7067 88.7461Z" fill="#231F20"/>
<defs>
<radialGradient id="paint0_angular" cx="0" cy="0" r="1" gradientUnits="userSpaceOnUse" gradientTransform="translate(71.5 71.5) rotate(-146.665) scale(111.913)">
<stop stop-color="#BCC6FC"/>
<stop offset="1" stop-color="#B6C0F8" stop-opacity="0"/>
</radialGradient>
</defs>
</svg>
