<svg width="11" height="14" viewBox="0 0 11 14" fill="none" xmlns="http://www.w3.org/2000/svg">
<path d="M10.7143 10.8532C10.7143 8.65179 10.1702 6.10714 7.97712 6.10714C7.29911 6.76841 6.37835 7.17857 5.35714 7.17857C4.33594 7.17857 3.41518 6.76841 2.73717 6.10714C0.544085 6.10714 0 8.65179 0 10.8532C0 12.0753 0.803571 13.0714 1.78292 13.0714H8.93136C9.91071 13.0714 10.7143 12.0753 10.7143 10.8532ZM8.57143 3.42857C8.57143 1.65402 7.1317 0.214285 5.35714 0.214285C3.58259 0.214285 2.14286 1.65402 2.14286 3.42857C2.14286 5.20312 3.58259 6.64286 5.35714 6.64286C7.1317 6.64286 8.57143 5.20312 8.57143 3.42857Z" fill="white"/>
</svg>
