<svg width="131" height="134" viewBox="0 0 131 134" fill="none" xmlns="http://www.w3.org/2000/svg">
<path d="M98.2907 121.853L116.472 111.91C112.291 105.533 111.979 101.876 111.268 96.8278C108.975 80.6199 92.8921 70.2682 80.3857 61.7423C79.3329 61.0026 78.2414 60.3197 77.1158 59.6965C75.7904 58.9856 72.0907 56.7812 71.1236 58.8168C70.1973 60.7705 72.5001 64.3353 73.6566 65.7674C72.8963 64.6324 72.0549 63.5538 71.1389 62.5401C70.8551 62.1621 70.4622 61.8801 70.0131 61.7321C69.1739 61.5428 68.3654 62.3407 68.2375 63.1897C68.1836 64.055 68.398 64.9158 68.8515 65.6549C69.7839 67.5001 70.9481 69.2188 72.3159 70.7694C71.3999 69.7465 68.0021 65.8339 68.0737 69.7772C68.1329 72.2636 69.1698 74.6266 70.9598 76.3544C70.1769 75.6635 69.3324 75.0455 68.437 74.5081C68.311 74.4095 68.1659 74.3382 68.0109 74.2986C67.8559 74.259 67.6943 74.2519 67.5364 74.2779C67.3682 74.359 67.2237 74.4821 67.117 74.6353C67.0103 74.7885 66.945 74.9667 66.9275 75.1525C66.3646 77.6791 67.7667 79.4845 68.7338 81.6479C69.4809 83.3204 69.921 84.9161 70.8728 86.5374C74.332 92.4088 77.9243 96.48 81.8799 102.029C82.8982 103.415 98.2498 121.879 98.2907 121.853Z" fill="white"/>
<path d="M98.3164 122.109C98.1475 122.109 97.8046 121.72 95.6503 119.127C94.1868 117.378 92.232 115.035 90.2466 112.632C88.3941 110.402 82.3098 103.052 81.6702 102.152C80.3397 100.285 79.0501 98.5718 77.7964 96.9301C75.1991 93.6504 72.8065 90.2137 70.6324 86.6397C70.0641 85.6221 69.5798 84.5599 69.1842 83.4636C68.9693 82.8959 68.739 82.3128 68.478 81.7247C68.2785 81.2797 68.0584 80.8398 67.8435 80.4153C66.9941 78.7429 66.1907 77.1574 66.6614 75.0707C66.6812 74.8392 66.7641 74.6175 66.9013 74.4299C67.0385 74.2423 67.2245 74.096 67.4392 74.0069C67.6319 73.9691 67.8304 73.9724 68.0217 74.0164C68.2131 74.0605 68.393 74.1444 68.5497 74.2626C68.8055 74.4211 69.0614 74.5848 69.3173 74.774C68.3552 73.2814 67.8239 71.5523 67.7821 69.7772C67.7821 68.6827 68.0021 68.0485 68.5139 67.849C68.9386 67.6853 69.4657 67.849 70.049 68.2633C69.5187 67.4643 69.0369 66.6343 68.606 65.7776C68.1236 64.9952 67.8998 64.0808 67.9663 63.1641C68.0124 62.8805 68.1149 62.6089 68.2678 62.3656C68.4208 62.1222 68.621 61.912 68.8567 61.7474C69.0263 61.6234 69.2201 61.5365 69.4256 61.4924C69.631 61.4484 69.8435 61.4481 70.049 61.4917C70.5045 61.6276 70.9078 61.8987 71.2055 62.2691C70.6938 61.0365 70.397 59.7118 70.8729 58.6889C70.97 58.4773 71.1117 58.2891 71.2884 58.1372C71.465 57.9854 71.6724 57.8735 71.8963 57.8092C73.3547 57.3336 75.6933 58.6122 76.9521 59.2976L77.2438 59.4561C78.3782 60.0877 79.4783 60.7791 80.5393 61.5275L81.9977 62.5197C94.1663 70.795 109.303 81.0905 111.524 96.7869L111.647 97.641C112.281 102.198 112.778 105.824 116.692 111.762C116.712 111.791 116.725 111.825 116.732 111.859C116.738 111.894 116.736 111.93 116.728 111.964C116.719 111.999 116.703 112.031 116.681 112.058C116.659 112.086 116.631 112.109 116.6 112.125L98.4187 122.073C98.3888 122.095 98.3532 122.107 98.3164 122.109ZM67.7258 74.4774C67.6868 74.4721 67.6472 74.4721 67.6081 74.4774C67.3625 74.5541 67.2397 74.8917 67.1783 75.1679C66.7535 77.0756 67.5109 78.5792 68.3194 80.1698C68.5343 80.5995 68.7646 81.0444 68.9693 81.5047C69.2303 82.098 69.481 82.6913 69.6857 83.2641C70.0692 84.3364 70.5416 85.3749 71.098 86.3686C73.2541 89.9214 75.6279 93.3376 78.2058 96.5976C79.4595 98.2496 80.7644 99.9579 82.0898 101.83C83.1848 103.364 96.9296 119.843 98.3471 121.505L116.109 111.788C112.271 105.865 111.769 102.249 111.135 97.687L111.012 96.8329C108.827 81.3615 93.7876 71.1325 81.706 62.9186L80.2425 61.8957C79.1979 61.157 78.115 60.4741 76.9982 59.8499L76.7014 59.6863C75.596 59.0879 73.2984 57.8297 72.0447 58.2389C71.8933 58.2865 71.7538 58.3659 71.6356 58.4717C71.5173 58.5776 71.423 58.7074 71.359 58.8526C70.7501 60.1312 71.7121 62.356 72.843 64.1205C73.2012 64.5911 73.5441 65.0667 73.8664 65.5577C73.9042 65.612 73.9189 65.6791 73.9074 65.7442C73.8959 65.8094 73.8591 65.8674 73.805 65.9055C73.7517 65.9452 73.6851 65.9625 73.6192 65.9539C73.5533 65.9454 73.4933 65.9115 73.4519 65.8595C73.4059 65.7981 72.976 65.2611 72.4694 64.4786C71.985 63.8444 71.4733 63.2323 70.9343 62.6424C70.6833 62.3056 70.3377 62.0511 69.9416 61.9111C69.8045 61.8844 69.6634 61.8861 69.527 61.916C69.3906 61.9459 69.2617 62.0034 69.1484 62.085C68.9702 62.2103 68.8186 62.3697 68.7027 62.5541C68.5867 62.7385 68.5086 62.9442 68.4729 63.159C68.4318 63.9703 68.6389 64.7749 69.0665 65.4656C69.9881 67.2827 71.1367 68.9755 72.4848 70.5034C72.5261 70.5548 72.5461 70.62 72.5405 70.6857C72.5348 70.7513 72.5041 70.8123 72.4546 70.8558C72.4051 70.8994 72.3407 70.9221 72.2748 70.9193C72.2089 70.9166 72.1467 70.8885 72.101 70.841V70.8103C69.9978 68.4372 69.1177 68.1098 68.7493 68.253C68.4729 68.3605 68.3296 68.8719 68.345 69.6953C68.3609 70.8999 68.6151 72.0894 69.0928 73.1954C69.5706 74.3014 70.2625 75.302 71.1287 76.1396C71.1744 76.1862 71.2006 76.2484 71.2019 76.3136C71.2032 76.3788 71.1795 76.442 71.1358 76.4903C71.092 76.5387 71.0314 76.5685 70.9663 76.5736C70.9013 76.5788 70.8368 76.5589 70.7859 76.5181C70.0126 75.8401 69.1803 75.2325 68.2989 74.7024C68.1289 74.5823 67.9322 74.5051 67.7258 74.4774Z" fill="#231F20"/>
<path d="M56.3121 106.546L91.4219 115.185C92.8379 115.533 94.2684 114.668 94.617 113.253L113.1 38.2133C113.449 36.798 112.583 35.3682 111.167 35.0198L76.0574 26.3811C74.6414 26.0327 73.2109 26.8975 72.8623 28.3128L54.3794 103.353C54.0308 104.768 54.8961 106.198 56.3121 106.546Z" fill="white"/>
<path d="M92.053 115.526C91.8167 115.526 91.5813 115.496 91.3519 115.439L56.2429 106.806C55.4979 106.621 54.8566 106.149 54.4596 105.492C54.0625 104.835 53.942 104.048 54.1244 103.303L72.5974 28.2628C72.7827 27.5179 73.2553 26.8766 73.9121 26.4789C74.5689 26.0812 75.3564 25.9595 76.1027 26.1402L111.212 34.7786C111.582 34.8679 111.931 35.0295 112.239 35.2543C112.546 35.4791 112.806 35.7625 113.004 36.0882C113.201 36.4139 113.332 36.7754 113.389 37.152C113.446 37.5285 113.428 37.9126 113.335 38.2821L94.8572 113.322C94.703 113.95 94.3432 114.508 93.835 114.907C93.3268 115.306 92.6995 115.525 92.053 115.526ZM56.3657 106.32L91.4747 114.954C91.7788 115.029 92.0947 115.043 92.4043 114.996C92.7139 114.949 93.0112 114.841 93.2792 114.679C93.5472 114.517 93.7807 114.304 93.9663 114.052C94.1518 113.8 94.2859 113.513 94.3608 113.21L112.839 38.1593C112.986 37.5477 112.885 36.9029 112.558 36.3654C112.231 35.828 111.705 35.4414 111.094 35.2901L75.985 26.6363C75.6803 26.5614 75.3637 26.5473 75.0535 26.5947C74.7433 26.642 74.4454 26.75 74.1769 26.9124C73.9085 27.0749 73.6746 27.2885 73.4888 27.5413C73.3029 27.794 73.1687 28.0809 73.0938 28.3855L54.6208 103.42C54.4693 104.035 54.5679 104.684 54.8951 105.226C55.2223 105.768 55.7512 106.158 56.3657 106.31V106.32Z" fill="#231F20"/>
<path d="M58.6214 95.2172L94.6355 104.078L109.832 42.383L73.8174 33.5217L58.6214 95.2172Z" fill="#E6E7E8"/>
<path d="M71.0487 107.576L77.9007 109.262C78.7706 109.476 79.6494 108.945 79.8636 108.075L80.5095 105.453C80.7236 104.584 80.192 103.705 79.3221 103.491L72.4701 101.805C71.6001 101.591 70.7213 102.123 70.5072 102.992L69.8613 105.614C69.6472 106.484 70.1788 107.362 71.0487 107.576Z" fill="white"/>
<path d="M78.2928 109.573C78.1427 109.572 77.9933 109.553 77.8476 109.517L70.9957 107.834C70.5122 107.713 70.0961 107.406 69.8382 106.98C69.5804 106.553 69.5016 106.042 69.6192 105.558L70.264 102.94C70.385 102.456 70.6923 102.04 71.1189 101.783C71.5455 101.525 72.0567 101.446 72.5411 101.564L79.3879 103.252C79.6279 103.31 79.8539 103.415 80.0531 103.56C80.2524 103.706 80.4208 103.89 80.5487 104.101C80.6766 104.312 80.7615 104.546 80.7986 104.79C80.8356 105.034 80.824 105.283 80.7644 105.522L80.1197 108.141C80.0199 108.55 79.7855 108.913 79.4542 109.173C79.1229 109.433 78.7139 109.574 78.2928 109.573ZM71.1288 107.338L77.9807 109.021C78.1565 109.064 78.3391 109.072 78.518 109.043C78.6968 109.015 78.8682 108.952 79.0221 108.856C79.176 108.761 79.3093 108.636 79.4143 108.489C79.5193 108.341 79.5939 108.174 79.6335 107.998L80.2783 105.379C80.3208 105.204 80.328 105.021 80.2994 104.843C80.2708 104.664 80.2071 104.493 80.1119 104.34C80.0167 104.186 79.8919 104.053 79.7448 103.948C79.5977 103.842 79.4312 103.768 79.2549 103.727L72.4081 102.039C72.232 101.998 72.0494 101.991 71.8708 102.02C71.6921 102.049 71.5209 102.112 71.3669 102.207C71.2129 102.302 71.0791 102.427 70.9733 102.573C70.8675 102.72 70.7916 102.886 70.7501 103.062L70.1053 105.681C70.0635 105.857 70.0568 106.039 70.0856 106.218C70.1144 106.397 70.1782 106.568 70.2733 106.722C70.3683 106.876 70.4928 107.009 70.6396 107.115C70.7864 107.221 70.9526 107.297 71.1288 107.338Z" fill="#E6E7E8"/>
<path d="M99.3604 36.0624H99.299L89.0646 33.5409C89.0322 33.5331 89.0017 33.519 88.9748 33.4993C88.9479 33.4796 88.9252 33.4547 88.9081 33.4261C88.8909 33.3976 88.8796 33.3659 88.8749 33.3329C88.8701 33.2999 88.872 33.2663 88.8804 33.234C88.8962 33.1684 88.9374 33.1116 88.9949 33.0761C89.0524 33.0407 89.1216 33.0294 89.1874 33.0448L99.4218 35.5663C99.4879 35.5832 99.5448 35.6253 99.5802 35.6836C99.6155 35.742 99.6267 35.8118 99.6112 35.8782C99.5954 35.9322 99.5623 35.9795 99.517 36.0128C99.4717 36.0461 99.4166 36.0635 99.3604 36.0624Z" fill="#E6E7E8"/>
<path d="M87.6675 33.188H87.606L86.2346 32.8505C86.1689 32.8347 86.1121 32.7935 86.0767 32.736C86.0412 32.6785 86.0299 32.6094 86.0453 32.5436C86.0525 32.5107 86.0662 32.4796 86.0857 32.4522C86.1052 32.4247 86.13 32.4015 86.1586 32.3838C86.1873 32.3662 86.2192 32.3545 86.2525 32.3494C86.2858 32.3443 86.3197 32.346 86.3523 32.3543L87.7289 32.6919C87.7625 32.6959 87.7949 32.7065 87.8244 32.7231C87.8539 32.7397 87.8799 32.7619 87.9008 32.7885C87.9217 32.8151 87.9372 32.8455 87.9463 32.8781C87.9554 32.9107 87.9581 32.9447 87.954 32.9783C87.95 33.0119 87.9394 33.0444 87.9228 33.0738C87.9062 33.1033 87.884 33.1293 87.8574 33.1502C87.8308 33.1711 87.8003 33.1865 87.7677 33.1956C87.7351 33.2048 87.7011 33.2074 87.6675 33.2034V33.188Z" fill="#E6E7E8"/>
<path d="M69.7508 83.4773L91.1563 88.4598C93.05 88.9006 94.9427 87.7236 95.3838 85.8309L95.7412 84.2967C96.1823 82.404 95.0046 80.5123 93.1109 80.0715L71.7054 75.089C69.8117 74.6482 67.9191 75.8252 67.478 77.7179L67.1205 79.2521C66.6795 81.1448 67.8571 83.0365 69.7508 83.4773Z" fill="#231F20"/>
<path d="M91.9558 88.8082C91.6679 88.8067 91.3812 88.7724 91.1012 88.706L69.696 83.7244C68.721 83.4969 67.8764 82.8918 67.3477 82.0421C66.8189 81.1924 66.6494 80.1676 66.8764 79.193L67.2346 77.6586C67.3468 77.1757 67.553 76.7195 67.8416 76.3162C68.1301 75.913 68.4954 75.5704 68.9164 75.3083C69.3374 75.0461 69.806 74.8694 70.2954 74.7883C70.7847 74.7071 71.2853 74.7232 71.7685 74.8354L93.1737 79.8169C94.1479 80.0457 94.9917 80.651 95.5202 81.5004C96.0487 82.3498 96.2188 83.3739 95.9932 84.3484L95.635 85.8827C95.4413 86.7134 94.9725 87.4543 94.3047 87.9853C93.6368 88.5163 92.8091 88.8063 91.9558 88.8082ZM70.9139 75.2497C70.1769 75.2507 69.4618 75.5002 68.8842 75.9577C68.3066 76.4153 67.9003 77.0542 67.731 77.7711L67.3728 79.3055C67.2756 79.7229 67.2617 80.1554 67.3318 80.5782C67.4019 81.001 67.5546 81.4059 67.7813 81.7697C68.008 82.1335 68.3041 82.4491 68.6528 82.6985C69.0016 82.9479 69.396 83.1262 69.8137 83.2232L91.2189 88.2047C92.0623 88.3994 92.9485 88.252 93.6833 87.7947C94.418 87.3373 94.9414 86.6075 95.1387 85.7651L95.4969 84.2308C95.6917 83.3878 95.5441 82.5021 95.0866 81.7677C94.629 81.0333 93.8988 80.5102 93.056 80.3131L71.6405 75.3366C71.4027 75.2788 71.1587 75.2496 70.9139 75.2497Z" fill="#231F20"/>
<path d="M75.3097 78.9219C75.2445 78.7597 75.1322 78.6208 74.9873 78.523C74.8337 78.4162 74.6593 78.343 74.4756 78.3082C74.3857 78.2795 74.2931 78.2607 74.1992 78.2519C74.0979 78.2547 73.9977 78.2737 73.9024 78.3082C73.8109 78.3439 73.7287 78.3998 73.6619 78.4718C73.5919 78.5538 73.5443 78.6525 73.5238 78.7582C73.5031 78.8341 73.5001 78.9137 73.5152 78.9909C73.5303 79.0681 73.563 79.1407 73.6108 79.2032C73.7289 79.3337 73.863 79.4488 74.0099 79.5459C74.1736 79.6533 74.3527 79.7658 74.5574 79.8783C74.7452 79.9856 74.9174 80.1181 75.0692 80.2721C75.2237 80.428 75.344 80.6144 75.4222 80.8194C75.4953 81.0734 75.4953 81.3428 75.4222 81.5968C75.3685 81.8484 75.2583 82.0845 75.0999 82.2873C74.9644 82.465 74.7891 82.6087 74.5881 82.7066C74.3775 82.8052 74.15 82.8624 73.9178 82.8754C73.6709 82.9082 73.4204 82.9013 73.1758 82.855C72.8595 82.7859 72.558 82.6612 72.2854 82.4867C72.0116 82.3099 71.7906 82.0625 71.6458 81.7707L72.4901 81.2592C72.5595 81.4571 72.6794 81.6335 72.8381 81.7707C72.9958 81.9053 73.1836 82 73.3856 82.0469C73.4953 82.0675 73.6066 82.0777 73.7182 82.0776C73.8283 82.0712 73.937 82.0488 74.0406 82.0111C74.1395 81.9732 74.2286 81.9138 74.3016 81.8372C74.3784 81.7558 74.4315 81.655 74.4551 81.5456C74.4777 81.4644 74.4821 81.3792 74.4679 81.2961C74.4537 81.213 74.4214 81.1341 74.3732 81.0649C74.2606 80.925 74.1278 80.8027 73.9792 80.7018C73.8154 80.5943 73.6312 80.4818 73.4317 80.3693C73.2462 80.2585 73.0745 80.1263 72.9199 79.9755C72.765 79.8219 72.6447 79.6371 72.5668 79.4334C72.4936 79.1811 72.4936 78.9133 72.5668 78.6611C72.616 78.4187 72.727 78.1932 72.8892 78.0064C73.0412 77.8408 73.2259 77.7084 73.4317 77.6177C73.6461 77.5283 73.8749 77.4781 74.1071 77.4694C74.6269 77.4476 75.1419 77.5754 75.5911 77.8376C75.8284 77.9826 76.0325 78.1761 76.1898 78.4053L75.3097 78.9219Z" fill="white"/>
<path d="M77.2182 78.1905L80.6365 78.973L80.4472 79.8016L77.9449 79.2339L77.6583 80.5023L80.0275 81.0137L79.8382 81.8474L77.469 81.3206L77.1466 82.722L79.7819 83.3204L79.5926 84.154L76.0413 83.3664L77.2182 78.1905Z" fill="white"/>
<path d="M81.6753 79.2083L82.8932 79.4845L84.5204 83.8881L85.3955 80.0522L86.3165 80.2619L85.1498 85.4122L83.9831 85.1462L82.3303 80.6097L81.4245 84.5683L80.5085 84.3586L81.6753 79.2083Z" fill="white"/>
<path d="M87.5039 80.533L89.5508 80.9933C89.8852 81.0683 90.2051 81.1979 90.4974 81.3769C90.7838 81.5469 91.0327 81.773 91.2292 82.0418C91.4283 82.3231 91.5645 82.6441 91.6283 82.9828C91.698 83.3786 91.6841 83.7845 91.5874 84.1745C91.506 84.5731 91.3305 84.9466 91.0757 85.2639C90.8486 85.538 90.5661 85.7611 90.2467 85.9185C89.9347 86.0675 89.5984 86.1593 89.254 86.1896C88.9236 86.2213 88.5903 86.2006 88.2663 86.1282L86.3423 85.6935L87.5039 80.533ZM88.1179 85.2281C88.3935 85.2888 88.675 85.318 88.9572 85.315C89.2106 85.3096 89.4608 85.2558 89.694 85.1565C89.9165 85.061 90.1118 84.9115 90.262 84.7217C90.4376 84.4968 90.5585 84.2342 90.6151 83.9546C90.682 83.68 90.6942 83.395 90.6509 83.1158C90.6082 82.8852 90.5118 82.668 90.3695 82.4816C90.2211 82.2977 90.0365 82.1462 89.8271 82.0366C89.5875 81.9125 89.333 81.8196 89.0697 81.7605L88.2305 81.5712L87.4374 85.0695L88.1179 85.2281Z" fill="white"/>
<path d="M112.291 103.85C112.291 103.85 108.996 76.3391 105.772 73.3266C101.939 69.7465 98.4443 67.3222 97.8098 69.368C97.1752 71.4138 96.5714 74.815 101.811 78.6457L101.044 85.4582C101.044 85.4582 95.8908 89.0384 98.5722 100.255" fill="white"/>
<path d="M112.286 104.085C112.229 104.083 112.175 104.061 112.133 104.023C112.09 103.984 112.063 103.932 112.056 103.876C112.025 103.604 108.74 76.4158 105.614 73.4954C100.906 69.1072 99.1659 68.7236 98.5416 68.8924C98.4142 68.9294 98.2993 69.0004 98.2092 69.0977C98.119 69.195 98.0571 69.3149 98.0299 69.4447C97.3032 71.7769 97.0883 74.907 101.95 78.4667C101.983 78.4907 102.01 78.5233 102.026 78.5612C102.042 78.5991 102.048 78.6407 102.042 78.6815L101.279 85.4889C101.274 85.5224 101.263 85.5546 101.245 85.5836C101.227 85.6125 101.204 85.6377 101.177 85.6577C101.126 85.6935 96.1928 89.2788 98.8026 100.208C98.8151 100.269 98.804 100.331 98.7717 100.384C98.7393 100.436 98.6881 100.474 98.6286 100.49C98.5682 100.504 98.5048 100.493 98.4521 100.461C98.3994 100.428 98.3617 100.376 98.3471 100.316C95.8192 89.7237 100.118 85.8827 100.824 85.3355L101.566 78.7634C96.5766 75.0656 96.8171 71.7667 97.5847 69.3015C97.6342 69.0955 97.7382 68.9065 97.8858 68.7544C98.0335 68.6024 98.2193 68.4928 98.4239 68.4372C99.6878 68.1047 102.216 69.6953 105.931 73.163C109.185 76.1959 112.389 102.699 112.522 103.85C112.526 103.881 112.524 103.912 112.516 103.942C112.508 103.972 112.494 104 112.475 104.024C112.456 104.048 112.432 104.069 112.405 104.083C112.378 104.098 112.348 104.108 112.317 104.111L112.286 104.085Z" fill="#231F20"/>
<path d="M15.2183 113.92C15.2183 113.92 25.4833 94.0404 33.2154 85.0798C34.2696 83.8574 35.6205 83.6528 36.5672 84.2819C37.6878 85.0337 37.7339 87.5347 37.7339 87.5347C37.7339 87.5347 40.666 85.8572 42.0733 86.205C43.4805 86.5527 43.6442 88.7622 43.6442 88.7622C43.6442 88.7622 46.7811 87.7393 48.0706 88.844C49.3601 89.9488 49.396 91.9127 49.396 91.9127C49.396 91.9127 65.904 78.835 67.7257 77.7353C69.5474 76.6357 72.8122 78.5895 71.2003 80.9114C70.1769 82.3589 61.8563 90.5369 59.1596 93.1351C56.4628 95.7333 50.1789 102.802 49.4778 104.878C48.7768 106.954 48.1781 109.317 52.4612 109.609C56.7442 109.9 60.5617 110.632 62.4397 112.207C64.3177 113.782 65.5509 116.14 64.6094 116.6C63.6678 117.061 48.526 115.358 42.7743 117.669C37.0226 119.981 29.5362 128.41 29.5362 128.41L15.2183 113.92Z" fill="white"/>
<path d="M29.5362 128.681C29.5018 128.682 29.4677 128.675 29.4359 128.662C29.4042 128.649 29.3756 128.629 29.352 128.604L15.0238 114.105C14.9867 114.065 14.9625 114.015 14.9543 113.961C14.9461 113.907 14.9542 113.852 14.9778 113.803C15.0852 113.608 25.3452 93.7898 33.0107 84.911C34.0956 83.6579 35.5693 83.3204 36.7002 84.0722C37.6367 84.6962 37.8874 86.3431 37.9539 87.1409C38.8034 86.696 40.927 85.6833 42.1245 85.9799C43.3219 86.2766 43.7415 87.7751 43.8489 88.4349C44.6882 88.2047 47.0728 87.6728 48.2241 88.6548C49.0007 89.3918 49.4872 90.3825 49.5955 91.4473C52.1132 89.4578 65.8989 78.5639 67.5825 77.5461C68.7901 76.8198 70.4276 77.3108 71.2515 78.1905C71.6265 78.5723 71.8487 79.0781 71.876 79.6124C71.9034 80.1467 71.734 80.6725 71.3999 81.0905C70.3764 82.5481 62.1889 90.5881 59.3284 93.3653C56.4679 96.1425 50.3836 103.001 49.7081 104.996C49.309 106.182 48.961 107.415 49.5188 108.248C49.9538 108.903 50.9465 109.271 52.4714 109.389C57.4709 109.727 60.8738 110.622 62.5932 112.049C64.1284 113.327 65.29 115.184 65.1518 116.181C65.1412 116.325 65.0931 116.465 65.0124 116.585C64.9316 116.705 64.8209 116.802 64.6912 116.866C64.3637 117.03 63.1254 116.989 60.3621 116.866C55.2807 116.672 46.7709 116.355 42.8409 117.93C37.212 120.191 29.7716 128.533 29.6948 128.614C29.6726 128.642 29.6445 128.664 29.6126 128.679C29.5807 128.694 29.5459 128.702 29.5106 128.701L29.5362 128.681ZM15.5304 113.849L29.5259 128.026C30.7336 126.696 37.3655 119.541 42.6771 117.409C46.7146 115.787 55.291 116.115 60.4133 116.309C62.3783 116.386 64.2358 116.457 64.507 116.345C64.5603 116.318 64.6049 116.278 64.6358 116.227C64.6666 116.176 64.6823 116.118 64.681 116.058C64.768 115.332 63.806 113.644 62.2862 112.381C60.6538 111.026 57.3481 110.166 52.4561 109.824C50.7418 109.706 49.6467 109.261 49.1145 108.458C48.4237 107.435 48.8024 106.065 49.2425 104.755C49.9947 102.536 56.4628 95.3548 58.9651 92.9203C61.713 90.2761 69.9978 82.1441 70.9752 80.7376C71.2457 80.417 71.3854 80.0062 71.3664 79.5872C71.3475 79.1683 71.1712 78.7718 70.8728 78.477C70.182 77.7456 68.8004 77.3466 67.8383 77.9246C66.0575 78.9986 49.703 91.9537 49.5393 92.0815C49.5013 92.1112 49.4559 92.1297 49.408 92.1351C49.3601 92.1406 49.3117 92.1326 49.268 92.1122C49.2254 92.092 49.1893 92.0601 49.164 92.0203C49.1386 91.9805 49.125 91.9344 49.1248 91.8872C49.1248 91.8872 49.0736 89.9897 47.8915 88.9821C46.7095 87.9746 43.7364 88.9361 43.7057 88.9463C43.6692 88.9593 43.6302 88.9633 43.5919 88.9579C43.5536 88.9526 43.5171 88.9381 43.4856 88.9157C43.4524 88.8949 43.4249 88.8663 43.4052 88.8324C43.3856 88.7986 43.3746 88.7604 43.373 88.7213C43.373 88.7213 43.2093 86.7113 42.0016 86.4147C40.927 86.1487 38.6345 87.2637 37.8465 87.7137C37.8076 87.7362 37.7635 87.748 37.7186 87.748C37.6736 87.748 37.6295 87.7362 37.5906 87.7137C37.552 87.6927 37.5198 87.6616 37.4973 87.6238C37.4748 87.586 37.4628 87.5429 37.4627 87.4989C37.4627 86.8392 37.2375 85.0082 36.4086 84.4558C35.5796 83.9034 34.3003 84.1592 33.3945 85.2025C26.1537 93.6517 16.5385 111.946 15.5304 113.874V113.849Z" fill="#231F20"/>
<path d="M26.9624 47.2887L17.0913 73.4136L41.8687 77.853C42.2781 76.7585 43.1429 75.9913 43.7774 76.1345L46.6533 76.7687C46.8938 76.825 47.2213 76.5948 47.4311 76.1908C47.5874 75.914 47.6586 75.5974 47.6358 75.2804C47.6357 75.2003 47.6111 75.1221 47.5654 75.0563C47.5197 74.9905 47.455 74.9402 47.3799 74.9121L42.7387 73.6489C42.6508 73.6157 42.5738 73.559 42.5161 73.4851C42.4583 73.4111 42.422 73.3227 42.4112 73.2295C42.3748 72.9646 42.4083 72.6949 42.5084 72.4469C42.7284 71.869 43.1787 71.4905 43.5318 71.5979L44.1817 71.7821L46.7045 72.5697C47.0627 72.6822 47.5693 72.2526 47.7944 71.6082C47.8899 71.3555 47.9249 71.084 47.8968 70.8154C47.8969 70.7156 47.8692 70.6178 47.8167 70.5329C47.7643 70.448 47.6893 70.3793 47.6 70.3347L42.6414 68.5344C42.5476 68.4913 42.4669 68.424 42.4076 68.3396C42.3482 68.2551 42.3124 68.1564 42.3037 68.0536C42.252 67.6845 42.3239 67.3086 42.5084 66.9847C42.7642 66.509 43.1736 66.2891 43.4755 66.4169L50.1279 69.1992C50.4298 69.322 50.8545 68.9486 51.0797 68.3553C51.3048 67.7672 51.2485 67.1739 50.9517 67.0307L46.3463 64.8212C46.2583 64.7676 46.1855 64.6925 46.1344 64.6031C46.0834 64.5136 46.056 64.4127 46.0546 64.3098C46.0196 64.0323 46.0567 63.7505 46.1621 63.4915C46.377 62.9186 46.8068 62.5913 47.119 62.755L47.5283 62.9595L50.2251 64.3916C50.481 64.5297 50.9569 64.4683 51.2946 63.6909C51.8319 62.4583 51.2946 62.085 51.1411 61.998L48.5364 60.3051L26.9624 47.2887Z" fill="white"/>
<path d="M26.9622 47.2887L48.526 60.2949L51.1307 61.9878C51.2739 62.0747 51.8215 62.4481 51.2842 63.6807C51.0334 64.2535 50.7059 64.4376 50.4501 64.4376C50.3682 64.438 50.2875 64.4187 50.2147 64.3814L47.5179 62.9493L47.1086 62.7447C47.0545 62.7179 46.9949 62.704 46.9346 62.7038C46.6531 62.7038 46.3307 63.0107 46.1516 63.4812C46.0462 63.7403 46.0092 64.0221 46.0442 64.2995C46.0455 64.4025 46.073 64.5034 46.124 64.5929C46.175 64.6823 46.2479 64.7574 46.3359 64.811L50.9413 67.0205C51.2381 67.1637 51.2944 67.7569 51.0693 68.3451C50.8748 68.8566 50.5268 69.2095 50.2403 69.2095C50.1997 69.2172 50.158 69.2172 50.1175 69.2095L43.4651 66.4272C43.4088 66.4021 43.3476 66.3898 43.286 66.3914C43.1142 66.4169 42.9517 66.4856 42.8139 66.5912C42.676 66.6968 42.5673 66.8357 42.498 66.9949C42.3135 67.3188 42.2415 67.6947 42.2933 68.0638C42.302 68.1667 42.3378 68.2653 42.3971 68.3498C42.4565 68.4343 42.5372 68.5015 42.631 68.5446L47.5742 70.3653C47.6635 70.41 47.7386 70.4786 47.791 70.5636C47.8434 70.6485 47.8711 70.7463 47.871 70.8461C47.8991 71.1147 47.8641 71.3862 47.7687 71.6389C47.5691 72.2168 47.1393 72.6208 46.7964 72.6208C46.7574 72.6262 46.7178 72.6262 46.6787 72.6208L44.1559 71.8332L43.4958 71.6031C43.4568 71.5977 43.4172 71.5977 43.3781 71.6031C43.0609 71.6031 42.6822 71.9611 42.4877 72.4725C42.3877 72.7204 42.3542 72.9902 42.3905 73.255C42.4014 73.3482 42.4376 73.4367 42.4954 73.5106C42.5532 73.5846 42.6302 73.6413 42.718 73.6744L47.3593 74.9377C47.4344 74.9658 47.4991 75.0161 47.5448 75.0819C47.5905 75.1477 47.615 75.2259 47.6152 75.306C47.638 75.6229 47.5668 75.9396 47.4105 76.2163C47.3524 76.3663 47.2572 76.4989 47.1336 76.6018C47.0101 76.7047 46.8623 76.7745 46.7043 76.8045H46.6327L43.7568 76.1703C43.7057 76.1653 43.6543 76.1653 43.6033 76.1703C42.9892 76.1703 42.2268 76.8966 41.8481 77.9041L17.0707 73.4647L26.9417 47.3398L26.9622 47.2887ZM26.9417 46.8744C26.891 46.8646 26.8389 46.8646 26.7882 46.8744C26.723 46.8964 26.6635 46.9326 26.6139 46.9804C26.5644 47.0281 26.526 47.0863 26.5016 47.1506L16.6357 73.2704C16.6101 73.3348 16.5995 73.4043 16.6049 73.4734C16.6102 73.5425 16.6312 73.6095 16.6664 73.6693C16.7002 73.7288 16.7465 73.7802 16.8022 73.8199C16.8579 73.8597 16.9216 73.8868 16.9888 73.8995L41.7611 78.3389H41.8481C41.9425 78.338 42.0345 78.3087 42.112 78.2549C42.1896 78.2011 42.2492 78.1252 42.2831 78.0371C42.6361 77.1011 43.2758 76.605 43.6033 76.605H43.6545L46.5661 77.229C46.6223 77.2343 46.6788 77.2343 46.735 77.229C46.9792 77.2026 47.2119 77.1114 47.409 76.9648C47.6061 76.8182 47.7603 76.6216 47.8557 76.3953C48.0583 76.0328 48.1458 75.6171 48.1064 75.2037C48.0964 75.0321 48.0341 74.8677 47.9281 74.7324C47.822 74.5971 47.6771 74.4975 47.5128 74.4467L42.9074 73.1937C42.9052 73.1716 42.9052 73.1493 42.9074 73.1272C42.8899 72.9534 42.9144 72.778 42.979 72.6157C43.0118 72.4956 43.0693 72.3835 43.1476 72.2867C43.226 72.1898 43.3237 72.1103 43.4344 72.0531L44.0741 72.2373L46.5866 73.0198C46.6693 73.0462 46.7556 73.06 46.8425 73.0607C47.1802 73.009 47.495 72.8586 47.7473 72.6283C47.9996 72.398 48.1779 72.0982 48.2599 71.7667C48.3782 71.4395 48.4202 71.0897 48.3827 70.7438C48.3726 70.5585 48.3106 70.3797 48.2039 70.2278C48.0971 70.0759 47.9499 69.957 47.7789 69.8846L42.8357 68.0638C42.8214 68.0219 42.8094 67.9792 42.7999 67.936C42.7671 67.6737 42.821 67.4078 42.9534 67.179C43.1018 66.9079 43.2758 66.8159 43.3321 66.8159L49.9844 69.5982C50.0816 69.6391 50.186 69.66 50.2915 69.6595C50.8032 69.6595 51.2893 69.1992 51.5554 68.4883C51.8829 67.6342 51.7294 66.8261 51.1921 66.5704L46.5866 64.3609C46.5866 64.3609 46.5866 64.3149 46.5559 64.2228C46.5348 64.023 46.5629 63.8211 46.6378 63.6347C46.6935 63.4454 46.8128 63.281 46.9755 63.1692L47.3644 63.3585L50.0458 64.7854C50.1869 64.857 50.3431 64.8938 50.5013 64.8928C50.7469 64.8928 51.3558 64.7957 51.7652 63.8699C52.41 62.3867 51.7396 61.7832 51.4224 61.5889L48.8279 59.9113L27.2539 46.8949C27.1816 46.8505 27.0982 46.8275 27.0134 46.8284L26.9417 46.8744Z" fill="#231F20"/>
<path d="M34.5203 69.3834H34.4435C34.4101 69.3708 34.3799 69.351 34.3551 69.3253C34.3304 69.2997 34.3116 69.2688 34.3002 69.235L26.9673 48.0252C26.9531 47.9678 26.9611 47.9071 26.9897 47.8553C27.0182 47.8035 27.0653 47.7644 27.1214 47.7457C27.1775 47.727 27.2387 47.7301 27.2926 47.7544C27.3466 47.7787 27.3894 47.8224 27.4125 47.8769L34.6482 68.7952L48.1013 60.2949C48.154 60.2634 48.2168 60.2533 48.2767 60.2666C48.3367 60.2799 48.3892 60.3157 48.4237 60.3665C48.4403 60.3925 48.4516 60.4216 48.4568 60.4521C48.4619 60.4826 48.4609 60.5138 48.4537 60.5439C48.4466 60.5739 48.4334 60.6023 48.4151 60.6272C48.3967 60.652 48.3735 60.673 48.3469 60.6887L34.6584 69.3475C34.6173 69.3738 34.569 69.3863 34.5203 69.3834Z" fill="#231F20"/>
<path d="M17.0913 73.6489C17.0391 73.6505 16.9878 73.6343 16.946 73.603C16.9041 73.5717 16.8742 73.5271 16.8611 73.4765C16.848 73.4259 16.8525 73.3724 16.8739 73.3247C16.8953 73.277 16.9323 73.238 16.9788 73.2141L32.7806 64.2535C32.8344 64.2237 32.8977 64.2161 32.957 64.2324C33.0163 64.2486 33.0669 64.2874 33.0979 64.3405C33.1133 64.3669 33.1233 64.3962 33.1273 64.4265C33.1313 64.4569 33.1292 64.4877 33.1211 64.5173C33.113 64.5468 33.0991 64.5744 33.0801 64.5985C33.0612 64.6226 33.0377 64.6427 33.0109 64.6576L17.209 73.6182C17.1732 73.6385 17.1326 73.6491 17.0913 73.6489Z" fill="#231F20"/>
<path d="M41.8688 78.0831C41.8181 78.083 41.7687 78.0665 41.7282 78.0361C41.6876 78.0057 41.658 77.963 41.6436 77.9143L38.3481 66.6624C38.3383 66.6052 38.3499 66.5463 38.3809 66.4972C38.4118 66.448 38.4599 66.412 38.5158 66.3962C38.5717 66.3803 38.6315 66.3857 38.6837 66.4112C38.7359 66.4368 38.7767 66.4807 38.7985 66.5346L42.0888 77.7865C42.0982 77.816 42.1015 77.8472 42.0985 77.878C42.0956 77.9088 42.0864 77.9388 42.0716 77.966C42.0568 77.9932 42.0366 78.0172 42.0123 78.0364C41.988 78.0557 41.9601 78.0698 41.9302 78.078L41.8688 78.0831Z" fill="#231F20"/>
<path d="M62.0868 0.583054L23.0273 36.717L61.4728 65.3582C63.1052 63.8495 65.2288 63.2766 66.1908 64.0541L70.5507 67.5831C70.914 67.8797 71.6611 67.7672 72.3724 67.2608C72.8749 66.9198 73.2649 66.4374 73.493 65.8748C73.5589 65.7397 73.5825 65.5878 73.5605 65.439C73.5386 65.2903 73.4723 65.1516 73.3702 65.0411L66.5234 58.9191C66.3999 58.7893 66.316 58.6271 66.2816 58.4513C66.2471 58.2755 66.2636 58.0936 66.329 57.9269C66.4868 57.4419 66.7733 57.0088 67.158 56.6738C68.0228 55.876 69.1127 55.6151 69.5989 56.0805L70.5507 56.95L74.1788 60.433C74.6905 60.9444 75.9237 60.6324 76.855 59.7272C77.2313 59.3767 77.5219 58.9445 77.7045 58.4639C77.7903 58.2925 77.8262 58.1005 77.8081 57.9097C77.79 57.7188 77.7186 57.537 77.6021 57.3847L70.7298 50.0812C70.6082 49.9265 70.5291 49.7427 70.5004 49.548C70.4717 49.3534 70.4943 49.1546 70.566 48.9714C70.791 48.3007 71.2318 47.7234 71.8197 47.3296C72.6589 46.7363 73.5493 46.7108 73.9587 47.1813L82.9394 57.5791C83.3488 58.0547 84.3978 57.7734 85.2831 56.9602C86.1683 56.1419 86.5777 55.0832 86.1888 54.5871L80.1863 46.8847C80.0855 46.7222 80.0258 46.5376 80.0125 46.3469C79.9991 46.1562 80.0324 45.9651 80.1096 45.7902C80.2908 45.291 80.5933 44.8446 80.9897 44.4911C81.8443 43.7034 82.8575 43.5091 83.2464 44.0563L83.7581 44.7468L87.1355 49.4828C87.4527 49.9278 88.3175 50.2295 89.5508 49.1913C91.5209 47.5495 90.9017 46.4499 90.7277 46.1737L87.7239 41.0592L62.0868 0.583054Z" fill="#B6C0F8"/>
<path d="M62.0867 0.58305L87.7647 41.0797L90.7685 46.1942C90.9425 46.4704 91.5617 47.57 89.5916 49.2118C89.1772 49.617 88.6342 49.8649 88.0564 49.9124C87.889 49.9207 87.7221 49.8877 87.5704 49.8163C87.4187 49.745 87.2869 49.6375 87.1865 49.5033L83.8091 44.7673L83.2974 44.0768C83.2184 43.9728 83.115 43.8899 82.9963 43.8355C82.8775 43.7811 82.7472 43.7568 82.6168 43.7648C82.0189 43.8167 81.4595 44.0817 81.0407 44.5115C80.6442 44.865 80.3418 45.3114 80.1606 45.8106C80.0834 45.9855 80.0501 46.1766 80.0635 46.3674C80.0768 46.5581 80.1365 46.7426 80.2373 46.9051L86.2398 54.6076C86.6287 55.119 86.2398 56.1419 85.334 56.9807C84.867 57.4619 84.2459 57.7642 83.5789 57.8348C83.4695 57.8411 83.3601 57.8233 83.2584 57.7826C83.1567 57.742 83.0652 57.6795 82.9904 57.5995L74.0097 47.2018C73.9056 47.092 73.779 47.006 73.6386 46.9495C73.4982 46.893 73.3473 46.8674 73.1961 46.8744C72.7161 46.8944 72.2538 47.0604 71.8707 47.3501C71.2828 47.7439 70.842 48.3212 70.617 48.9918C70.5453 49.1751 70.5227 49.3738 70.5514 49.5685C70.5801 49.7631 70.6592 49.9469 70.7808 50.1017L77.6532 57.4052C77.7696 57.5574 77.841 57.7393 77.8591 57.9301C77.8772 58.1209 77.8413 58.313 77.7555 58.4843C77.5729 58.9649 77.2823 59.3971 76.906 59.7476C76.3838 60.2973 75.6766 60.6343 74.9206 60.6938C74.6675 60.7083 74.4191 60.6218 74.2298 60.4534L70.6017 56.9705L69.6499 56.101C69.4675 55.9424 69.2312 55.86 68.9898 55.8708C68.4047 55.9406 67.8507 56.1719 67.3898 56.5386C66.9289 56.9054 66.5792 57.3932 66.38 57.9473C66.3146 58.1141 66.2981 58.296 66.3326 58.4718C66.367 58.6475 66.4509 58.8098 66.5744 58.9395L73.4161 65.0411C73.5182 65.1516 73.5845 65.2903 73.6064 65.439C73.6283 65.5878 73.6048 65.7396 73.5389 65.8748C73.3108 66.4374 72.9208 66.9198 72.4183 67.2608C72.0453 67.549 71.5942 67.7183 71.1236 67.7467C70.9396 67.7505 70.7596 67.6929 70.6119 67.5831L66.2521 64.0541C65.9212 63.8101 65.5165 63.6873 65.1058 63.7063C63.7538 63.8159 62.4846 64.4013 61.5238 65.3582L23.0272 36.717L62.0713 0.58305H62.0867ZM62.0713 0.11763C61.9529 0.120017 61.8389 0.1634 61.7489 0.240378L22.7253 36.3743C22.675 36.421 22.6357 36.4781 22.6101 36.5416C22.5845 36.6052 22.5733 36.6736 22.5772 36.742C22.5811 36.8104 22.6001 36.8771 22.6327 36.9373C22.6654 36.9975 22.711 37.0498 22.7662 37.0904L61.2065 65.7316C61.2892 65.7893 61.3871 65.8214 61.488 65.8237C61.6054 65.8242 61.7187 65.7804 61.8052 65.7009C62.6794 64.828 63.8298 64.2857 65.0597 64.1666C65.3635 64.1486 65.6645 64.2333 65.9143 64.4069L70.2742 67.936C70.5077 68.1172 70.7973 68.2113 71.0929 68.2019C71.6611 68.175 72.2075 67.9752 72.6588 67.6291C73.2398 67.2327 73.6889 66.6716 73.9483 66.018C74.0479 65.7957 74.0773 65.5483 74.0325 65.3089C73.9877 65.0694 73.8708 64.8493 73.6976 64.678L66.8559 58.5815C66.7126 58.4537 66.7689 58.1775 66.7996 58.0701C66.9711 57.6137 67.2619 57.2117 67.6417 56.9058C68.0215 56.6 68.4764 56.4015 68.959 56.3311C69.0802 56.3241 69.1999 56.3604 69.2968 56.4334L70.2588 57.2824L73.8715 60.7552C74.1513 61.0071 74.5188 61.1394 74.895 61.1234C75.7733 61.0631 76.5977 60.6785 77.208 60.0443C77.6362 59.6415 77.967 59.1465 78.1751 58.5969C78.2868 58.3473 78.3268 58.0716 78.2907 57.8007C78.2545 57.5297 78.1436 57.2741 77.9704 57.0625L71.0929 49.7641C71.0285 49.6679 70.9896 49.5569 70.9798 49.4415C70.9699 49.3261 70.9895 49.2101 71.0366 49.1044C71.2317 48.535 71.6095 48.0459 72.1112 47.7132C72.4152 47.4793 72.7824 47.3421 73.1654 47.3194C73.2497 47.3141 73.3341 47.3263 73.4134 47.3554C73.4927 47.3844 73.5651 47.4297 73.6259 47.4882L82.6066 57.886C82.725 58.0166 82.8708 58.1196 83.0335 58.1877C83.1962 58.2557 83.3719 58.2872 83.5482 58.2798C84.3238 58.2035 85.0481 57.8578 85.595 57.3029C86.6952 56.28 87.1302 54.9963 86.5571 54.2905L80.5802 46.5931C80.5307 46.4902 80.505 46.3774 80.505 46.2632C80.505 46.149 80.5307 46.0363 80.5802 45.9334C80.7376 45.5096 80.9958 45.1305 81.3324 44.8286C81.666 44.4806 82.1118 44.2614 82.5912 44.2098C82.6469 44.2032 82.7033 44.21 82.7558 44.2296C82.8083 44.2492 82.8554 44.2809 82.8932 44.3223L83.4049 45.023L86.772 49.7488C86.9181 49.9419 87.1078 50.0977 87.3257 50.2035C87.5436 50.3093 87.7835 50.362 88.0257 50.3574C88.7174 50.3135 89.3714 50.0274 89.873 49.5493C91.9813 47.7848 91.4644 46.4244 91.1421 45.918L88.1485 40.8393L62.4807 0.337554C62.4436 0.279143 62.3942 0.229611 62.3358 0.192483C62.2774 0.155355 62.2116 0.131544 62.143 0.122745L62.0713 0.11763Z" fill="#231F20"/>
<path d="M56.371 44.4962C56.3074 44.4956 56.2467 44.4698 56.2021 44.4246C56.1787 44.3994 56.161 44.3695 56.1504 44.3368C56.1398 44.3041 56.1365 44.2695 56.1407 44.2353L61.6775 1.87191C61.6864 1.81021 61.7194 1.75456 61.7692 1.71716C61.8191 1.67976 61.8818 1.66368 61.9436 1.67244C61.9739 1.67621 62.0032 1.68599 62.0298 1.7012C62.0563 1.71641 62.0795 1.73675 62.0981 1.76103C62.1167 1.78531 62.1302 1.81305 62.138 1.84263C62.1457 1.8722 62.1475 1.90302 62.1432 1.93328L56.6422 43.9847L87.0485 40.916C87.1065 40.9167 87.1621 40.9387 87.2049 40.9778C87.2476 41.017 87.2744 41.0705 87.2801 41.1281C87.2858 41.1858 87.27 41.2435 87.2358 41.2902C87.2015 41.337 87.1513 41.3695 87.0946 41.3815L56.3914 44.5013L56.371 44.4962Z" fill="#231F20"/>
<path d="M23.0272 36.9523C22.9679 36.9523 22.9108 36.9295 22.8679 36.8885C22.825 36.8476 22.7996 36.7916 22.7969 36.7324C22.7948 36.7014 22.7989 36.6704 22.8088 36.6411C22.8188 36.6117 22.8344 36.5847 22.8549 36.5614C22.8753 36.5381 22.9001 36.5191 22.928 36.5054C22.9558 36.4917 22.986 36.4837 23.017 36.4817L57.5733 34.6456C57.6043 34.642 57.6357 34.645 57.6654 34.6544C57.6951 34.6639 57.7225 34.6795 57.7457 34.7003C57.769 34.7211 57.7875 34.7466 57.8001 34.775C57.8127 34.8035 57.8192 34.8344 57.819 34.8656C57.8204 34.9276 57.7978 34.9878 57.7558 35.0336C57.7138 35.0794 57.6558 35.1071 57.5938 35.1111L23.0425 36.9523H23.0272Z" fill="#231F20"/>
<path d="M61.488 65.5731H61.4471C61.3862 65.5618 61.3322 65.5271 61.2968 65.4764C61.2613 65.4256 61.2473 65.363 61.2578 65.302L65.2287 43.3096C65.2399 43.2488 65.2747 43.1948 65.3254 43.1594C65.3762 43.1239 65.4389 43.1099 65.4999 43.1204C65.5304 43.1253 65.5595 43.1363 65.5857 43.1527C65.6118 43.1691 65.6343 43.1906 65.652 43.2158C65.6697 43.2411 65.6821 43.2697 65.6885 43.2999C65.6949 43.33 65.6951 43.3612 65.6892 43.3914L61.7183 65.3838C61.7077 65.4371 61.6789 65.485 61.637 65.5195C61.595 65.554 61.5424 65.5729 61.488 65.5731Z" fill="#231F20"/>
<path d="M78.3389 71.6031C78.2899 71.6021 78.2422 71.588 78.2007 71.5621L56.8825 56.0243C56.833 55.9877 56.8 55.9329 56.7909 55.872C56.7818 55.8111 56.7972 55.749 56.8339 55.6995C56.8705 55.65 56.9253 55.6171 56.9863 55.608C57.0472 55.5988 57.1093 55.6143 57.1588 55.6509L78.477 71.1837C78.5179 71.2119 78.5486 71.2526 78.5644 71.2997C78.5802 71.3468 78.5804 71.3978 78.5648 71.445C78.5493 71.4922 78.5189 71.5331 78.4781 71.5616C78.4374 71.5901 78.3885 71.6046 78.3389 71.6031Z" fill="white"/>
<path d="M81.2659 65.5731C81.2024 65.5724 81.1417 65.5467 81.0971 65.5015L74.0302 58.1263C74.0042 58.1053 73.983 58.079 73.968 58.0491C73.9529 58.0192 73.9444 57.9865 73.9431 57.9531C73.9417 57.9196 73.9475 57.8863 73.96 57.8553C73.9725 57.8243 73.9915 57.7963 74.0157 57.7732C74.0399 57.7501 74.0688 57.7325 74.1004 57.7214C74.1319 57.7103 74.1655 57.7061 74.1988 57.7091C74.2322 57.712 74.2645 57.722 74.2937 57.7384C74.3228 57.7548 74.3482 57.7772 74.368 57.8041L81.4348 65.1741C81.4789 65.2182 81.5036 65.278 81.5036 65.3403C81.5036 65.4027 81.4789 65.4625 81.4348 65.5066C81.3885 65.5486 81.3285 65.5723 81.2659 65.5731Z" fill="white"/>
<path d="M85.8971 65.0514C85.8336 65.0507 85.7729 65.025 85.7283 64.9798L81.394 60.4892C81.3499 60.4451 81.3252 60.3853 81.3252 60.323C81.3252 60.2607 81.3499 60.2009 81.394 60.1568C81.4388 60.114 81.4983 60.0901 81.5603 60.0901C81.6223 60.0901 81.6819 60.114 81.7266 60.1568L86.0609 64.6473C86.1037 64.6921 86.1276 64.7516 86.1276 64.8136C86.1276 64.8755 86.1037 64.935 86.0609 64.9798C86.0167 65.0225 85.9585 65.048 85.8971 65.0514Z" fill="white"/>
<path d="M90.0622 62.8061C90.0265 62.8061 89.9912 62.7978 89.9592 62.7818C89.9273 62.7658 89.8995 62.7426 89.878 62.7141C85.7843 57.4973 79.5515 49.6209 79.2189 49.3141C79.194 49.2985 79.1726 49.2781 79.1559 49.254C79.1392 49.2299 79.1276 49.2026 79.1218 49.1739C79.1161 49.1451 79.1163 49.1155 79.1224 49.0868C79.1286 49.0582 79.1405 49.0311 79.1575 49.0072C79.1746 48.9806 79.1968 48.9577 79.2228 48.9398C79.2488 48.9218 79.2781 48.9091 79.309 48.9025C79.3399 48.8958 79.3718 48.8953 79.4028 48.901C79.4339 48.9067 79.4636 48.9184 79.4901 48.9356C79.7306 49.0788 86.3318 57.4512 90.2362 62.4276C90.2737 62.4767 90.2904 62.5384 90.2828 62.5997C90.2751 62.6609 90.2437 62.7167 90.1953 62.755C90.157 62.7848 90.1107 62.8026 90.0622 62.8061Z" fill="white"/>
<path d="M80.6364 69.0458C80.5867 69.0454 80.5383 69.0293 80.4983 68.9998L76.2459 65.8646C76.2178 65.8478 76.1934 65.8254 76.1745 65.7987C76.1556 65.772 76.1424 65.7416 76.1358 65.7096C76.1293 65.6775 76.1295 65.6444 76.1365 65.6124C76.1435 65.5805 76.157 65.5503 76.1764 65.5239C76.1957 65.4974 76.2203 65.4753 76.2486 65.4589C76.2769 65.4425 76.3084 65.4322 76.3409 65.4287C76.3735 65.4251 76.4064 65.4284 76.4376 65.4383C76.4688 65.4482 76.4976 65.4645 76.5222 65.4861L80.8002 68.6213C80.8411 68.6495 80.8717 68.6903 80.8876 68.7374C80.9034 68.7845 80.9035 68.8354 80.888 68.8826C80.8724 68.9298 80.842 68.9707 80.8013 68.9992C80.7606 69.0277 80.7117 69.0423 80.662 69.0407L80.6364 69.0458Z" fill="white"/>
<path d="M92.0017 55.1037C91.9627 55.1041 91.9241 55.095 91.8893 55.0772C91.8545 55.0594 91.8246 55.0333 91.8022 55.0014L86.0198 46.1942C86.0026 46.1688 85.9907 46.1402 85.9848 46.1101C85.9789 46.0801 85.979 46.0491 85.9852 46.0191C85.9914 45.9891 86.0035 45.9606 86.0209 45.9354C86.0383 45.9101 86.0605 45.8885 86.0863 45.872C86.1115 45.8541 86.1401 45.8417 86.1703 45.8354C86.2005 45.829 86.2317 45.829 86.2619 45.8352C86.2922 45.8415 86.3208 45.8538 86.346 45.8716C86.3713 45.8894 86.3926 45.9121 86.4087 45.9385L92.1962 54.7252C92.2133 54.7506 92.2252 54.7792 92.2311 54.8092C92.2371 54.8393 92.2369 54.8703 92.2307 54.9003C92.2245 54.9303 92.2124 54.9588 92.195 54.984C92.1777 55.0093 92.1555 55.0308 92.1297 55.0474C92.0935 55.0784 92.049 55.098 92.0017 55.1037Z" fill="white"/>
<path d="M78.6869 4.51611L62.7622 12.7863L72.6896 25.5265C73.3548 25.1838 74.0968 25.1889 74.3424 25.5265L75.4426 27.0608C75.5347 27.1887 75.7855 27.2194 76.0618 27.1171C76.2631 27.0544 76.4412 26.9333 76.5735 26.7693C76.6053 26.7295 76.6255 26.6817 76.6318 26.6312C76.6382 26.5806 76.6304 26.5293 76.6093 26.4829L74.9309 23.8899C74.9028 23.8369 74.8903 23.7771 74.8948 23.7174C74.8994 23.6576 74.9207 23.6004 74.9565 23.5523C75.0498 23.4076 75.1807 23.2909 75.3351 23.2147C75.6882 23.0357 76.0669 23.046 76.1846 23.2147L76.4149 23.583L77.2694 25.0611C77.3923 25.2708 77.8221 25.281 78.2059 25.0611C78.3587 24.9807 78.4916 24.8671 78.5948 24.7286C78.6375 24.6796 78.6658 24.6198 78.6766 24.5557C78.6875 24.4916 78.6804 24.4258 78.6562 24.3655L77.0801 21.3786C77.054 21.3179 77.0446 21.2513 77.0526 21.1857C77.0607 21.1201 77.0861 21.0579 77.1262 21.0053C77.2592 20.8074 77.4533 20.6583 77.6788 20.5808C78.0063 20.4631 78.298 20.5347 78.3901 20.724L80.3756 24.9076C80.4677 25.102 80.831 25.102 81.1892 24.9076C81.5474 24.7235 81.7777 24.3962 81.7009 24.2223L80.4421 21.1792C80.4224 21.1175 80.4187 21.0519 80.4312 20.9884C80.4437 20.9249 80.4721 20.8656 80.5137 20.816C80.6182 20.6703 80.7571 20.5526 80.918 20.4734C81.266 20.2944 81.6088 20.325 81.6907 20.5347L81.7982 20.8058L82.4685 22.647C82.535 22.8209 82.7858 22.9948 83.2821 22.7698C84.0702 22.4118 83.9678 22.0026 83.9371 21.8952L83.4254 19.9721L78.6869 4.51611Z" fill="white"/>
<path d="M78.6869 4.51611L83.4101 19.9773L83.9218 21.9003C83.9525 22.0077 84.0548 22.4118 83.2668 22.7749C83.1362 22.8402 82.9931 22.8768 82.8472 22.8823C82.7656 22.8903 82.6836 22.8724 82.6128 22.8311C82.5421 22.7897 82.4862 22.7271 82.4531 22.6521L81.7828 20.8109L81.6753 20.5399C81.6443 20.4789 81.5952 20.429 81.5348 20.397C81.4743 20.365 81.4055 20.3523 81.3376 20.3608C81.1857 20.3673 81.0371 20.4075 80.9026 20.4785C80.7417 20.5577 80.6029 20.6754 80.4984 20.8211C80.4568 20.8707 80.4284 20.93 80.4158 20.9935C80.4033 21.057 80.4071 21.1226 80.4267 21.1843L81.6856 24.2274C81.7674 24.4218 81.5372 24.7389 81.1738 24.9128C81.0164 24.9981 80.8412 25.0454 80.6621 25.0508C80.6014 25.0583 80.5398 25.0483 80.4845 25.022C80.4292 24.9958 80.3826 24.9543 80.35 24.9025L78.3645 20.7189C78.3218 20.6519 78.2615 20.5979 78.1903 20.5627C78.119 20.5275 78.0394 20.5126 77.9603 20.5194C77.8556 20.5223 77.7521 20.5413 77.6532 20.5757C77.4277 20.6532 77.2336 20.8023 77.1006 21.0002C77.0605 21.0527 77.0351 21.115 77.027 21.1806C77.019 21.2462 77.0284 21.3128 77.0545 21.3735L78.6306 24.3604C78.6548 24.4207 78.6619 24.4865 78.6511 24.5506C78.6402 24.6147 78.6119 24.6745 78.5692 24.7235C78.466 24.862 78.3331 24.9756 78.1803 25.056C78.0113 25.1513 77.8216 25.204 77.6276 25.2094C77.5605 25.214 77.4932 25.2031 77.4311 25.1773C77.3689 25.1516 77.3136 25.1118 77.2694 25.0611L76.4046 23.6034L76.1744 23.2352C76.1327 23.1812 76.078 23.1387 76.0153 23.1118C75.9526 23.085 75.884 23.0746 75.8162 23.0818C75.6377 23.0823 75.4621 23.1262 75.3044 23.2096C75.15 23.2858 75.0191 23.4025 74.9258 23.5472C74.89 23.5953 74.8687 23.6525 74.8641 23.7123C74.8596 23.772 74.8721 23.8318 74.9002 23.8847L76.5786 26.4778C76.5996 26.5242 76.6074 26.5755 76.6011 26.626C76.5948 26.6766 76.5746 26.7244 76.5428 26.7642C76.4104 26.9282 76.2323 27.0493 76.0311 27.112C75.9313 27.1501 75.8257 27.1708 75.7189 27.1734C75.6621 27.1793 75.6047 27.1717 75.5513 27.1512C75.498 27.1308 75.4502 27.0981 75.4119 27.0557L74.3117 25.5214C74.2272 25.4301 74.1227 25.3595 74.0065 25.3151C73.8902 25.2708 73.7652 25.2538 73.6413 25.2657C73.2986 25.2748 72.9625 25.3623 72.6588 25.5214L62.7622 12.7863L78.6869 4.53657V4.51611ZM78.6869 4.07115C78.6122 4.07051 78.5384 4.08807 78.472 4.12229L62.5473 12.3464C62.488 12.3805 62.4362 12.4262 62.3949 12.4806C62.3536 12.5351 62.3236 12.5973 62.3068 12.6635C62.2912 12.7307 62.291 12.8005 62.306 12.8678C62.3211 12.935 62.3511 12.9981 62.3938 13.0522L72.3211 25.7924C72.3645 25.849 72.4203 25.895 72.4841 25.9269C72.5479 25.9588 72.6182 25.9758 72.6895 25.9766C72.7648 25.9761 72.8387 25.9567 72.9045 25.9203C73.1416 25.7951 73.404 25.7251 73.672 25.7157C73.774 25.7048 73.8766 25.7282 73.9637 25.7822L75.0639 27.3166C75.1438 27.4162 75.2463 27.4956 75.3628 27.548C75.4793 27.6005 75.6066 27.6246 75.7343 27.6183C75.8966 27.6159 76.0575 27.5865 76.2102 27.5314C76.4931 27.4358 76.7408 27.2576 76.9215 27.0199C77.0086 26.9059 77.0591 26.7681 77.0664 26.6248C77.0737 26.4815 77.0375 26.3393 76.9624 26.217L75.3556 23.7364C75.4041 23.6916 75.4573 23.6521 75.5142 23.6188C75.5999 23.5747 75.6943 23.5503 75.7906 23.5472L75.985 23.8489L76.8447 25.2963C76.93 25.4237 77.0471 25.5265 77.1845 25.5947C77.3218 25.6629 77.4746 25.694 77.6276 25.685C77.9005 25.6818 78.168 25.6097 78.4054 25.4753C78.6258 25.362 78.8154 25.1971 78.9581 24.9946C79.0501 24.8771 79.1071 24.7361 79.1224 24.5877C79.1378 24.4393 79.111 24.2896 79.0451 24.1558L77.5099 21.2457C77.5885 21.1438 77.6952 21.0673 77.817 21.0257C77.8641 21.0065 77.9144 20.9961 77.9654 20.995L79.9201 25.1122C79.9889 25.2458 80.0954 25.3562 80.2264 25.4299C80.3574 25.5035 80.5071 25.5371 80.657 25.5265C80.9074 25.5204 81.1528 25.4556 81.3734 25.3373C81.9772 25.0253 82.2843 24.4882 82.1001 24.0535L80.8719 21.0871C80.9335 21.0075 81.0122 20.9429 81.1022 20.8979C81.1559 20.871 81.2126 20.8504 81.2711 20.8365L81.3325 20.9899L82.0028 22.8158C82.0724 22.9753 82.1891 23.1098 82.3373 23.2012C82.4854 23.2926 82.658 23.3366 82.8318 23.3273C83.045 23.3239 83.2547 23.2733 83.4459 23.1789C84.541 22.6675 84.4181 21.9515 84.3516 21.7418L83.8399 19.834L79.1218 4.35756C79.0921 4.26179 79.0322 4.1782 78.951 4.11922C78.8699 4.06023 78.7719 4.02902 78.6715 4.03023L78.6869 4.07115Z" fill="#231F20"/>
<path d="M83.1745 20.1716H83.1336L72.8993 18.4378C72.864 18.4322 72.8305 18.4188 72.8013 18.3984C72.772 18.378 72.7478 18.3513 72.7304 18.3202C72.7166 18.2878 72.7095 18.253 72.7095 18.2179C72.7095 18.1827 72.7166 18.1479 72.7304 18.1156L78.2928 4.83832C78.3215 4.78824 78.3676 4.75045 78.4223 4.73214C78.4771 4.71383 78.5367 4.71627 78.5897 4.73901C78.6428 4.76174 78.6857 4.80318 78.7102 4.85544C78.7347 4.9077 78.7391 4.96713 78.7226 5.02244L73.2472 18.0184L83.2104 19.7062C83.2665 19.7177 83.3165 19.7493 83.351 19.7951C83.3854 19.8408 83.402 19.8976 83.3976 19.9547C83.3932 20.0118 83.3681 20.0653 83.3271 20.1052C83.286 20.1452 83.2318 20.1688 83.1745 20.1716Z" fill="#231F20"/>
<path d="M74.158 15.4918H74.1069L62.7109 12.9908C62.6775 12.9878 62.6452 12.9777 62.6161 12.9612C62.5869 12.9447 62.5617 12.9221 62.542 12.8951C62.5222 12.868 62.5085 12.837 62.5017 12.8043C62.4949 12.7715 62.4952 12.7376 62.5026 12.705C62.5099 12.6723 62.5241 12.6416 62.5443 12.6148C62.5645 12.5881 62.5901 12.566 62.6195 12.55C62.6489 12.534 62.6814 12.5244 62.7148 12.5219C62.7482 12.5194 62.7818 12.5241 62.8132 12.5356L74.199 15.0315C74.259 15.045 74.3114 15.0815 74.3449 15.1331C74.3784 15.1847 74.3903 15.2474 74.3781 15.3077C74.3669 15.3584 74.3392 15.4039 74.2994 15.4372C74.2596 15.4705 74.2099 15.4897 74.158 15.4918Z" fill="#231F20"/>
<path d="M72.6894 25.7413C72.6574 25.7486 72.6241 25.7486 72.5921 25.7413C72.5359 25.7147 72.4926 25.667 72.4715 25.6085C72.4504 25.5501 72.4533 25.4856 72.4795 25.4293L75.7341 18.6168C75.7467 18.5892 75.7648 18.5643 75.7871 18.5437C75.8094 18.5231 75.8356 18.5071 75.8641 18.4966C75.8927 18.4861 75.923 18.4814 75.9534 18.4828C75.9838 18.4841 76.0136 18.4914 76.0411 18.5043C76.0973 18.5309 76.1407 18.5786 76.1618 18.6371C76.1829 18.6955 76.18 18.7599 76.1537 18.8163L72.8889 25.6083C72.8711 25.6467 72.843 25.6794 72.8078 25.7028C72.7726 25.7263 72.7316 25.7396 72.6894 25.7413Z" fill="#231F20"/>
<path d="M31.5013 133.529L37.1046 123.536C37.1046 123.536 15.6124 108.407 15.2184 108.192C14.8244 107.977 0.317139 133.407 0.317139 133.407L1.42757 133.524L31.5013 133.529Z" fill="#231F20"/>
<path d="M31.5013 133.785H1.42756L0.286424 133.668C0.244321 133.663 0.204048 133.648 0.169215 133.624C0.134382 133.6 0.10608 133.567 0.0868542 133.529C0.0666957 133.492 0.0561523 133.45 0.0561523 133.407C0.0561523 133.364 0.0666957 133.322 0.0868542 133.284C0.122675 133.223 3.75588 126.855 7.38908 120.595C14.8704 107.717 15.0188 107.809 15.331 107.972C15.7301 108.182 35.0475 121.781 37.2479 123.316C37.3003 123.351 37.3374 123.405 37.3516 123.467C37.3658 123.529 37.3562 123.593 37.3246 123.648L31.6957 133.647C31.6777 133.685 31.6504 133.717 31.6164 133.741C31.5824 133.765 31.5428 133.781 31.5013 133.785ZM0.731621 133.197L1.45314 133.279H31.3478L36.772 123.618C29.7 118.641 16.8149 109.588 15.244 108.525C14.0977 109.962 6.14049 123.771 0.731621 133.197Z" fill="#231F20"/>
<path d="M129.572 133.529L130.683 133.412C130.683 133.412 119.184 106.816 118.785 107.041C118.386 107.266 94.8162 121.802 94.8162 121.802L99.8924 133.529H129.572Z" fill="#231F20"/>
<path d="M129.572 133.785H99.8925C99.8427 133.785 99.7941 133.77 99.7524 133.743C99.7107 133.716 99.6776 133.677 99.6571 133.632L94.5809 121.904C94.5579 121.847 94.5556 121.784 94.5742 121.725C94.5929 121.666 94.6314 121.616 94.6832 121.582C95.6453 120.989 118.263 107.026 118.667 106.816C118.701 106.801 118.738 106.793 118.775 106.793C118.812 106.793 118.849 106.801 118.882 106.816C119.435 107.011 125.734 121.336 130.918 133.325C130.937 133.36 130.947 133.4 130.947 133.44C130.947 133.48 130.937 133.52 130.918 133.555C130.898 133.59 130.87 133.62 130.836 133.642C130.802 133.664 130.764 133.678 130.724 133.683L129.608 133.801L129.572 133.785ZM100.056 133.274H129.557L130.314 133.197C126.057 123.372 119.732 109 118.729 107.369C116.979 108.427 102.891 117.117 95.1387 121.904L100.056 133.274Z" fill="#231F20"/>
</svg>
