<svg width="120" height="120" viewBox="0 0 120 120" fill="none" xmlns="http://www.w3.org/2000/svg">
<path d="M24.375 52.5H5.625C2.51836 52.5 0 55.0184 0 58.125V114.375C0 117.482 2.51836 120 5.625 120H24.375C27.4816 120 30 117.482 30 114.375V58.125C30 55.0184 27.4816 52.5 24.375 52.5ZM15 110.625C11.8934 110.625 9.375 108.107 9.375 105C9.375 101.893 11.8934 99.375 15 99.375C18.1066 99.375 20.625 101.893 20.625 105C20.625 108.107 18.1066 110.625 15 110.625ZM90 19.0903C90 29.0316 83.9133 34.6078 82.2007 41.25H106.042C113.869 41.25 119.963 47.753 120 54.8667C120.019 59.0709 118.231 63.597 115.444 66.3973L115.418 66.423C117.723 71.8927 117.349 79.5567 113.236 85.0486C115.271 91.1177 113.22 98.573 109.397 102.57C110.404 106.694 109.923 110.205 107.956 113.03C103.172 119.903 91.3162 120 81.2904 120L80.6236 120C69.3063 119.996 60.0441 115.875 52.6017 112.564C48.8618 110.9 43.9718 108.841 40.2616 108.772C38.7288 108.744 37.5 107.494 37.5 105.96V55.8581C37.5 55.1081 37.8005 54.3884 38.3339 53.861C47.6184 44.6866 51.6108 34.9734 59.2207 27.3506C62.6904 23.8744 63.9523 18.6234 65.1722 13.5455C66.2145 9.2093 68.3946 0 73.125 0C78.75 0 90 1.875 90 19.0903Z" fill="white"/>
</svg>
