<svg width="60" height="54" viewBox="0 0 60 54" fill="none" xmlns="http://www.w3.org/2000/svg">
<path d="M23.9999 33H35.9999V15H44.9999L29.9999 0L14.9999 15H23.9999V33ZM58.0139 37.596C57.3839 36.924 53.1809 32.427 51.9809 31.254C51.14 30.4479 50.0198 29.9985 48.8549 30H43.5839L52.7759 38.982H42.1439C41.9995 38.9793 41.8568 39.0148 41.7304 39.0849C41.604 39.1549 41.4983 39.2571 41.4239 39.381L38.9759 45H21.0239L18.5759 39.381C18.5011 39.2575 18.3953 39.1557 18.269 39.0857C18.1427 39.0157 18.0003 38.9799 17.8559 38.982H7.22394L16.4129 30H11.1449C9.95394 30 8.81694 30.477 8.01894 31.254C6.81894 32.43 2.61594 36.927 1.98594 37.596C0.518943 39.159 -0.288057 40.404 0.0959428 41.943L1.77894 51.165C2.16294 52.707 3.85194 53.973 5.53494 53.973H54.4709C56.1539 53.973 57.8429 52.707 58.2269 51.165L59.9099 41.943C60.2879 40.404 59.4839 39.159 58.0139 37.596Z" fill="white"/>
</svg>
