<svg width="150" height="197" viewBox="0 0 150 197" fill="none" xmlns="http://www.w3.org/2000/svg">
<path d="M30.1445 196.067C30.1445 196.067 33.1267 171.509 34.8409 166.144C36.555 160.778 36.0698 109.378 36.1245 108.856C36.1793 108.335 8.58802 122.218 6.1772 126.351C3.76639 130.483 10.0439 157.436 8.28276 161.331C6.52161 165.227 0.78418 182.295 0.78418 182.295L30.1445 196.067Z" fill="white"/>
<path d="M30.1444 196.462C30.0876 196.461 30.0316 196.447 29.98 196.423L0.611921 182.65C0.522916 182.612 0.451659 182.541 0.412457 182.451C0.373256 182.362 0.369016 182.261 0.400585 182.168C0.635405 181.465 6.17715 165.03 7.92265 161.166C8.70538 159.451 7.73479 152.355 6.79551 145.497C5.66055 137.129 4.44731 128.476 5.83275 126.153C7.21818 123.83 15.1551 119.192 21.6361 115.644C23.7651 114.482 35.4827 108.24 36.2341 108.469C36.3206 108.499 36.3946 108.557 36.4443 108.635C36.494 108.712 36.5164 108.804 36.508 108.896C36.508 109.014 36.508 110.405 36.508 112.317C36.5472 124.525 36.6646 161.663 35.193 166.27C33.518 171.533 30.5593 195.87 30.4966 196.115C30.4806 196.209 30.433 196.295 30.3618 196.358C30.2906 196.422 30.2001 196.458 30.1053 196.462H30.1444ZM1.26159 182.081L29.8235 195.514C30.2775 191.8 32.8762 171.019 34.4573 166.065C35.4044 163.094 35.8349 145.022 35.7331 112.333C35.7331 110.753 35.7331 109.868 35.7331 109.386C32.1013 110.84 8.65841 122.874 6.51372 126.564C5.30049 128.65 6.51373 137.547 7.58607 145.394C8.61928 153.003 9.51159 159.617 8.64276 161.505C7.03816 165.022 2.09911 179.671 1.26159 182.081Z" fill="#231F20"/>
<path d="M133.183 47.468H35.06C32.2934 47.468 30.0505 49.7321 30.0505 52.525V183.67C30.0505 186.462 32.2934 188.727 35.06 188.727H133.183C135.95 188.727 138.193 186.462 138.193 183.67V52.525C138.193 49.7321 135.95 47.468 133.183 47.468Z" fill="white"/>
<path d="M133.183 189.13H35.0522C33.6218 189.125 32.2513 188.549 31.2406 187.528C30.2298 186.506 29.6612 185.121 29.6592 183.678V52.5093C29.6612 51.0653 30.2298 49.6809 31.2406 48.6591C32.2513 47.6373 33.6218 47.0613 35.0522 47.0571H133.183C134.615 47.0592 135.988 47.6343 137 48.6563C138.012 49.6784 138.582 51.0639 138.584 52.5093V183.678C138.582 185.123 138.012 186.508 137 187.53C135.988 188.552 134.615 189.128 133.183 189.13ZM35.0522 47.8631C33.8288 47.8652 32.6561 48.3573 31.7918 49.2314C30.9274 50.1054 30.4419 51.29 30.4419 52.5251V183.693C30.4419 184.928 30.9274 186.113 31.7918 186.987C32.6561 187.861 33.8288 188.353 35.0522 188.355H133.183C134.408 188.353 135.581 187.861 136.447 186.988C137.312 186.114 137.799 184.929 137.801 183.693V52.5251C137.799 51.2893 137.312 50.1047 136.447 49.2309C135.581 48.357 134.408 47.8652 133.183 47.8631H35.0522Z" fill="#231F20"/>
<path d="M131.563 56.1282H36.6724V180.082H131.563V56.1282Z" fill="white"/>
<path d="M131.563 180.477H36.6724C36.5686 180.477 36.469 180.436 36.3956 180.362C36.3222 180.287 36.281 180.187 36.281 180.082V56.1282C36.281 56.0235 36.3222 55.923 36.3956 55.8489C36.469 55.7748 36.5686 55.7332 36.6724 55.7332H131.563C131.667 55.7332 131.766 55.7748 131.84 55.8489C131.913 55.923 131.954 56.0235 131.954 56.1282V180.082C131.954 180.187 131.913 180.287 131.84 180.362C131.766 180.436 131.667 180.477 131.563 180.477ZM37.0637 179.687H131.172V56.5233H37.0637V179.687Z" fill="#231F20"/>
<path d="M108.919 42.482H95.2442C94.7425 39.8683 93.3554 37.5124 91.3209 35.8184C89.2864 34.1244 86.7314 33.1979 84.0942 33.1979C81.4569 33.1979 78.9019 34.1244 76.8674 35.8184C74.8329 37.5124 73.4458 39.8683 72.9441 42.482H59.3246C58.4561 42.482 57.6231 42.8297 57.0083 43.4489C56.3934 44.0681 56.047 44.9082 56.0449 45.7849V57.2977C56.047 58.1744 56.3934 59.0145 57.0083 59.6337C57.6231 60.2529 58.4561 60.6006 59.3246 60.6006H108.919C109.786 60.6006 110.618 60.2526 111.232 59.6332C111.846 59.0138 112.19 58.1737 112.19 57.2977V45.777C112.188 44.9024 111.843 44.0643 111.229 43.4466C110.616 42.8289 109.785 42.482 108.919 42.482ZM84.1215 43.9833C83.5453 43.9849 82.9816 43.8138 82.5017 43.4918C82.0219 43.1698 81.6474 42.7112 81.4259 42.1743C81.2043 41.6373 81.1455 41.046 81.2569 40.4753C81.3684 39.9046 81.6451 39.3801 82.052 38.9682C82.4589 38.5563 82.9777 38.2756 83.5428 38.1615C84.1078 38.0475 84.6937 38.1052 85.2262 38.3275C85.7587 38.5497 86.2139 38.9265 86.5342 39.41C86.8545 39.8936 87.0255 40.4622 87.0255 41.0439C87.0234 41.8215 86.7171 42.5667 86.1731 43.1173C85.6292 43.6679 84.8918 43.9792 84.1215 43.9833Z" fill="#B6C0F8"/>
<path d="M73.2338 95.7869H50.3154C50.2199 95.7869 50.1283 95.7486 50.0608 95.6804C49.9933 95.6123 49.9553 95.5198 49.9553 95.4234V70.699C49.9553 70.6026 49.9933 70.5101 50.0608 70.442C50.1283 70.3738 50.2199 70.3355 50.3154 70.3355H73.2338C73.3286 70.3375 73.4191 70.3765 73.4862 70.4442C73.5533 70.5119 73.5918 70.6032 73.5938 70.699V95.4234C73.5918 95.5192 73.5533 95.6104 73.4862 95.6782C73.4191 95.7459 73.3286 95.7849 73.2338 95.7869ZM50.6754 95.052H72.8737V71.0625H50.6754V95.052Z" fill="#D1D3D4"/>
<path d="M78.6034 76.7438C78.4831 76.9486 78.3442 77.1417 78.1886 77.3206L63.3793 92.2627C63.3044 92.3818 63.2009 92.4799 63.0784 92.5479C62.956 92.6159 62.8185 92.6515 62.6787 92.6515C62.539 92.6515 62.4015 92.6159 62.279 92.5479C62.1565 92.4799 62.053 92.3818 61.9782 92.2627L53.6499 83.5708C53.5372 83.4964 53.4454 83.3939 53.3835 83.2732C53.3215 83.1525 53.2914 83.0177 53.2961 82.8819C53.3009 82.746 53.3402 82.6137 53.4104 82.4977C53.4806 82.3817 53.5793 82.2859 53.6969 82.2197L55.7867 80.3232C55.8595 80.2236 55.9544 80.1426 56.0639 80.0868C56.1733 80.031 56.2942 80.0019 56.4169 80.0019C56.5395 80.0019 56.6604 80.031 56.7698 80.0868C56.8793 80.1426 56.9742 80.2236 57.0469 80.3232C58.6802 82.0142 60.3214 83.7025 61.9703 85.3882C62.0462 85.5073 62.1504 85.6052 62.2735 85.6731C62.3966 85.7409 62.5346 85.7764 62.6748 85.7764C62.815 85.7764 62.953 85.7409 63.0761 85.6731C63.1992 85.6052 63.3034 85.5073 63.3793 85.3882L74.8932 73.8597C74.9691 73.7456 75.0717 73.6521 75.1918 73.5875C75.3119 73.5228 75.4459 73.489 75.5821 73.489C75.7182 73.489 75.8522 73.5228 75.9723 73.5875C76.0924 73.6521 76.195 73.7456 76.2709 73.8597C76.9205 74.5234 77.5702 75.1792 78.212 75.843C78.3563 76.0189 78.4896 76.2036 78.6112 76.3961L78.6034 76.7438Z" fill="#B6C0F8"/>
<path d="M119.65 79.541H86.736C86.6486 79.528 86.5688 79.4837 86.5111 79.4163C86.4534 79.3488 86.4216 79.2627 86.4216 79.1735C86.4216 79.0844 86.4534 78.9982 86.5111 78.9308C86.5688 78.8633 86.6486 78.8191 86.736 78.8061H119.65C119.737 78.8191 119.817 78.8633 119.875 78.9308C119.933 78.9982 119.964 79.0844 119.964 79.1735C119.964 79.2627 119.933 79.3488 119.875 79.4163C119.817 79.4837 119.737 79.528 119.65 79.541Z" fill="#D1D3D4"/>
<path d="M110.899 87.3084H86.736C86.6405 87.3084 86.549 87.2701 86.4814 87.2019C86.4139 87.1338 86.376 87.0413 86.376 86.9449C86.376 86.8485 86.4139 86.756 86.4814 86.6879C86.549 86.6197 86.6405 86.5814 86.736 86.5814H110.899C110.994 86.5814 111.086 86.6197 111.154 86.6879C111.221 86.756 111.259 86.8485 111.259 86.9449C111.259 87.0413 111.221 87.1338 111.154 87.2019C111.086 87.2701 110.994 87.3084 110.899 87.3084Z" fill="#D1D3D4"/>
<path d="M73.2339 129.543H50.3155C50.2679 129.544 50.2206 129.535 50.1764 129.517C50.1323 129.5 50.0921 129.473 50.0585 129.439C50.0248 129.405 49.9984 129.364 49.9806 129.32C49.9629 129.275 49.9543 129.228 49.9554 129.179V104.463C49.9554 104.367 49.9933 104.274 50.0609 104.206C50.1284 104.138 50.22 104.099 50.3155 104.099H73.2339C73.3287 104.102 73.4192 104.14 73.4863 104.208C73.5534 104.276 73.5919 104.367 73.5939 104.463V129.179C73.5939 129.276 73.556 129.368 73.4885 129.436C73.421 129.505 73.3294 129.543 73.2339 129.543ZM50.6755 128.816H72.8738V104.826H50.6755V128.816Z" fill="#D1D3D4"/>
<path d="M78.6034 110.508C78.4831 110.713 78.3442 110.906 78.1886 111.085L63.3793 126.011C63.3044 126.13 63.2009 126.228 63.0784 126.296C62.956 126.364 62.8185 126.4 62.6787 126.4C62.539 126.4 62.4015 126.364 62.279 126.296C62.1565 126.228 62.053 126.13 61.9782 126.011L53.6499 117.319C53.5372 117.245 53.4454 117.142 53.3835 117.021C53.3215 116.901 53.2914 116.766 53.2961 116.63C53.3009 116.494 53.3402 116.362 53.4104 116.246C53.4806 116.13 53.5793 116.034 53.6969 115.968L55.7867 114.071C55.8595 113.972 55.9544 113.891 56.0639 113.835C56.1733 113.779 56.2942 113.75 56.4169 113.75C56.5395 113.75 56.6604 113.779 56.7698 113.835C56.8793 113.891 56.9742 113.972 57.0469 114.071C58.6802 115.762 60.3214 117.451 61.9703 119.136C62.0462 119.255 62.1504 119.353 62.2735 119.421C62.3966 119.489 62.5346 119.525 62.6748 119.525C62.815 119.525 62.953 119.489 63.0761 119.421C63.1992 119.353 63.3034 119.255 63.3793 119.136L74.8932 107.624C74.9691 107.51 75.0717 107.416 75.1918 107.351C75.3119 107.287 75.4459 107.253 75.5821 107.253C75.7182 107.253 75.8522 107.287 75.9723 107.351C76.0924 107.416 76.195 107.51 76.2709 107.624C76.9205 108.279 77.5702 108.935 78.212 109.607C78.3563 109.783 78.4896 109.968 78.6112 110.16L78.6034 110.508Z" fill="#B6C0F8"/>
<path d="M119.65 113.305H86.736C86.6486 113.292 86.5688 113.248 86.5111 113.18C86.4534 113.113 86.4216 113.027 86.4216 112.937C86.4216 112.848 86.4534 112.762 86.5111 112.695C86.5688 112.627 86.6486 112.583 86.736 112.57H119.65C119.737 112.583 119.817 112.627 119.875 112.695C119.933 112.762 119.964 112.848 119.964 112.937C119.964 113.027 119.933 113.113 119.875 113.18C119.817 113.248 119.737 113.292 119.65 113.305Z" fill="#D1D3D4"/>
<path d="M110.899 121.072H86.736C86.6405 121.072 86.549 121.034 86.4814 120.966C86.4139 120.898 86.376 120.805 86.376 120.709C86.376 120.612 86.4139 120.52 86.4814 120.452C86.549 120.384 86.6405 120.345 86.736 120.345H110.899C110.994 120.345 111.086 120.384 111.154 120.452C111.221 120.52 111.259 120.612 111.259 120.709C111.259 120.805 111.221 120.898 111.154 120.966C111.086 121.034 110.994 121.072 110.899 121.072Z" fill="#D1D3D4"/>
<path d="M73.2338 163.165H50.3154C50.2199 163.165 50.1283 163.126 50.0608 163.058C49.9933 162.99 49.9553 162.898 49.9553 162.801V138.093C49.9553 137.996 49.9933 137.904 50.0608 137.836C50.1283 137.767 50.2199 137.729 50.3154 137.729H73.2338C73.3286 137.731 73.4191 137.77 73.4862 137.838C73.5533 137.906 73.5918 137.997 73.5938 138.093V162.817C73.588 162.91 73.5477 162.997 73.481 163.062C73.4143 163.126 73.3261 163.163 73.2338 163.165ZM50.6754 162.438H72.8737V138.44H50.6754V162.438Z" fill="#D1D3D4"/>
<path d="M78.6034 144.122C78.4831 144.326 78.3442 144.52 78.1886 144.698L63.3793 159.625C62.8705 160.138 62.4791 160.146 61.9782 159.625C59.1969 156.733 56.4208 153.835 53.6499 150.933C53.5372 150.858 53.4454 150.756 53.3835 150.635C53.3215 150.515 53.2914 150.38 53.2961 150.244C53.3009 150.108 53.3402 149.976 53.4104 149.86C53.4806 149.744 53.5793 149.648 53.6969 149.582L55.7867 147.685C55.8595 147.586 55.9544 147.505 56.0639 147.449C56.1733 147.393 56.2942 147.364 56.4169 147.364C56.5395 147.364 56.6604 147.393 56.7698 147.449C56.8793 147.505 56.9742 147.586 57.0469 147.685L61.9703 152.758C62.0462 152.877 62.1504 152.975 62.2735 153.043C62.3966 153.111 62.5346 153.146 62.6748 153.146C62.815 153.146 62.953 153.111 63.0761 153.043C63.1992 152.975 63.3034 152.877 63.3793 152.758L74.8932 141.253C74.9691 141.139 75.0717 141.046 75.1918 140.981C75.3119 140.916 75.4459 140.883 75.5821 140.883C75.7182 140.883 75.8522 140.916 75.9723 140.981C76.0924 141.046 76.195 141.139 76.2709 141.253C76.9205 141.917 77.5702 142.573 78.212 143.237C78.3563 143.412 78.4896 143.597 78.6112 143.79L78.6034 144.122Z" fill="#B6C0F8"/>
<path d="M119.65 146.919H86.736C86.6412 146.917 86.5507 146.878 86.4836 146.81C86.4166 146.742 86.378 146.651 86.376 146.555C86.376 146.459 86.4139 146.366 86.4814 146.298C86.549 146.23 86.6405 146.192 86.736 146.192H119.65C119.745 146.192 119.837 146.23 119.905 146.298C119.972 146.366 120.01 146.459 120.01 146.555C120.008 146.651 119.969 146.742 119.902 146.81C119.835 146.878 119.745 146.917 119.65 146.919Z" fill="#D1D3D4"/>
<path d="M110.899 154.686H86.736C86.6405 154.686 86.549 154.648 86.4814 154.58C86.4139 154.511 86.376 154.419 86.376 154.323C86.378 154.227 86.4166 154.136 86.4836 154.068C86.5507 154 86.6412 153.961 86.736 153.959H110.899C110.994 153.961 111.084 154 111.151 154.068C111.218 154.136 111.257 154.227 111.259 154.323C111.259 154.419 111.221 154.511 111.154 154.58C111.086 154.648 110.994 154.686 110.899 154.686Z" fill="#D1D3D4"/>
<path d="M15.0454 133.265C20.8141 126.943 27.6865 121.673 34.872 117.035C36.6488 115.881 38.5665 114.727 40.6799 114.664C42.7933 114.601 45.0945 116.118 45.1571 118.251C45.2041 119.927 43.9517 121.317 42.8089 122.502L27.4439 138.093C29.3037 141.65 30.0881 145.68 29.6999 149.683C29.3117 153.687 27.7679 157.487 25.2601 160.612" fill="white"/>
<path d="M25.2601 161.008C25.1689 161.01 25.0799 160.979 25.0096 160.921C24.9308 160.852 24.8817 160.755 24.873 160.65C24.8642 160.545 24.8964 160.441 24.9626 160.36C27.4094 157.289 28.915 153.565 29.2946 149.643C29.6742 145.721 28.9113 141.773 27.0995 138.282C27.06 138.207 27.0456 138.121 27.0583 138.037C27.0709 137.953 27.1101 137.876 27.1699 137.816L42.5037 122.266C43.6699 121.08 44.8127 119.8 44.7658 118.315C44.711 116.379 42.5585 115.067 40.6877 115.154C38.817 115.241 36.9071 116.26 35.0834 117.445C26.7316 122.834 20.4541 127.971 15.335 133.612C15.2644 133.69 15.1662 133.736 15.062 133.74C14.9578 133.745 14.8561 133.707 14.7793 133.636C14.7025 133.565 14.6569 133.466 14.6525 133.36C14.648 133.255 14.6852 133.153 14.7558 133.075C19.9218 127.386 26.2463 122.21 34.6607 116.774C36.5862 115.533 38.4961 114.403 40.6721 114.403C42.8481 114.403 45.4781 115.984 45.5485 118.354C45.6033 120.156 44.3509 121.586 43.0594 122.89L27.9292 138.14C29.7766 141.743 30.5386 145.814 30.1214 149.849C29.7041 153.885 28.1257 157.709 25.581 160.85C25.5429 160.899 25.4942 160.939 25.4386 160.966C25.383 160.993 25.3219 161.008 25.2601 161.008Z" fill="#231F20"/>
<path d="M149.355 180.027L130.405 193.728L94.9782 149.518C95.033 147.148 93.4128 136.741 96.9116 138.456C100.41 140.171 113.459 155.184 115.611 155.674C117.764 156.164 122.75 153.698 121.998 148.839C121.247 143.979 120.339 135.801 115.627 135.461C108.48 134.948 101.835 139.736 99.0093 138.622C96.1836 137.508 93.8511 133.723 98.4614 130.926C103.737 127.765 115.094 125.711 124.198 126.706C133.301 127.702 140.205 146.192 140.846 159.735C143.242 168.348 147.867 176.195 149.355 180.027Z" fill="white"/>
<path d="M130.405 194.124C130.346 194.124 130.288 194.11 130.235 194.084C130.182 194.058 130.135 194.02 130.099 193.973L94.6807 149.771C94.6192 149.699 94.5858 149.606 94.5867 149.511C94.5867 149.036 94.5398 148.207 94.4693 147.251C94.1641 142.984 94.0075 139.08 95.4477 138.085C95.693 137.934 95.9746 137.854 96.2618 137.854C96.5489 137.854 96.8305 137.934 97.0758 138.085C98.9387 138.978 103.212 143.323 107.353 147.527C110.828 151.059 114.766 155.058 115.697 155.279C116.628 155.5 118.585 154.963 119.979 153.651C120.626 153.065 121.116 152.323 121.402 151.493C121.688 150.664 121.761 149.775 121.614 148.91L121.466 147.946C120.761 143.26 119.697 136.172 115.603 135.872C111.776 135.596 108.034 136.892 105.036 137.935C102.383 138.851 100.293 139.578 98.8683 139.033C97.9933 138.726 97.2163 138.186 96.6187 137.472C96.021 136.757 95.6247 135.894 95.4712 134.971C95.3695 133.826 95.7687 132.135 98.2578 130.625C103.737 127.299 115.4 125.387 124.237 126.351C133.825 127.409 140.588 146.476 141.238 159.712C142.874 165.575 145.566 171.137 147.539 175.199C148.454 177.08 149.245 178.707 149.715 179.94C149.745 180.021 149.748 180.109 149.724 180.192C149.7 180.274 149.65 180.347 149.582 180.398L130.632 194.108C130.559 194.136 130.48 194.141 130.405 194.124ZM95.3773 149.384L130.467 193.191L148.869 179.885C148.4 178.731 147.664 177.222 146.826 175.499C144.838 171.398 142.13 165.78 140.463 159.838C140.459 159.809 140.459 159.78 140.463 159.751C139.86 147.108 133.215 128.089 124.166 127.093C115.462 126.137 104.026 128.002 98.6726 131.25C96.9741 132.285 96.1444 133.525 96.2618 134.853C96.3987 135.629 96.7398 136.354 97.2493 136.952C97.7587 137.55 98.4179 137.998 99.1579 138.251C100.309 138.685 102.383 137.974 104.786 137.136C107.862 136.078 111.674 134.766 115.666 135.035C120.362 135.382 121.505 142.841 122.249 147.78L122.397 148.744C122.565 149.741 122.481 150.765 122.152 151.721C121.824 152.677 121.262 153.534 120.519 154.212C119.078 155.571 116.934 156.353 115.533 156.029C114.429 155.777 111.494 152.869 106.805 148.072C102.892 144.122 98.4847 139.618 96.7549 138.78C96.207 138.519 95.9722 138.685 95.8939 138.741C94.7041 139.531 95.0642 144.525 95.2599 147.187C95.3147 148.12 95.3695 148.87 95.3773 149.384Z" fill="#231F20"/>
<path d="M83.1668 141.269L83.973 147.725L77.218 146.453L73.6174 145.773L76.9362 144.209L83.1668 141.269Z" fill="white"/>
<path d="M83.973 148.12H83.9026L73.547 146.168C73.4655 146.153 73.3909 146.112 73.3345 146.051C73.278 145.99 73.2428 145.912 73.2339 145.828C73.2225 145.745 73.2376 145.661 73.277 145.587C73.3164 145.513 73.3781 145.454 73.4531 145.417L82.9946 140.921C83.0502 140.892 83.112 140.877 83.1746 140.877C83.2373 140.877 83.299 140.892 83.3547 140.921C83.4081 140.953 83.4535 140.996 83.4875 141.048C83.5214 141.1 83.543 141.16 83.5503 141.222L84.3331 147.677C84.3373 147.733 84.3305 147.788 84.3129 147.841C84.2954 147.893 84.2675 147.942 84.2309 147.983C84.1943 148.024 84.1499 148.058 84.1002 148.081C84.0505 148.105 83.9966 148.118 83.9417 148.12H83.973ZM74.8933 145.607L83.5034 147.235L82.8302 141.854L74.8933 145.607Z" fill="#231F20"/>
<path d="M133.598 141.372L83.9651 147.693C83.4455 146.706 83.0961 145.638 82.9319 144.532C82.8189 143.424 82.8957 142.304 83.1588 141.222L132.784 134.9L133.598 141.372Z" fill="#B6C0F8"/>
<path d="M83.9729 148.12C83.9046 148.119 83.8376 148.101 83.7785 148.066C83.7195 148.032 83.6704 147.982 83.6363 147.922C83.0879 146.896 82.7223 145.781 82.5561 144.627C82.4355 143.472 82.5123 142.304 82.7831 141.174C82.8018 141.097 82.8433 141.028 82.9021 140.976C82.9608 140.924 83.034 140.891 83.1119 140.882L132.745 134.521C132.848 134.512 132.951 134.543 133.032 134.607C133.114 134.672 133.168 134.765 133.183 134.869L133.966 141.324C133.975 141.376 133.972 141.429 133.958 141.479C133.945 141.53 133.921 141.577 133.888 141.617C133.856 141.657 133.817 141.69 133.773 141.714C133.729 141.739 133.68 141.754 133.629 141.759L84.0042 148.12H83.9729ZM83.4876 141.633C83.2838 142.585 83.231 143.564 83.331 144.532C83.4715 145.495 83.7649 146.429 84.1999 147.298L133.168 141.024L132.455 135.359L83.4876 141.633Z" fill="#231F20"/>
<path d="M141.546 140.361L133.61 141.377L132.8 134.926L140.735 133.91C141.205 133.85 141.679 133.98 142.053 134.273C142.427 134.565 142.671 134.996 142.731 135.47L143.092 138.347C143.152 138.821 143.022 139.3 142.732 139.677C142.442 140.055 142.016 140.301 141.546 140.361Z" fill="white"/>
<path d="M133.598 141.767C133.503 141.766 133.41 141.73 133.339 141.666C133.267 141.603 133.22 141.515 133.207 141.419L132.424 134.964C132.418 134.912 132.421 134.86 132.434 134.809C132.448 134.759 132.471 134.712 132.502 134.671C132.567 134.591 132.659 134.537 132.761 134.521L140.698 133.51C141.27 133.438 141.848 133.598 142.304 133.955C142.76 134.312 143.058 134.836 143.132 135.414L143.492 138.29C143.563 138.868 143.404 139.451 143.051 139.912C142.698 140.372 142.178 140.673 141.606 140.748L133.669 141.759L133.598 141.767ZM133.223 135.256L133.935 140.929L141.488 139.965C141.854 139.914 142.186 139.72 142.411 139.424C142.637 139.129 142.738 138.755 142.694 138.385L142.334 135.509C142.31 135.325 142.251 135.147 142.16 134.987C142.069 134.826 141.947 134.685 141.801 134.572C141.656 134.459 141.49 134.376 141.312 134.328C141.135 134.28 140.95 134.267 140.768 134.292L133.223 135.256Z" fill="#231F20"/>
<path d="M135.4 134.582L134.492 134.698L135.303 141.15L136.211 141.033L135.4 134.582Z" fill="#231F20"/>
<path d="M137.205 134.354L136.296 134.47L137.107 140.922L138.015 140.805L137.205 134.354Z" fill="#231F20"/>
<path d="M76.9362 144.208L77.218 146.453L73.6174 145.773L76.9362 144.208Z" fill="#B6C0F8"/>
<path d="M77.2415 146.848H77.1632L73.5705 146.168C73.4889 146.153 73.4143 146.112 73.3579 146.051C73.3015 145.99 73.2662 145.912 73.2574 145.828C73.246 145.745 73.261 145.661 73.3004 145.587C73.3398 145.513 73.4015 145.454 73.4765 145.417L76.7875 143.837C76.8431 143.808 76.9049 143.793 76.9675 143.793C77.0302 143.793 77.0919 143.808 77.1476 143.837C77.201 143.868 77.2464 143.912 77.2804 143.964C77.3144 144.016 77.3359 144.075 77.3432 144.137L77.625 146.374C77.6328 146.429 77.6288 146.486 77.6131 146.54C77.5975 146.594 77.5706 146.644 77.5343 146.686C77.498 146.729 77.4531 146.763 77.4026 146.787C77.3521 146.811 77.2972 146.823 77.2415 146.824V146.848ZM74.8933 145.607L76.764 145.963L76.6231 144.793L74.8933 145.607Z" fill="#231F20"/>
<path d="M96.7628 151.747C96.7628 151.747 91.8629 145.607 90.4305 143.339C88.0823 139.641 93.851 136.37 95.9096 137.919C97.389 139.017 105.013 145.82 106.547 147.282" fill="white"/>
<path d="M96.7626 152.142C96.7038 152.142 96.6456 152.129 96.5927 152.103C96.5397 152.077 96.4934 152.039 96.4574 151.992C96.2617 151.747 91.534 145.813 90.1016 143.545C89.6099 142.787 89.4175 141.871 89.5625 140.977C89.7074 140.083 90.179 139.277 90.8843 138.717C92.3324 137.35 94.798 136.575 96.2069 137.603C97.6158 138.63 105.326 145.504 106.876 146.998C106.913 147.034 106.943 147.077 106.964 147.124C106.985 147.172 106.997 147.223 106.998 147.275C107 147.327 106.991 147.379 106.973 147.428C106.954 147.476 106.927 147.521 106.891 147.559C106.856 147.597 106.813 147.627 106.766 147.648C106.719 147.67 106.668 147.681 106.617 147.683C106.565 147.684 106.514 147.676 106.465 147.657C106.417 147.638 106.373 147.61 106.335 147.575C104.77 146.089 97.1931 139.317 95.7373 138.243C94.798 137.547 92.7394 138.045 91.4166 139.294C90.8611 139.741 90.4897 140.381 90.374 141.088C90.2584 141.796 90.4067 142.522 90.7904 143.126C92.1993 145.354 97.0522 151.439 97.0992 151.502C97.1323 151.541 97.1573 151.587 97.1725 151.637C97.1877 151.686 97.1929 151.738 97.1878 151.79C97.1827 151.842 97.1673 151.892 97.1427 151.937C97.1181 151.983 97.0847 152.023 97.0444 152.055C97.0057 152.088 96.9607 152.112 96.9123 152.127C96.8639 152.142 96.813 152.147 96.7626 152.142Z" fill="#231F20"/>
<g filter="url(#filter0_d)">
<circle cx="83" cy="37" r="33" fill="white"/>
<path d="M103.759 29.0179C103.759 28.3482 103.491 27.6786 103.009 27.1964L99.3661 23.5536C98.8839 23.0714 98.2143 22.8036 97.5446 22.8036C96.875 22.8036 96.2054 23.0714 95.7232 23.5536L78.1518 41.1518L70.2768 33.25C69.7946 32.7679 69.125 32.5 68.4554 32.5C67.7857 32.5 67.1161 32.7679 66.6339 33.25L62.9911 36.8929C62.5089 37.375 62.2411 38.0446 62.2411 38.7143C62.2411 39.3839 62.5089 40.0536 62.9911 40.5357L72.6875 50.2321L76.3304 53.875C76.8125 54.3571 77.4821 54.625 78.1518 54.625C78.8214 54.625 79.4911 54.3571 79.9732 53.875L83.6161 50.2321L103.009 30.8393C103.491 30.3571 103.759 29.6875 103.759 29.0179Z" fill="#219653"/>
</g>
<defs>
<filter id="filter0_d" x="43" y="0" width="86" height="86" filterUnits="userSpaceOnUse" color-interpolation-filters="sRGB">
<feFlood flood-opacity="0" result="BackgroundImageFix"/>
<feColorMatrix in="SourceAlpha" type="matrix" values="0 0 0 0 0 0 0 0 0 0 0 0 0 0 0 0 0 0 127 0"/>
<feOffset dx="3" dy="6"/>
<feGaussianBlur stdDeviation="5"/>
<feColorMatrix type="matrix" values="0 0 0 0 0.118698 0 0 0 0 0.185706 0 0 0 0 0.5375 0 0 0 0.33 0"/>
<feBlend mode="normal" in2="BackgroundImageFix" result="effect1_dropShadow"/>
<feBlend mode="normal" in="SourceGraphic" in2="effect1_dropShadow" result="shape"/>
</filter>
</defs>
</svg>
