<svg width="311" height="233" viewBox="0 0 311 233" fill="none" xmlns="http://www.w3.org/2000/svg">
<path d="M245.091 190.089H65.9088C65.8063 190.087 65.7086 190.046 65.6361 189.973C65.5636 189.901 65.522 189.803 65.52 189.701C65.52 189.598 65.561 189.499 65.6339 189.426C65.7068 189.353 65.8057 189.312 65.9088 189.312H245.091C245.195 189.312 245.293 189.353 245.366 189.426C245.439 189.499 245.48 189.598 245.48 189.701C245.478 189.803 245.437 189.901 245.364 189.973C245.292 190.046 245.194 190.087 245.091 190.089Z" fill="#D1D3D4"/>
<path d="M242.642 56.5258V164.374C242.64 166.377 241.842 168.297 240.424 169.712C239.005 171.128 237.082 171.923 235.077 171.923H75.923C73.918 171.923 71.9949 171.128 70.5764 169.712C69.1579 168.297 68.36 166.377 68.3579 164.374V56.5258C68.3579 55.5338 68.5536 54.5515 68.9339 53.6351C69.3142 52.7186 69.8716 51.8861 70.5741 51.185C71.2767 50.4839 72.1108 49.928 73.0285 49.549C73.9463 49.1701 74.9299 48.9756 75.923 48.9766H235.077C236.07 48.9756 237.054 49.1701 237.972 49.549C238.889 49.928 239.724 50.4839 240.426 51.185C241.129 51.8861 241.686 52.7186 242.066 53.6351C242.447 54.5515 242.642 55.5338 242.642 56.5258Z" fill="white"/>
<path d="M235.085 172.28H75.915C73.8178 172.276 71.8078 171.442 70.3256 169.959C68.8434 168.477 68.0099 166.469 68.0078 164.374V56.5258C68.0078 54.4302 68.8406 52.4204 70.3233 50.9378C71.806 49.4553 73.8172 48.6214 75.915 48.6193H235.085C237.183 48.6214 239.194 49.4553 240.676 50.9378C242.159 52.4204 242.992 54.4302 242.992 56.5258V164.374C242.99 166.469 242.156 168.477 240.674 169.959C239.192 171.442 237.182 172.276 235.085 172.28ZM75.915 49.3261C74.0054 49.3302 72.1754 50.0903 70.8259 51.4399C69.4763 52.7894 68.7174 54.6183 68.7153 56.5258V164.374C68.7174 166.281 69.4766 168.109 70.8263 169.457C72.1761 170.805 74.0062 171.564 75.915 171.566H235.085C236.994 171.564 238.824 170.805 240.173 169.457C241.523 168.109 242.282 166.281 242.284 164.374V56.5258C242.282 54.6183 241.523 52.7894 240.174 51.4399C238.824 50.0903 236.994 49.3302 235.085 49.3261H75.915Z" fill="#231F20"/>
<path d="M242.642 56.5258V152.289H68.3579V56.5258C68.3579 55.5338 68.5536 54.5515 68.9339 53.6351C69.3142 52.7186 69.8716 51.8861 70.5741 51.185C71.2767 50.4839 72.1108 49.928 73.0285 49.549C73.9463 49.1701 74.9299 48.9756 75.923 48.9766H235.077C236.07 48.9756 237.054 49.1701 237.972 49.549C238.889 49.928 239.724 50.4839 240.426 51.185C241.129 51.8861 241.686 52.7186 242.066 53.6351C242.447 54.5515 242.642 55.5338 242.642 56.5258Z" fill="#231F20"/>
<path d="M233.413 57.9316H75.5186V145.167H233.413V57.9316Z" fill="white"/>
<path d="M233.413 145.524H75.5185C75.4716 145.524 75.4251 145.515 75.3817 145.497C75.3383 145.479 75.2989 145.453 75.2656 145.419C75.2324 145.386 75.2061 145.347 75.1881 145.303C75.1701 145.26 75.1609 145.214 75.1609 145.167V57.9316C75.1609 57.8368 75.1986 57.746 75.2656 57.679C75.3327 57.612 75.4237 57.5743 75.5185 57.5743H233.413C233.507 57.5763 233.596 57.6149 233.661 57.6817C233.727 57.7484 233.763 57.8382 233.763 57.9316V145.167C233.763 145.26 233.727 145.35 233.661 145.417C233.596 145.483 233.507 145.522 233.413 145.524ZM75.8684 144.81H233.056V58.25H75.8684V144.81Z" fill="#231F20"/>
<path d="M155.5 166.106C154.706 166.106 153.93 165.87 153.27 165.43C152.61 164.989 152.096 164.363 151.793 163.63C151.489 162.897 151.41 162.091 151.566 161.313C151.721 160.536 152.104 159.822 152.666 159.262C153.228 158.701 153.943 158.32 154.722 158.167C155.501 158.013 156.308 158.093 157.041 158.398C157.774 158.702 158.4 159.217 158.839 159.877C159.279 160.537 159.513 161.313 159.512 162.106C159.51 163.167 159.086 164.185 158.334 164.935C157.582 165.685 156.563 166.106 155.5 166.106ZM155.5 158.875C154.86 158.875 154.235 159.064 153.703 159.419C153.171 159.774 152.757 160.279 152.512 160.869C152.267 161.46 152.203 162.109 152.328 162.736C152.452 163.363 152.761 163.939 153.213 164.39C153.665 164.842 154.242 165.15 154.869 165.275C155.496 165.399 156.147 165.335 156.738 165.091C157.329 164.846 157.834 164.432 158.189 163.901C158.545 163.37 158.734 162.745 158.734 162.106C158.732 161.25 158.391 160.429 157.785 159.824C157.179 159.218 156.357 158.877 155.5 158.875Z" fill="#D1D3D4"/>
<path d="M180.87 185.623C178.809 183.169 178.46 171.938 178.46 171.938H132.54C132.54 171.938 132.191 183.169 130.13 185.623C128.07 188.078 119.968 192.077 119.968 193.499C119.968 194.92 121.173 195.44 127.028 195.44H183.972C189.827 195.44 191.032 194.92 191.032 193.499C191.032 192.077 182.938 188.062 180.87 185.623Z" fill="white"/>
<path d="M183.972 195.774H127.028C121.204 195.774 119.611 195.285 119.611 193.483C119.611 192.582 121.376 191.394 124.501 189.359C126.67 187.953 128.917 186.493 129.858 185.383C131.817 183.053 132.191 172.024 132.191 171.915C132.193 171.822 132.231 171.733 132.298 171.668C132.365 171.602 132.455 171.566 132.548 171.566H178.467C178.561 171.566 178.651 171.602 178.718 171.668C178.784 171.733 178.823 171.822 178.825 171.915C178.825 172.024 179.19 183.045 181.157 185.383C182.098 186.493 184.345 187.953 186.514 189.359C189.624 191.394 191.405 192.582 191.405 193.483C191.389 195.285 189.796 195.774 183.972 195.774ZM132.883 172.28C132.805 174.23 132.338 183.534 130.402 185.833C129.399 187.029 127.106 188.52 124.89 189.957C123.07 191.138 120.326 192.924 120.326 193.483C120.326 194.415 120.8 195.037 127.028 195.037H183.972C190.192 195.037 190.674 194.384 190.674 193.483C190.674 192.924 187.93 191.153 186.11 189.957C183.894 188.52 181.601 187.029 180.598 185.833C178.662 183.503 178.195 174.23 178.117 172.28H132.883Z" fill="#231F20"/>
<path d="M103.268 70.9796C103.205 72.3387 106.378 98.5046 79.5849 114.838C79.5849 114.838 95.1349 126.791 103.268 145.128H75.5186V68.7117L103.268 70.9796Z" fill="white"/>
<path d="M103.268 145.524H75.5186C75.4716 145.524 75.4251 145.515 75.3817 145.497C75.3383 145.479 75.2989 145.453 75.2657 145.419C75.2325 145.386 75.2061 145.347 75.1881 145.304C75.1702 145.26 75.1609 145.214 75.1609 145.167V68.7117C75.1604 68.6619 75.1705 68.6126 75.1907 68.5671C75.2108 68.5216 75.2404 68.4808 75.2775 68.4476C75.3133 68.4155 75.355 68.3907 75.4004 68.3747C75.4458 68.3587 75.4939 68.3518 75.5419 68.3545L103.291 70.6223C103.383 70.6302 103.468 70.6735 103.529 70.743C103.59 70.8125 103.622 70.9029 103.617 70.9951C103.617 71.0806 103.617 71.2514 103.617 71.5232C104.037 79.9501 102.583 100.974 80.1758 114.877C82.6716 116.904 96.2311 128.414 103.563 145.027C103.592 145.078 103.607 145.136 103.607 145.194C103.607 145.252 103.592 145.31 103.563 145.361C103.53 145.41 103.487 145.45 103.435 145.479C103.384 145.507 103.326 145.523 103.268 145.524ZM75.8684 144.81H102.715C94.6761 127.016 79.5227 115.242 79.3905 115.125C79.3424 115.093 79.303 115.049 79.2758 114.997C79.2486 114.946 79.2344 114.888 79.2344 114.83C79.2344 114.772 79.2486 114.715 79.2758 114.663C79.303 114.612 79.3424 114.568 79.3905 114.535C101.884 100.842 103.337 79.919 102.918 71.5543C102.918 71.4611 102.918 71.3834 102.918 71.3058L75.8684 69.1234V144.81Z" fill="#231F20"/>
<path d="M89.4124 140.639C89.312 140.639 89.2154 140.6 89.1429 140.531C89.0704 140.461 89.0277 140.366 89.0237 140.266C88.6738 132.709 82.8814 121.424 79.4604 115.366C79.165 114.853 79.165 114.853 79.1883 114.714C79.194 114.663 79.2099 114.614 79.2351 114.569C79.2603 114.524 79.2942 114.485 79.3349 114.454C79.3755 114.423 79.4221 114.4 79.4717 114.388C79.5213 114.375 79.573 114.372 79.6237 114.38C79.6909 114.39 79.7543 114.417 79.8075 114.46C79.8607 114.502 79.9019 114.557 79.9269 114.62L80.1369 114.986C83.589 121.106 89.4669 132.515 89.8012 140.235C89.8033 140.286 89.7953 140.337 89.7776 140.385C89.76 140.433 89.7331 140.477 89.6984 140.514C89.6637 140.552 89.622 140.582 89.5756 140.603C89.5292 140.625 89.479 140.637 89.428 140.639H89.4124Z" fill="#D1D3D4"/>
<path d="M78.4497 112.811C78.3621 112.81 78.2774 112.78 78.2087 112.725C78.1274 112.662 78.0744 112.57 78.0613 112.468C78.0482 112.366 78.076 112.263 78.1387 112.182C78.1931 112.12 83.1225 105.79 86.0148 91.9884C86.0364 91.8854 86.0982 91.7952 86.1864 91.7377C86.2746 91.6802 86.3821 91.66 86.4852 91.6816C86.5883 91.7033 86.6786 91.7649 86.7362 91.853C86.7937 91.9412 86.8139 92.0485 86.7923 92.1515C83.8533 106.132 78.9706 112.399 78.7685 112.656C78.7307 112.704 78.6823 112.743 78.6271 112.77C78.5718 112.797 78.5112 112.811 78.4497 112.811Z" fill="#D1D3D4"/>
<path d="M75.5186 112.423H81.3265C81.9451 112.423 82.5384 112.668 82.9758 113.105C83.4132 113.542 83.659 114.135 83.659 114.753C83.659 115.37 83.4132 115.963 82.9758 116.4C82.5384 116.837 81.9451 117.083 81.3265 117.083H75.5186V112.423Z" fill="white"/>
<path d="M81.3265 117.463H75.5185C75.4719 117.464 75.4256 117.456 75.3823 117.439C75.3389 117.422 75.2994 117.396 75.2661 117.364C75.2328 117.331 75.2063 117.292 75.1882 117.249C75.1702 117.206 75.1609 117.16 75.1609 117.114V112.454C75.1609 112.407 75.1701 112.36 75.1881 112.317C75.2061 112.274 75.2324 112.234 75.2656 112.201C75.2989 112.168 75.3383 112.141 75.3817 112.124C75.4251 112.106 75.4716 112.096 75.5185 112.096H81.3265C82.0482 112.096 82.7403 112.383 83.2507 112.892C83.761 113.402 84.0477 114.094 84.0477 114.815C84.0477 115.536 83.761 116.227 83.2507 116.737C82.7403 117.247 82.0482 117.533 81.3265 117.533V117.463ZM75.884 116.756H81.3265C81.8543 116.756 82.3606 116.547 82.7339 116.174C83.1072 115.801 83.3169 115.295 83.3169 114.768C83.3169 114.241 83.1072 113.735 82.7339 113.362C82.3606 112.989 81.8543 112.78 81.3265 112.78H75.884V116.756Z" fill="#231F20"/>
<path d="M88.635 101.938C88.5663 101.935 88.4994 101.915 88.4409 101.879C88.3824 101.842 88.3343 101.792 88.3014 101.731C88.2684 101.671 88.2517 101.603 88.253 101.534C88.2542 101.466 88.2734 101.399 88.3085 101.339C91.4185 96.3999 94.0153 87.74 94.0464 87.6546C94.0769 87.5572 94.1446 87.4756 94.2348 87.4277C94.325 87.3797 94.4305 87.3692 94.5285 87.3983C94.6263 87.4289 94.7085 87.4961 94.7578 87.5859C94.8071 87.6757 94.8196 87.781 94.7928 87.8798C94.7928 87.9653 92.1027 96.7183 88.9694 101.751C88.9345 101.808 88.8854 101.856 88.8268 101.888C88.7682 101.921 88.7021 101.938 88.635 101.938Z" fill="#D1D3D4"/>
<path d="M205.664 70.9796C205.719 72.3387 202.554 98.5046 229.339 114.838C229.339 114.838 213.789 126.791 205.664 145.128H233.405V68.7117L205.664 70.9796Z" fill="white"/>
<path d="M233.413 145.524H205.664C205.605 145.526 205.546 145.512 205.493 145.484C205.44 145.457 205.395 145.416 205.362 145.366C205.33 145.317 205.31 145.259 205.306 145.2C205.302 145.14 205.313 145.081 205.338 145.027C212.67 128.414 226.229 116.904 228.725 114.877C206.317 100.974 204.863 79.9268 205.283 71.5232C205.283 71.2514 205.283 71.0805 205.283 70.9951C205.279 70.9028 205.311 70.8125 205.371 70.743C205.432 70.6735 205.518 70.6302 205.61 70.6223L233.382 68.3467C233.43 68.3436 233.478 68.3503 233.524 68.3663C233.569 68.3823 233.611 68.4073 233.647 68.4399C233.684 68.473 233.713 68.5138 233.733 68.5593C233.754 68.6049 233.764 68.6542 233.763 68.7039V145.159C233.764 145.206 233.756 145.253 233.739 145.296C233.722 145.34 233.696 145.38 233.664 145.414C233.631 145.448 233.593 145.475 233.55 145.494C233.507 145.513 233.46 145.523 233.413 145.524ZM206.201 144.809H233.048V69.1233L206.037 71.3058C206.037 71.3834 206.037 71.4611 206.037 71.5543C205.618 79.919 207.072 100.842 229.565 114.535C229.613 114.568 229.652 114.612 229.679 114.663C229.707 114.715 229.721 114.772 229.721 114.83C229.721 114.888 229.707 114.946 229.679 114.997C229.652 115.049 229.613 115.093 229.565 115.125C229.401 115.242 214.248 127.016 206.209 144.809H206.201Z" fill="#231F20"/>
<path d="M219.488 140.639C219.437 140.637 219.387 140.625 219.341 140.603C219.294 140.582 219.252 140.552 219.218 140.514C219.183 140.477 219.156 140.433 219.139 140.385C219.121 140.337 219.113 140.286 219.115 140.235C219.473 132.507 225.335 121.098 228.787 114.978L228.989 114.62C229.016 114.557 229.059 114.502 229.114 114.46C229.168 114.418 229.232 114.39 229.3 114.38C229.402 114.369 229.504 114.397 229.585 114.459C229.666 114.521 229.72 114.613 229.736 114.714C229.736 114.853 229.736 114.853 229.464 115.366C226.035 121.416 220.242 132.709 219.893 140.266C219.891 140.317 219.879 140.367 219.857 140.413C219.836 140.46 219.805 140.502 219.768 140.536C219.73 140.571 219.686 140.598 219.638 140.615C219.59 140.633 219.539 140.641 219.488 140.639Z" fill="#D1D3D4"/>
<path d="M230.474 112.811C230.416 112.809 230.359 112.796 230.307 112.77C230.254 112.745 230.208 112.708 230.171 112.663C229.969 112.407 225.086 106.155 222.147 92.1593C222.137 92.1093 222.137 92.0578 222.146 92.0077C222.156 91.9576 222.176 91.9099 222.204 91.8674C222.232 91.8248 222.268 91.7882 222.311 91.7597C222.353 91.7312 222.4 91.7112 222.45 91.701C222.5 91.6896 222.551 91.6883 222.601 91.697C222.652 91.7058 222.699 91.7245 222.742 91.752C222.785 91.7795 222.822 91.8152 222.85 91.8572C222.879 91.8991 222.899 91.9464 222.909 91.9962C225.802 105.79 230.731 112.12 230.785 112.189C230.849 112.27 230.878 112.372 230.866 112.474C230.855 112.576 230.803 112.669 230.723 112.733C230.65 112.784 230.563 112.811 230.474 112.811Z" fill="#D1D3D4"/>
<path d="M233.406 117.106H227.598C226.979 117.106 226.386 116.86 225.948 116.423C225.511 115.986 225.265 115.394 225.265 114.776C225.265 114.158 225.511 113.565 225.948 113.128C226.386 112.691 226.979 112.446 227.598 112.446H233.406V117.106Z" fill="white"/>
<path d="M233.413 117.463H227.598C226.876 117.463 226.184 117.177 225.673 116.667C225.163 116.157 224.876 115.466 224.876 114.745C224.876 114.024 225.163 113.332 225.673 112.823C226.184 112.313 226.876 112.026 227.598 112.026H233.413C233.507 112.028 233.596 112.067 233.661 112.134C233.727 112.201 233.763 112.29 233.763 112.384V117.044C233.774 117.095 233.773 117.148 233.76 117.199C233.747 117.25 233.723 117.297 233.689 117.337C233.656 117.378 233.613 117.41 233.566 117.432C233.518 117.453 233.466 117.464 233.413 117.463ZM227.598 112.803C227.07 112.803 226.564 113.013 226.19 113.385C225.817 113.758 225.607 114.264 225.607 114.791C225.607 115.319 225.817 115.824 226.19 116.197C226.564 116.57 227.07 116.78 227.598 116.78H233.04V112.803H227.598Z" fill="#231F20"/>
<path d="M220.289 101.938C220.223 101.939 220.158 101.922 220.1 101.89C220.042 101.857 219.995 101.809 219.963 101.751C216.853 96.7183 214.162 87.9653 214.139 87.8798C214.122 87.7862 214.14 87.6895 214.19 87.6082C214.239 87.5269 214.317 87.4666 214.408 87.4388C214.499 87.411 214.597 87.4176 214.684 87.4574C214.771 87.4972 214.84 87.5674 214.878 87.6546C214.878 87.74 217.537 96.3999 220.616 101.339C220.651 101.399 220.67 101.466 220.671 101.534C220.672 101.603 220.656 101.671 220.623 101.731C220.59 101.792 220.542 101.842 220.483 101.879C220.425 101.915 220.358 101.935 220.289 101.938Z" fill="#D1D3D4"/>
<path d="M81.3575 32.5656H229.642C231.541 32.5656 233.363 33.3193 234.706 34.6607C236.049 36.0022 236.803 37.8216 236.803 39.7187V42.7167H74.189V39.7187C74.189 38.7787 74.3744 37.8479 74.7348 36.9796C75.0951 36.1112 75.6233 35.3223 76.2891 34.658C76.9548 33.9937 77.7451 33.4669 78.6148 33.1079C79.4845 32.7489 80.4165 32.5646 81.3575 32.5656Z" fill="#B6C0F8"/>
<path d="M236.811 43.0429H74.1891C74.1049 43.0358 74.0258 42.9992 73.9661 42.9395C73.9063 42.8798 73.8696 42.8008 73.8625 42.7167V39.7187C73.8646 37.7275 74.6574 35.8184 76.0669 34.4104C77.4764 33.0024 79.3876 32.2104 81.381 32.2084H229.642C231.632 32.2166 233.537 33.0112 234.941 34.4186C236.346 35.8259 237.135 37.7315 237.138 39.7187V42.7167C237.13 42.8008 237.094 42.8798 237.034 42.9395C236.974 42.9992 236.895 43.0358 236.811 43.0429ZM74.5467 42.3283H236.453V39.7187C236.451 37.9149 235.733 36.1856 234.456 34.9101C233.179 33.6347 231.448 32.9172 229.642 32.9151H81.3576C79.5519 32.9172 77.8207 33.6347 76.5439 34.9101C75.267 36.1856 74.5488 37.9149 74.5467 39.7187V42.3283Z" fill="#231F20"/>
<path d="M73.3416 42.6856L53.1033 65.1779H67.728L85.0741 42.6856H73.3416Z" fill="white"/>
<path d="M67.7279 65.5274H53.1032C53.0343 65.5275 52.9669 65.5078 52.9089 65.4706C52.851 65.4334 52.8051 65.3803 52.7766 65.3177C52.7504 65.2548 52.7423 65.1858 52.7533 65.1185C52.7643 65.0513 52.7939 64.9884 52.8388 64.9371L73.0849 42.4526C73.1171 42.4137 73.1574 42.3824 73.2031 42.3609C73.2489 42.3394 73.2988 42.3283 73.3493 42.3283H85.0817C85.1486 42.328 85.2142 42.3469 85.2707 42.3827C85.3272 42.4185 85.3723 42.4697 85.4005 42.5303C85.4367 42.5857 85.4559 42.6505 85.4559 42.7167C85.4559 42.7829 85.4367 42.8476 85.4005 42.9031L68.0623 65.4264C68.0194 65.4698 67.9664 65.5017 67.908 65.5194C67.8496 65.537 67.7877 65.5398 67.7279 65.5274ZM53.8962 64.8206H67.5569L84.3509 43.0739H73.4659L53.8962 64.8206Z" fill="#231F20"/>
<path d="M85.0741 42.6856L67.728 65.1779H82.3606L96.8143 42.6856H85.0741Z" fill="#B6C0F8"/>
<path d="M82.3605 65.5274H67.728C67.6623 65.5266 67.598 65.5082 67.5419 65.474C67.4858 65.4399 67.4399 65.3912 67.4092 65.3332C67.3772 65.2763 67.3604 65.2121 67.3604 65.1468C67.3604 65.0815 67.3772 65.0173 67.4092 64.9604L84.7552 42.4371C84.7886 42.3945 84.831 42.3599 84.8794 42.3357C84.9278 42.3116 84.981 42.2984 85.0351 42.2973H96.7754C96.8393 42.2981 96.9018 42.3161 96.9564 42.3492C97.011 42.3824 97.0558 42.4296 97.0859 42.4859C97.1161 42.5422 97.1306 42.6056 97.1279 42.6694C97.1253 42.7332 97.1056 42.7951 97.0708 42.8487L82.656 65.3643C82.6245 65.4141 82.5809 65.4552 82.5292 65.4838C82.4776 65.5123 82.4195 65.5273 82.3605 65.5274ZM68.4199 64.8206H82.135L96.13 43.0739H85.245L68.4199 64.8206Z" fill="#231F20"/>
<path d="M96.8143 42.6856L82.3606 65.1779H96.9854L108.555 42.6856H96.8143Z" fill="white"/>
<path d="M96.9855 65.5274H82.3607C82.2977 65.5276 82.2358 65.5112 82.1812 65.4798C82.1265 65.4485 82.0812 65.4032 82.0497 65.3487C82.0168 65.2935 81.9995 65.2305 81.9995 65.1662C81.9995 65.102 82.0168 65.0389 82.0497 64.9837L96.5034 42.4604C96.5367 42.4104 96.5817 42.3693 96.6346 42.3409C96.6875 42.3125 96.7466 42.2975 96.8066 42.2973H108.547C108.606 42.2989 108.665 42.3154 108.716 42.3452C108.768 42.3751 108.811 42.4173 108.842 42.4681C108.873 42.5213 108.889 42.5815 108.889 42.6429C108.889 42.7042 108.873 42.7645 108.842 42.8176L97.2809 65.341C97.2517 65.3947 97.2093 65.44 97.1575 65.4727C97.1058 65.5053 97.0466 65.5241 96.9855 65.5274ZM82.9905 64.8206H96.7522L107.956 43.0739H96.9932L82.9905 64.8206Z" fill="#231F20"/>
<path d="M108.555 42.6856L96.9854 65.1779H111.618L120.287 42.6856H108.555Z" fill="#B6C0F8"/>
<path d="M111.618 65.5274H96.9854C96.9253 65.5272 96.8662 65.5122 96.8133 65.4837C96.7604 65.4553 96.7154 65.4143 96.6821 65.3643C96.6514 65.3111 96.6353 65.2509 96.6353 65.1895C96.6353 65.1282 96.6514 65.0679 96.6821 65.0148L108.244 42.4914C108.274 42.4329 108.319 42.3838 108.376 42.3495C108.432 42.3152 108.496 42.2972 108.562 42.2973H120.295C120.352 42.2974 120.409 42.3115 120.46 42.3382C120.511 42.365 120.555 42.4037 120.588 42.4509C120.621 42.4982 120.641 42.5527 120.649 42.6098C120.656 42.6669 120.649 42.7249 120.629 42.7788L111.96 65.3021C111.936 65.3723 111.889 65.4325 111.828 65.4732C111.766 65.514 111.692 65.5331 111.618 65.5274ZM97.5685 64.8206H111.369L119.766 43.0739H108.764L97.5685 64.8206Z" fill="#231F20"/>
<path d="M120.287 42.6856L111.618 65.1779H126.243L132.027 42.6856H120.287Z" fill="white"/>
<path d="M126.243 65.5274H111.618C111.56 65.5291 111.502 65.5163 111.45 65.4901C111.398 65.4638 111.353 65.425 111.32 65.3772C111.287 65.3294 111.266 65.274 111.26 65.2161C111.253 65.1583 111.262 65.0997 111.284 65.0458L119.953 42.5613C119.978 42.4931 120.024 42.4342 120.083 42.3926C120.143 42.351 120.214 42.3285 120.287 42.3283H132.027C132.081 42.3295 132.135 42.3426 132.183 42.3668C132.231 42.391 132.274 42.4256 132.307 42.4681C132.34 42.5107 132.362 42.5601 132.373 42.6125C132.384 42.6649 132.382 42.7191 132.369 42.771L126.585 65.2944C126.56 65.3645 126.513 65.4249 126.452 65.4668C126.39 65.5088 126.317 65.53 126.243 65.5274ZM112.131 64.8206H125.955L131.553 43.0739H120.512L112.131 64.8206Z" fill="#231F20"/>
<path d="M132.027 42.6856L126.243 65.1779H140.875L143.76 42.6856H132.027Z" fill="#B6C0F8"/>
<path d="M140.875 65.5274H126.243C126.189 65.5277 126.136 65.516 126.088 65.4932C126.039 65.4703 125.997 65.4369 125.963 65.3953C125.929 65.3521 125.905 65.3014 125.894 65.2474C125.884 65.1935 125.886 65.1377 125.901 65.0847L131.685 42.6002C131.704 42.5235 131.748 42.4552 131.81 42.406C131.872 42.3568 131.948 42.3295 132.027 42.3283H143.76C143.811 42.3292 143.862 42.3407 143.909 42.362C143.956 42.3834 143.998 42.4143 144.032 42.4526C144.094 42.5319 144.125 42.6316 144.117 42.7322L141.225 65.2555C141.207 65.3342 141.163 65.4043 141.099 65.4539C141.035 65.5034 140.956 65.5294 140.875 65.5274ZM126.733 64.8206H140.588L143.387 43.0739H132.299L126.733 64.8206Z" fill="#231F20"/>
<path d="M143.76 42.6856L140.875 65.1779H155.5V42.6856H143.76Z" fill="white"/>
<path d="M155.5 65.5274H140.875C140.824 65.529 140.773 65.5194 140.726 65.4993C140.679 65.4792 140.637 65.449 140.603 65.4109C140.541 65.3316 140.51 65.2319 140.517 65.1313L143.41 42.6079C143.419 42.5221 143.46 42.4429 143.525 42.3856C143.59 42.3282 143.673 42.2967 143.76 42.2973H155.5C155.594 42.2993 155.684 42.3375 155.751 42.4041C155.817 42.4707 155.856 42.5604 155.858 42.6545V65.1779C155.856 65.2713 155.817 65.3602 155.75 65.4255C155.683 65.4908 155.593 65.5274 155.5 65.5274ZM141.279 64.8206H155.142V43.0739H144.078L141.279 64.8206Z" fill="#231F20"/>
<path d="M155.5 42.6856V65.1779H170.125L167.24 42.6856H155.5Z" fill="#B6C0F8"/>
<path d="M170.125 65.5274H155.5C155.406 65.5274 155.317 65.4908 155.25 65.4255C155.183 65.3602 155.144 65.2713 155.142 65.1779V42.7167C155.144 42.6225 155.183 42.5328 155.249 42.4662C155.316 42.3997 155.406 42.3614 155.5 42.3594H167.24C167.327 42.3589 167.41 42.3903 167.475 42.4477C167.539 42.505 167.581 42.5843 167.59 42.6701L170.482 65.1934C170.49 65.294 170.459 65.3938 170.397 65.473C170.358 65.5001 170.313 65.5189 170.266 65.5283C170.22 65.5376 170.171 65.5373 170.125 65.5274ZM155.858 64.8206H169.72L166.921 43.0739H155.858V64.8206Z" fill="#231F20"/>
<path d="M167.24 42.6856L170.125 65.1779H184.757L178.973 42.6856H167.24Z" fill="white"/>
<path d="M184.757 65.5274H170.125C170.04 65.5281 169.957 65.4978 169.893 65.442C169.828 65.3862 169.786 65.3089 169.775 65.2245L166.883 42.7011C166.875 42.6005 166.906 42.5008 166.968 42.4215C167.003 42.3832 167.044 42.3524 167.091 42.331C167.138 42.3096 167.189 42.2981 167.24 42.2973H178.973C179.052 42.2984 179.128 42.3257 179.19 42.3749C179.252 42.4241 179.296 42.4924 179.315 42.5691L185.1 65.0536C185.114 65.1066 185.116 65.1624 185.106 65.2164C185.095 65.2704 185.071 65.321 185.037 65.3643C185.007 65.4116 184.966 65.451 184.917 65.4793C184.868 65.5076 184.814 65.5241 184.757 65.5274ZM170.444 64.8206H184.268L178.67 43.0739H167.645L170.444 64.8206Z" fill="#231F20"/>
<path d="M178.973 42.6856L184.757 65.1779H199.382L190.713 42.6856H178.973Z" fill="#B6C0F8"/>
<path d="M199.382 65.5274H184.757C184.679 65.528 184.603 65.5023 184.541 65.4544C184.478 65.4066 184.434 65.3392 184.415 65.2633L178.631 42.74C178.618 42.6881 178.616 42.6339 178.627 42.5815C178.638 42.529 178.66 42.4797 178.693 42.4371C178.726 42.3945 178.769 42.3599 178.817 42.3357C178.865 42.3116 178.919 42.2984 178.973 42.2973H190.713C190.786 42.2975 190.857 42.3199 190.917 42.3615C190.976 42.4032 191.022 42.462 191.047 42.5303L199.716 65.0536C199.738 65.1075 199.747 65.166 199.74 65.2239C199.734 65.2818 199.713 65.3371 199.68 65.385C199.647 65.4328 199.602 65.4716 199.55 65.4978C199.498 65.524 199.44 65.5369 199.382 65.5351V65.5274ZM185.045 64.8206H198.884L190.487 43.0739H179.447L185.045 64.8206Z" fill="#231F20"/>
<path d="M190.713 42.6856L199.382 65.1779H214.015L202.445 42.6856H190.713Z" fill="white"/>
<path d="M214.015 65.5274H199.382C199.311 65.5296 199.241 65.5089 199.182 65.4684C199.123 65.4279 199.079 65.3696 199.056 65.3021L190.379 42.7788C190.359 42.7249 190.352 42.6669 190.359 42.6098C190.366 42.5527 190.387 42.4982 190.42 42.4509C190.453 42.4037 190.497 42.365 190.548 42.3382C190.599 42.3115 190.655 42.2974 190.713 42.2973H202.446C202.511 42.2972 202.576 42.3152 202.632 42.3495C202.689 42.3838 202.734 42.4329 202.764 42.4914L214.326 65.0148C214.356 65.0679 214.373 65.1282 214.373 65.1895C214.373 65.2509 214.356 65.3111 214.326 65.3643C214.292 65.4154 214.246 65.4571 214.191 65.4856C214.137 65.5141 214.076 65.5285 214.015 65.5274ZM199.631 64.8206H213.432L202.236 43.0739H191.265L199.631 64.8206Z" fill="#231F20"/>
<path d="M202.446 42.6856L214.015 65.1779H228.64L214.186 42.6856H202.446Z" fill="#B6C0F8"/>
<path d="M228.639 65.5274H214.015C213.949 65.5282 213.885 65.5113 213.829 65.4785C213.773 65.4456 213.727 65.3981 213.696 65.341L202.15 42.8487C202.119 42.7956 202.103 42.7353 202.103 42.674C202.103 42.6126 202.119 42.5523 202.15 42.4992C202.181 42.4484 202.224 42.4061 202.276 42.3763C202.328 42.3464 202.386 42.33 202.445 42.3283H214.186C214.246 42.3285 214.305 42.3435 214.358 42.372C214.411 42.4004 214.456 42.4415 214.489 42.4914L228.943 65.0148C228.975 65.07 228.993 65.1331 228.993 65.1973C228.993 65.2615 228.975 65.3246 228.943 65.3798C228.908 65.4274 228.862 65.4658 228.809 65.4915C228.757 65.5173 228.698 65.5296 228.639 65.5274ZM214.232 64.8206H227.994L213.999 43.0739H203.036L214.232 64.8206Z" fill="#231F20"/>
<path d="M214.186 42.6856L228.64 65.1779H243.272L225.926 42.6856H214.186Z" fill="white"/>
<path d="M243.272 65.5274H228.639C228.58 65.5273 228.522 65.5123 228.471 65.4838C228.419 65.4552 228.375 65.4141 228.344 65.3643L213.89 42.8798C213.855 42.8262 213.836 42.7642 213.833 42.7004C213.83 42.6366 213.845 42.5733 213.875 42.517C213.905 42.4607 213.95 42.4135 214.005 42.3803C214.059 42.3471 214.122 42.3292 214.186 42.3283H225.926C225.98 42.3295 226.033 42.3426 226.082 42.3668C226.13 42.391 226.172 42.4256 226.206 42.4681L243.552 64.9915C243.59 65.045 243.614 65.1074 243.62 65.1728C243.627 65.2381 243.617 65.3041 243.591 65.3643C243.556 65.4165 243.509 65.4589 243.453 65.4875C243.397 65.5161 243.335 65.5298 243.272 65.5274ZM228.834 64.8206H242.58L225.778 43.0739H214.893L228.834 64.8206Z" fill="#231F20"/>
<path d="M225.926 42.6856L243.272 65.1779H257.897L237.659 42.6856H225.926Z" fill="#B6C0F8"/>
<path d="M257.897 65.5274H243.272C243.217 65.5283 243.163 65.517 243.113 65.4941C243.063 65.4712 243.019 65.4375 242.984 65.3953L225.638 42.872C225.604 42.8159 225.586 42.7514 225.586 42.6856C225.586 42.6198 225.604 42.5553 225.638 42.4992C225.666 42.438 225.711 42.3863 225.767 42.3503C225.824 42.3144 225.89 42.296 225.957 42.2973H237.689C237.74 42.2972 237.79 42.3083 237.836 42.3298C237.881 42.3513 237.922 42.3826 237.954 42.4215L258.169 64.9449C258.214 64.9962 258.243 65.059 258.254 65.1263C258.265 65.1935 258.257 65.2625 258.231 65.3254C258.201 65.3879 258.153 65.4402 258.094 65.476C258.035 65.5119 257.966 65.5297 257.897 65.5274ZM243.443 64.8206H257.104L237.503 43.0739H226.618L243.443 64.8206Z" fill="#231F20"/>
<path d="M53.1033 65.1779H67.728V77.5191C67.728 79.4121 66.9752 81.2276 65.6353 82.5661C64.2953 83.9047 62.4778 84.6567 60.5828 84.6567H60.2485C58.3535 84.6567 56.536 83.9047 55.1961 82.5661C53.8561 81.2276 53.1033 79.4121 53.1033 77.5191V65.1779Z" fill="white"/>
<path d="M60.5828 85.0139H60.2485C58.2592 85.0119 56.352 84.2216 54.9454 82.8165C53.5388 81.4114 52.7477 79.5062 52.7456 77.5191V65.1779C52.7476 65.0838 52.7859 64.994 52.8526 64.9275C52.9192 64.8609 53.009 64.8226 53.1033 64.8206H67.728C67.8229 64.8206 67.9139 64.8583 67.9809 64.9253C68.048 64.9923 68.0857 65.0831 68.0857 65.1779V77.5191C68.0836 79.5062 67.2925 81.4114 65.8859 82.8165C64.4793 84.2216 62.5721 85.0119 60.5828 85.0139ZM53.4609 65.5274V77.5191C53.463 79.3167 54.1787 81.0401 55.4512 82.3112C56.7237 83.5823 58.4489 84.2974 60.2485 84.2994H60.5828C62.3831 84.2974 64.1091 83.5826 65.3828 82.3117C66.6565 81.0408 67.3741 79.3174 67.3782 77.5191V65.5274H53.4609Z" fill="#231F20"/>
<path d="M67.728 65.1779H82.3528V77.5191C82.3528 79.4121 81.6 81.2276 80.26 82.5661C78.92 83.9047 77.1026 84.6567 75.2076 84.6567H74.8733C72.9782 84.6567 71.1608 83.9047 69.8208 82.5661C68.4808 81.2276 67.728 79.4121 67.728 77.5191V65.1779Z" fill="#B6C0F8"/>
<path d="M75.2076 85.0139H74.881C72.8918 85.0119 70.9846 84.2216 69.578 82.8165C68.1714 81.4114 67.3802 79.5062 67.3782 77.5191V65.1779C67.3782 65.0845 67.4148 64.9947 67.4802 64.928C67.5456 64.8612 67.6345 64.8226 67.728 64.8206H82.3606C82.4541 64.8226 82.5431 64.8612 82.6085 64.928C82.6739 64.9947 82.7105 65.0845 82.7105 65.1779V77.5191C82.7084 79.5062 81.9173 81.4114 80.5107 82.8165C79.104 84.2216 77.1969 85.0119 75.2076 85.0139ZM68.0857 65.5274V77.5191C68.0898 79.3174 68.8073 81.0408 70.081 82.3117C71.3547 83.5826 73.0808 84.2974 74.881 84.2994H75.2076C77.0079 84.2974 78.7339 83.5826 80.0076 82.3117C81.2813 81.0408 81.9988 79.3174 82.0029 77.5191V65.5274H68.0857Z" fill="#231F20"/>
<path d="M82.3606 65.1779H96.9854V77.5191C96.9854 79.4121 96.2326 81.2276 94.8926 82.5661C93.5526 83.9047 91.7352 84.6567 89.8401 84.6567H89.5058C87.6108 84.6567 85.7934 83.9047 84.4534 82.5661C83.1134 81.2276 82.3606 79.4121 82.3606 77.5191V65.1779Z" fill="white"/>
<path d="M89.8401 85.0139H89.5058C87.5166 85.0119 85.6094 84.2216 84.2027 82.8165C82.7961 81.4114 82.005 79.5062 82.0029 77.5191V65.1779C82.0049 65.0838 82.0432 64.994 82.1099 64.9275C82.1765 64.8609 82.2663 64.8226 82.3606 64.8206H96.9854C97.0796 64.8226 97.1694 64.8609 97.2361 64.9275C97.3027 64.994 97.341 65.0838 97.343 65.1779V77.5191C97.3409 79.5062 96.5498 81.4114 95.1432 82.8165C93.7366 84.2216 91.8294 85.0119 89.8401 85.0139ZM82.7105 65.5274V77.5191C82.7146 79.3174 83.4321 81.0408 84.7058 82.3117C85.9795 83.5826 87.7055 84.2974 89.5058 84.2994H89.8401C91.6404 84.2974 93.3664 83.5826 94.6402 82.3117C95.9139 81.0408 96.6314 79.3174 96.6355 77.5191V65.5274H82.7105Z" fill="#231F20"/>
<path d="M96.9854 65.1779H111.61V77.5191C111.61 79.4121 110.857 81.2276 109.517 82.5661C108.177 83.9047 106.36 84.6567 104.465 84.6567H104.131C102.236 84.6567 100.418 83.9047 99.0781 82.5661C97.7381 81.2276 96.9854 79.4121 96.9854 77.5191V65.1779Z" fill="#B6C0F8"/>
<path d="M104.465 85.0139H104.138C102.149 85.0119 100.242 84.2216 98.8353 82.8165C97.4287 81.4114 96.6376 79.5062 96.6355 77.5191V65.1779C96.6355 65.0845 96.6721 64.9947 96.7375 64.928C96.8029 64.8612 96.8919 64.8226 96.9854 64.8206H111.618C111.711 64.8226 111.8 64.8612 111.866 64.928C111.931 64.9947 111.968 65.0845 111.968 65.1779V77.5191C111.966 79.5062 111.175 81.4114 109.768 82.8165C108.361 84.2216 106.454 85.0119 104.465 85.0139ZM97.343 65.5274V77.5191C97.3471 79.3174 98.0646 81.0408 99.3383 82.3117C100.612 83.5826 102.338 84.2974 104.138 84.2994H104.465C106.265 84.2974 107.991 83.5826 109.265 82.3117C110.539 81.0408 111.256 79.3174 111.26 77.5191V65.5274H97.343Z" fill="#231F20"/>
<path d="M111.618 65.1779H126.243V77.5191C126.243 79.4121 125.49 81.2276 124.15 82.5661C122.81 83.9047 120.992 84.6567 119.097 84.6567H118.763C116.868 84.6567 115.051 83.9047 113.711 82.5661C112.371 81.2276 111.618 79.4121 111.618 77.5191V65.1779Z" fill="white"/>
<path d="M119.097 85.0139H118.763C116.774 85.0119 114.867 84.2216 113.46 82.8165C112.053 81.4114 111.262 79.5062 111.26 77.5191V65.1779C111.26 65.0831 111.298 64.9923 111.365 64.9253C111.432 64.8583 111.523 64.8206 111.618 64.8206H126.243C126.337 64.8226 126.427 64.8609 126.493 64.9275C126.56 64.994 126.598 65.0838 126.6 65.1779V77.5191C126.598 79.5062 125.807 81.4114 124.401 82.8165C122.994 84.2216 121.087 85.0119 119.097 85.0139ZM111.96 65.5274V77.5191C111.964 79.3174 112.682 81.0408 113.955 82.3117C115.229 83.5826 116.955 84.2974 118.755 84.2994H119.09C120.889 84.2974 122.614 83.5823 123.887 82.3112C125.159 81.0401 125.875 79.3167 125.877 77.5191V65.5274H111.96Z" fill="#231F20"/>
<path d="M126.243 65.1779H140.867V77.5191C140.867 79.4108 140.116 81.2251 138.777 82.5634C137.439 83.9017 135.624 84.6546 133.73 84.6567H133.396C131.501 84.6567 129.683 83.9047 128.343 82.5661C127.003 81.2276 126.25 79.4121 126.25 77.5191V65.1779H126.243Z" fill="#B6C0F8"/>
<path d="M133.73 85.0139H133.403C131.413 85.0139 129.504 84.2246 128.095 82.8192C126.687 81.4139 125.895 79.5076 125.893 77.5191V65.1779C125.895 65.0838 125.933 64.994 126 64.9275C126.066 64.8609 126.156 64.8226 126.25 64.8206H140.883C140.977 64.8226 141.066 64.8612 141.131 64.928C141.196 64.9947 141.233 65.0845 141.233 65.1779V77.5191C141.231 79.5062 140.44 81.4114 139.033 82.8165C137.626 84.2216 135.719 85.0119 133.73 85.0139ZM126.608 65.5274V77.5191C126.612 79.3174 127.33 81.0408 128.603 82.3117C129.877 83.5826 131.603 84.2974 133.403 84.2994H133.73C135.53 84.2974 137.256 83.5826 138.53 82.3117C139.804 81.0408 140.521 79.3174 140.525 77.5191V65.5274H126.608Z" fill="#231F20"/>
<path d="M140.875 65.1779H155.5V77.5191C155.5 79.4121 154.747 81.2276 153.407 82.5661C152.067 83.9047 150.25 84.6567 148.355 84.6567H148.02C146.125 84.6567 144.308 83.9047 142.968 82.5661C141.628 81.2276 140.875 79.4121 140.875 77.5191V65.1779Z" fill="white"/>
<path d="M148.355 85.0139H148.02C146.031 85.0119 144.124 84.2216 142.717 82.8165C141.311 81.4114 140.52 79.5062 140.518 77.5191V65.1779C140.518 65.0831 140.555 64.9923 140.622 64.9253C140.689 64.8583 140.78 64.8206 140.875 64.8206H155.5C155.594 64.8226 155.684 64.8609 155.751 64.9275C155.817 64.994 155.856 65.0838 155.858 65.1779V77.5191C155.856 79.5062 155.064 81.4114 153.658 82.8165C152.251 84.2216 150.344 85.0119 148.355 85.0139ZM141.225 65.5274V77.5191C141.229 79.3174 141.947 81.0408 143.22 82.3117C144.494 83.5826 146.22 84.2974 148.02 84.2994H148.355C150.154 84.2974 151.88 83.5823 153.152 82.3112C154.425 81.0401 155.14 79.3167 155.142 77.5191V65.5274H141.225Z" fill="#231F20"/>
<path d="M155.5 65.1779H170.125V77.5191C170.125 79.4121 169.372 81.2276 168.032 82.5661C166.692 83.9047 164.875 84.6567 162.98 84.6567H162.645C160.75 84.6567 158.933 83.9047 157.593 82.5661C156.253 81.2276 155.5 79.4121 155.5 77.5191V65.1779Z" fill="#B6C0F8"/>
<path d="M162.98 85.0139H162.645C160.656 85.0119 158.749 84.2216 157.342 82.8165C155.936 81.4114 155.144 79.5062 155.142 77.5191V65.1779C155.144 65.0838 155.183 64.994 155.249 64.9275C155.316 64.8609 155.406 64.8226 155.5 64.8206H170.125C170.22 64.8206 170.311 64.8583 170.378 64.9253C170.445 64.9923 170.482 65.0831 170.482 65.1779V77.5191C170.48 79.5062 169.689 81.4114 168.283 82.8165C166.876 84.2216 164.969 85.0119 162.98 85.0139ZM155.858 65.5274V77.5191C155.86 79.3167 156.575 81.0401 157.848 82.3112C159.12 83.5823 160.846 84.2974 162.645 84.2994H162.98C164.78 84.2974 166.506 83.5826 167.78 82.3117C169.053 81.0408 169.771 79.3174 169.775 77.5191V65.5274H155.858Z" fill="#231F20"/>
<path d="M170.125 65.1779H184.75V77.5191C184.75 79.4121 183.997 81.2276 182.657 82.5661C181.317 83.9047 179.499 84.6567 177.604 84.6567H177.27C175.375 84.6567 173.558 83.9047 172.218 82.5661C170.878 81.2276 170.125 79.4121 170.125 77.5191V65.1779Z" fill="white"/>
<path d="M177.604 85.0139H177.27C175.281 85.0119 173.374 84.2216 171.967 82.8165C170.56 81.4114 169.769 79.5062 169.767 77.5191V65.1779C169.767 65.0845 169.804 64.9947 169.869 64.928C169.934 64.8612 170.023 64.8226 170.117 64.8206H184.75C184.844 64.8226 184.934 64.8609 185 64.9275C185.067 64.994 185.105 65.0838 185.107 65.1779V77.5191C185.105 79.5062 184.314 81.4114 182.907 82.8165C181.501 84.2216 179.594 85.0119 177.604 85.0139ZM170.482 65.5274V77.5191C170.487 79.3174 171.204 81.0408 172.478 82.3117C173.751 83.5826 175.477 84.2974 177.278 84.2994H177.604C179.405 84.2974 181.131 83.5826 182.404 82.3117C183.678 81.0408 184.396 79.3174 184.4 77.5191V65.5274H170.482Z" fill="#231F20"/>
<path d="M184.757 65.1779H199.382V77.5191C199.382 79.4121 198.629 81.2276 197.289 82.5661C195.949 83.9047 194.132 84.6567 192.237 84.6567H191.903C190.008 84.6567 188.19 83.9047 186.85 82.5661C185.51 81.2276 184.757 79.4121 184.757 77.5191V65.1779Z" fill="#B6C0F8"/>
<path d="M192.237 85.0139H191.903C189.913 85.0119 188.006 84.2216 186.599 82.8165C185.193 81.4114 184.402 79.5062 184.4 77.5191V65.1779C184.402 65.0838 184.44 64.994 184.507 64.9275C184.573 64.8609 184.663 64.8226 184.757 64.8206H199.382C199.477 64.8206 199.568 64.8583 199.635 64.9253C199.702 64.9923 199.74 65.0831 199.74 65.1779V77.5191C199.738 79.5062 198.947 81.4114 197.54 82.8165C196.133 84.2216 194.226 85.0119 192.237 85.0139ZM185.115 65.5274V77.5191C185.117 79.3167 185.833 81.0401 187.105 82.3112C188.378 83.5823 190.103 84.2974 191.903 84.2994H192.237C194.038 84.2994 195.767 83.5856 197.042 82.3145C198.317 81.0434 199.036 79.3188 199.04 77.5191V65.5274H185.115Z" fill="#231F20"/>
<path d="M199.382 65.1779H214.007V77.5191C214.007 79.4121 213.254 81.2276 211.914 82.5661C210.574 83.9047 208.757 84.6567 206.862 84.6567H206.527C204.632 84.6567 202.815 83.9047 201.475 82.5661C200.135 81.2276 199.382 79.4121 199.382 77.5191V65.1779Z" fill="white"/>
<path d="M206.862 85.0139H206.535C204.547 85.0098 202.642 84.2186 201.237 82.8138C199.832 81.4089 199.042 79.5049 199.04 77.5191V65.1779C199.04 65.0845 199.077 64.9947 199.142 64.928C199.207 64.8612 199.296 64.8226 199.39 64.8206H214.022C214.116 64.8226 214.205 64.8612 214.27 64.928C214.336 64.9947 214.372 65.0845 214.372 65.1779V77.5191C214.37 79.5076 213.578 81.4139 212.17 82.8192C210.761 84.2246 208.852 85.0139 206.862 85.0139ZM199.74 65.5274V77.5191C199.744 79.3174 200.461 81.0408 201.735 82.3117C203.009 83.5826 204.735 84.2974 206.535 84.2994H206.862C208.662 84.2974 210.388 83.5826 211.662 82.3117C212.935 81.0408 213.653 79.3174 213.657 77.5191V65.5274H199.74Z" fill="#231F20"/>
<path d="M214.015 65.1779H228.639V77.5191C228.639 79.4121 227.887 81.2276 226.547 82.5661C225.207 83.9047 223.389 84.6567 221.494 84.6567H221.16C219.265 84.6567 217.447 83.9047 216.107 82.5661C214.767 81.2276 214.015 79.4121 214.015 77.5191V65.1779Z" fill="#B6C0F8"/>
<path d="M221.494 85.0139H221.16C219.171 85.0119 217.263 84.2216 215.857 82.8165C214.45 81.4114 213.659 79.5062 213.657 77.5191V65.1779C213.659 65.0838 213.697 64.994 213.764 64.9275C213.831 64.8609 213.92 64.8226 214.015 64.8206H228.639C228.734 64.8226 228.823 64.8609 228.89 64.9275C228.957 64.994 228.995 65.0838 228.997 65.1779V77.5191C228.995 79.5062 228.204 81.4114 226.797 82.8165C225.391 84.2216 223.483 85.0119 221.494 85.0139ZM214.365 65.5274V77.5191C214.369 79.3174 215.086 81.0408 216.36 82.3117C217.634 83.5826 219.36 84.2974 221.16 84.2994H221.494C223.294 84.2974 225.019 83.5823 226.291 82.3112C227.564 81.0401 228.28 79.3167 228.282 77.5191V65.5274H214.365Z" fill="#231F20"/>
<path d="M228.639 65.1779H243.264V77.5191C243.264 79.4121 242.511 81.2276 241.171 82.5661C239.831 83.9047 238.014 84.6567 236.119 84.6567H235.785C233.89 84.6567 232.072 83.9047 230.732 82.5661C229.392 81.2276 228.639 79.4121 228.639 77.5191V65.1779Z" fill="white"/>
<path d="M236.119 85.0139H235.792C233.802 85.0139 231.893 84.2246 230.484 82.8192C229.076 81.4139 228.284 79.5076 228.282 77.5191V65.1779C228.284 65.0838 228.322 64.994 228.389 64.9275C228.455 64.8609 228.545 64.8226 228.639 64.8206H243.272C243.365 64.8226 243.454 64.8612 243.52 64.928C243.585 64.9947 243.622 65.0845 243.622 65.1779V77.5191C243.62 79.5062 242.829 81.4114 241.422 82.8165C240.015 84.2216 238.108 85.0119 236.119 85.0139ZM228.997 65.5274V77.5191C229.001 79.3174 229.719 81.0408 230.992 82.3117C232.266 83.5826 233.992 84.2974 235.792 84.2994H236.119C237.919 84.2974 239.645 83.5826 240.919 82.3117C242.193 81.0408 242.91 79.3174 242.914 77.5191V65.5274H228.997Z" fill="#231F20"/>
<path d="M243.272 65.1779H257.897V77.5191C257.897 79.4121 257.144 81.2276 255.804 82.5661C254.464 83.9047 252.647 84.6567 250.752 84.6567H250.417C248.522 84.6567 246.705 83.9047 245.365 82.5661C244.025 81.2276 243.272 79.4121 243.272 77.5191V65.1779Z" fill="#B6C0F8"/>
<path d="M250.752 85.0139H250.417C248.428 85.0119 246.521 84.2216 245.114 82.8165C243.708 81.4114 242.916 79.5062 242.914 77.5191V65.1779C242.914 65.0831 242.952 64.9923 243.019 64.9253C243.086 64.8583 243.177 64.8206 243.272 64.8206H257.897C257.991 64.8226 258.081 64.8609 258.147 64.9275C258.214 64.994 258.252 65.0838 258.254 65.1779V77.5191C258.252 79.5062 257.461 81.4114 256.055 82.8165C254.648 84.2216 252.741 85.0119 250.752 85.0139ZM243.622 65.5274V77.5191C243.626 79.3174 244.343 81.0408 245.617 82.3117C246.891 83.5826 248.617 84.2974 250.417 84.2994H250.752C252.551 84.2974 254.276 83.5823 255.549 82.3112C256.821 81.0401 257.537 79.3167 257.539 77.5191V65.5274H243.622Z" fill="#231F20"/>
<path d="M202.445 121.937H108.555C108.451 121.937 108.353 121.896 108.28 121.823C108.207 121.75 108.166 121.651 108.166 121.548V92.0816C108.166 91.9786 108.207 91.8798 108.28 91.807C108.353 91.7342 108.451 91.6933 108.555 91.6933H202.445C202.549 91.6933 202.647 91.7342 202.72 91.807C202.793 91.8798 202.834 91.9786 202.834 92.0816V121.548C202.834 121.651 202.793 121.75 202.72 121.823C202.647 121.896 202.549 121.937 202.445 121.937ZM108.943 121.16H202.057V92.4699H108.943V121.16Z" fill="#D1D3D4"/>
<path d="M202.445 144.569C202.342 144.569 202.243 144.528 202.171 144.455C202.098 144.382 202.057 144.283 202.057 144.18V125.704H108.943V144.18C108.943 144.283 108.902 144.382 108.829 144.455C108.757 144.528 108.658 144.569 108.555 144.569C108.451 144.569 108.353 144.528 108.28 144.455C108.207 144.382 108.166 144.283 108.166 144.18V125.315C108.166 125.212 108.207 125.113 108.28 125.041C108.353 124.968 108.451 124.927 108.555 124.927H202.445C202.549 124.927 202.647 124.968 202.72 125.041C202.793 125.113 202.834 125.212 202.834 125.315V144.18C202.834 144.283 202.793 144.382 202.72 144.455C202.647 144.528 202.549 144.569 202.445 144.569Z" fill="#D1D3D4"/>
<path d="M251.389 193.662H215.43L220.079 165.112H246.74L251.389 193.662Z" fill="white"/>
<path d="M251.389 194.05H215.43C215.373 194.051 215.316 194.039 215.264 194.017C215.212 193.994 215.165 193.96 215.126 193.918C215.091 193.874 215.066 193.822 215.051 193.768C215.036 193.713 215.033 193.656 215.041 193.6L219.706 165.049C219.722 164.958 219.77 164.876 219.841 164.816C219.912 164.756 220.002 164.724 220.095 164.723H246.755C246.848 164.724 246.938 164.756 247.009 164.816C247.08 164.876 247.127 164.958 247.144 165.049L251.809 193.6C251.818 193.656 251.814 193.714 251.798 193.769C251.782 193.824 251.754 193.875 251.716 193.918C251.676 193.965 251.625 194.001 251.568 194.024C251.512 194.047 251.45 194.056 251.389 194.05ZM215.881 193.274H250.938L246.413 165.5H220.406L215.881 193.274Z" fill="#231F20"/>
<path d="M225.335 169.313H225.273C225.171 169.294 225.081 169.237 225.022 169.153C224.962 169.069 224.938 168.965 224.954 168.863C225.032 168.397 226.921 157.345 233.413 157.345C239.905 157.345 241.787 168.397 241.865 168.863C241.88 168.965 241.856 169.069 241.797 169.153C241.737 169.237 241.647 169.294 241.546 169.313C241.444 169.329 241.34 169.305 241.256 169.245C241.172 169.186 241.114 169.096 241.095 168.995C241.095 168.886 239.237 158.122 233.413 158.122C227.59 158.122 225.739 168.886 225.724 168.995C225.706 169.085 225.657 169.165 225.586 169.224C225.515 169.282 225.427 169.313 225.335 169.313Z" fill="#231F20"/>
<path d="M226.393 196.031H201.637L204.833 176.373H223.189L226.393 196.031Z" fill="white"/>
<path d="M226.392 196.419H201.637C201.581 196.417 201.526 196.404 201.475 196.38C201.425 196.356 201.38 196.321 201.343 196.279C201.307 196.237 201.28 196.187 201.263 196.134C201.247 196.08 201.242 196.024 201.248 195.969L204.482 176.303C204.496 176.212 204.542 176.129 204.612 176.069C204.682 176.009 204.771 175.976 204.863 175.977H223.22C223.313 175.976 223.402 176.009 223.472 176.069C223.542 176.129 223.588 176.212 223.601 176.303L226.805 195.953C226.813 196.008 226.81 196.065 226.795 196.119C226.78 196.173 226.754 196.223 226.718 196.266C226.682 196.309 226.637 196.343 226.586 196.367C226.535 196.391 226.48 196.403 226.424 196.403L226.392 196.419ZM202.096 195.642H225.934L222.863 176.769H205.167L202.096 195.642Z" fill="#231F20"/>
<path d="M219.566 179.41C219.474 179.409 219.386 179.376 219.316 179.317C219.246 179.257 219.2 179.174 219.185 179.084C219.185 179.006 217.926 171.705 214.015 171.705C210.104 171.705 208.852 179.006 208.837 179.084C208.82 179.187 208.763 179.279 208.679 179.34C208.594 179.401 208.489 179.426 208.386 179.41C208.283 179.394 208.19 179.337 208.129 179.252C208.068 179.168 208.043 179.063 208.059 178.96C208.114 178.633 209.428 170.929 213.999 170.929C218.571 170.929 219.885 178.633 219.939 178.96C219.947 179.01 219.945 179.062 219.933 179.111C219.92 179.161 219.898 179.207 219.868 179.249C219.838 179.29 219.8 179.324 219.756 179.351C219.712 179.377 219.663 179.395 219.613 179.402L219.566 179.41Z" fill="#231F20"/>
<path d="M197.998 100.035H149.163C149.06 100.035 148.961 99.9938 148.889 99.9209C148.816 99.8481 148.775 99.7493 148.775 99.6463C148.777 99.544 148.818 99.4463 148.891 99.3739C148.963 99.3015 149.061 99.26 149.163 99.258H197.998C198.101 99.26 198.198 99.3015 198.271 99.3739C198.343 99.4463 198.385 99.544 198.387 99.6463C198.387 99.7493 198.346 99.8481 198.273 99.9209C198.2 99.9938 198.101 100.035 197.998 100.035Z" fill="#D1D3D4"/>
<path d="M197.998 105.425H149.163C149.06 105.425 148.961 105.384 148.889 105.311C148.816 105.238 148.775 105.139 148.775 105.036C148.777 104.934 148.818 104.836 148.891 104.764C148.963 104.692 149.061 104.65 149.163 104.648H197.998C198.101 104.65 198.198 104.692 198.271 104.764C198.343 104.836 198.385 104.934 198.387 105.036C198.387 105.139 198.346 105.238 198.273 105.311C198.2 105.384 198.101 105.425 197.998 105.425Z" fill="#D1D3D4"/>
<path d="M137.882 144.569H137.804C137.754 144.559 137.707 144.54 137.665 144.513C137.622 144.485 137.586 144.449 137.558 144.407C137.53 144.365 137.51 144.318 137.5 144.268C137.491 144.219 137.491 144.168 137.501 144.118L138.457 139.311C138.469 139.246 138.498 139.186 138.54 139.135C138.582 139.085 138.637 139.046 138.698 139.023C138.76 139.001 138.826 138.995 138.892 139.004C138.957 139.014 139.018 139.039 139.071 139.078L141.404 140.817L144.475 137.392C143.172 135.726 141.717 134.184 140.129 132.787C138.764 131.605 137.204 130.67 135.518 130.022C133.706 130.881 131.724 131.327 129.718 131.327C127.712 131.327 125.731 130.881 123.918 130.022C122.553 130.569 121.231 131.215 119.96 131.956C118.08 133.178 116.475 134.778 115.249 136.655L117.76 140.025L120.575 138.697C120.628 138.671 120.686 138.657 120.746 138.657C120.805 138.657 120.864 138.671 120.917 138.697C120.971 138.726 121.017 138.767 121.052 138.817C121.087 138.867 121.11 138.924 121.119 138.985L121.896 144.126C121.912 144.227 121.888 144.33 121.828 144.413C121.768 144.496 121.678 144.552 121.578 144.569C121.475 144.582 121.371 144.556 121.287 144.496C121.203 144.435 121.146 144.344 121.127 144.243L120.411 139.583L117.783 140.825C117.702 140.863 117.61 140.873 117.522 140.852C117.434 140.83 117.357 140.78 117.301 140.709L114.44 136.825C114.395 136.762 114.37 136.686 114.37 136.608C114.37 136.53 114.395 136.454 114.44 136.39C114.533 136.243 116.687 132.826 119.579 131.21C120.934 130.399 122.361 129.712 123.84 129.16C123.897 129.14 123.957 129.134 124.017 129.142C124.076 129.15 124.133 129.172 124.182 129.206C124.182 129.206 126.103 130.48 129.71 130.48C133.318 130.48 135.231 129.222 135.246 129.206C135.294 129.173 135.349 129.151 135.407 129.142C135.465 129.132 135.524 129.136 135.58 129.152C137.436 129.815 139.151 130.822 140.634 132.119C142.349 133.624 143.911 135.294 145.299 137.105C145.356 137.175 145.387 137.263 145.387 137.354C145.387 137.444 145.356 137.532 145.299 137.602L141.777 141.532C141.71 141.603 141.62 141.648 141.523 141.658C141.426 141.668 141.328 141.643 141.248 141.586L139.141 140.033L138.302 144.227C138.297 144.277 138.282 144.326 138.258 144.37C138.235 144.414 138.202 144.454 138.163 144.485C138.124 144.517 138.079 144.541 138.031 144.555C137.983 144.57 137.932 144.574 137.882 144.569Z" fill="#D1D3D4"/>
<path d="M129.065 134.969C125.178 134.969 123.677 129.913 123.623 129.696C123.596 129.596 123.61 129.489 123.661 129.4C123.711 129.31 123.795 129.243 123.895 129.214C123.994 129.187 124.099 129.2 124.189 129.249C124.279 129.298 124.346 129.38 124.377 129.478C124.377 129.525 125.768 134.138 129.042 134.192C132.696 134.192 135.106 129.463 135.13 129.416C135.152 129.37 135.183 129.329 135.222 129.295C135.26 129.261 135.305 129.235 135.353 129.219C135.401 129.202 135.452 129.195 135.504 129.198C135.555 129.202 135.605 129.215 135.65 129.237C135.741 129.285 135.809 129.366 135.841 129.463C135.872 129.56 135.866 129.666 135.822 129.758C135.705 129.975 133.162 134.969 129.065 134.969Z" fill="#D1D3D4"/>
<path d="M195.502 109.238H181.632C180.253 109.238 179.136 110.354 179.136 111.731V111.739C179.136 113.116 180.253 114.232 181.632 114.232H195.502C196.881 114.232 197.998 113.116 197.998 111.739V111.731C197.998 110.354 196.881 109.238 195.502 109.238Z" fill="#B6C0F8"/>
<path d="M197.998 134.154H149.163C149.06 134.154 148.961 134.113 148.889 134.04C148.816 133.967 148.775 133.868 148.775 133.765C148.777 133.663 148.818 133.565 148.891 133.493C148.963 133.421 149.061 133.379 149.163 133.377H197.998C198.101 133.379 198.198 133.421 198.271 133.493C198.343 133.565 198.385 133.663 198.387 133.765C198.387 133.868 198.346 133.967 198.273 134.04C198.2 134.113 198.101 134.154 197.998 134.154Z" fill="#D1D3D4"/>
<path d="M188.567 139.544H149.163C149.06 139.544 148.961 139.503 148.889 139.43C148.816 139.357 148.775 139.258 148.775 139.155C148.777 139.053 148.818 138.955 148.891 138.883C148.963 138.811 149.061 138.769 149.163 138.767H188.567C188.67 138.769 188.767 138.811 188.84 138.883C188.912 138.955 188.954 139.053 188.956 139.155C188.956 139.258 188.915 139.357 188.842 139.43C188.769 139.503 188.67 139.544 188.567 139.544Z" fill="#D1D3D4"/>
<path d="M139.826 116.174H130.185C130.089 116.174 129.996 116.138 129.926 116.074C129.855 116.009 129.812 115.92 129.804 115.824L129.291 111.024L128.451 115.855C128.436 115.945 128.389 116.027 128.319 116.085C128.25 116.144 128.161 116.175 128.07 116.174H119.035C118.98 116.173 118.925 116.161 118.874 116.139C118.823 116.116 118.777 116.083 118.74 116.042C118.703 116.001 118.676 115.953 118.66 115.9C118.644 115.848 118.639 115.793 118.647 115.739L120.769 98.0464C120.781 97.9517 120.827 97.8645 120.898 97.8015C120.97 97.7384 121.062 97.704 121.158 97.7047H137.734C137.829 97.7056 137.921 97.7407 137.992 97.8034C138.063 97.8661 138.11 97.9524 138.123 98.0464L140.214 115.723C140.222 115.778 140.217 115.833 140.201 115.885C140.185 115.937 140.158 115.985 140.121 116.026C140.085 116.07 140.04 116.106 139.989 116.132C139.938 116.157 139.883 116.171 139.826 116.174ZM130.496 115.397H139.351L137.353 98.4813H121.5L119.471 115.397H127.736L128.995 108.159C129.011 108.067 129.059 107.985 129.13 107.925C129.201 107.866 129.291 107.833 129.384 107.832C129.478 107.836 129.567 107.873 129.636 107.937C129.705 108.001 129.748 108.088 129.757 108.182L130.496 115.397Z" fill="#D1D3D4"/>
<path d="M137.89 101.316H120.785C120.682 101.316 120.583 101.275 120.51 101.202C120.437 101.13 120.396 101.031 120.396 100.928C120.396 100.825 120.437 100.726 120.51 100.653C120.583 100.58 120.682 100.54 120.785 100.54H137.89C137.993 100.54 138.092 100.58 138.165 100.653C138.238 100.726 138.279 100.825 138.279 100.928C138.277 101.03 138.235 101.128 138.162 101.2C138.09 101.273 137.992 101.314 137.89 101.316Z" fill="#D1D3D4"/>
<path d="M131.397 103.522C131.321 103.521 131.246 103.497 131.183 103.454C131.119 103.412 131.07 103.351 131.04 103.281L129.842 100.19L128.116 103.071C128.06 103.157 127.974 103.219 127.874 103.243C127.775 103.268 127.669 103.254 127.58 103.203C127.536 103.177 127.497 103.142 127.467 103.101C127.436 103.06 127.414 103.013 127.402 102.963C127.39 102.913 127.387 102.861 127.395 102.811C127.403 102.76 127.421 102.711 127.448 102.668L129.57 99.126C129.605 99.0612 129.658 99.0086 129.724 98.9752C129.789 98.9419 129.863 98.9294 129.936 98.9396C130.008 98.9444 130.078 98.9695 130.137 99.012C130.197 99.0546 130.243 99.1129 130.27 99.1803L131.825 103.002C131.844 103.049 131.853 103.1 131.853 103.151C131.852 103.202 131.841 103.252 131.821 103.299C131.801 103.346 131.771 103.388 131.735 103.424C131.698 103.46 131.655 103.488 131.607 103.506C131.541 103.535 131.467 103.541 131.397 103.522Z" fill="#D1D3D4"/>
<path d="M134.173 141.998C133.752 141.998 133.34 141.873 132.99 141.639C132.639 141.405 132.366 141.073 132.205 140.684C132.044 140.295 132.002 139.868 132.084 139.455C132.166 139.042 132.369 138.663 132.667 138.365C132.965 138.068 133.344 137.865 133.758 137.783C134.171 137.701 134.599 137.743 134.989 137.904C135.378 138.065 135.711 138.338 135.945 138.688C136.179 139.038 136.304 139.449 136.304 139.87C136.304 140.149 136.249 140.426 136.141 140.684C136.034 140.942 135.878 141.177 135.68 141.375C135.482 141.572 135.247 141.729 134.989 141.836C134.73 141.943 134.453 141.998 134.173 141.998ZM134.173 138.519C133.906 138.519 133.644 138.598 133.422 138.746C133.199 138.895 133.026 139.106 132.923 139.353C132.821 139.6 132.794 139.871 132.846 140.134C132.899 140.396 133.028 140.636 133.217 140.825C133.406 141.014 133.647 141.143 133.909 141.195C134.172 141.247 134.444 141.221 134.691 141.118C134.938 141.016 135.15 140.843 135.298 140.621C135.447 140.398 135.526 140.137 135.526 139.87C135.526 139.692 135.491 139.517 135.423 139.353C135.355 139.189 135.256 139.04 135.13 138.914C135.004 138.789 134.855 138.689 134.691 138.621C134.527 138.553 134.351 138.519 134.173 138.519Z" fill="#D1D3D4"/>
<path d="M68.0934 200.434H94.6916L91.776 161.888H65.1777L68.0934 200.434Z" fill="#231F20"/>
<path d="M59.5022 200.434H86.1005L91.7762 161.888H65.1779L59.5022 200.434Z" fill="white"/>
<path d="M86.1004 200.792H59.5022C59.4517 200.792 59.4018 200.781 59.356 200.759C59.3103 200.738 59.27 200.706 59.2378 200.667C59.2037 200.63 59.1784 200.586 59.1636 200.537C59.1488 200.489 59.145 200.438 59.1523 200.388L64.828 161.834C64.8378 161.749 64.8791 161.671 64.9439 161.614C65.0087 161.558 65.0922 161.529 65.1779 161.531H91.7451C91.7954 161.532 91.845 161.544 91.8906 161.565C91.9361 161.587 91.9766 161.617 92.0094 161.655C92.0435 161.693 92.0689 161.737 92.0837 161.786C92.0984 161.834 92.1023 161.885 92.095 161.935L86.4192 200.489C86.4088 200.568 86.3715 200.641 86.3135 200.697C86.2554 200.752 86.1803 200.785 86.1004 200.792ZM59.9142 200.085H85.7894L91.3641 162.238H65.4889L59.9142 200.085Z" fill="#231F20"/>
<path d="M82.174 195.813H63.755C63.6991 195.811 63.6441 195.798 63.5936 195.774C63.5431 195.75 63.4981 195.716 63.4616 195.673C63.4251 195.631 63.3977 195.581 63.3813 195.528C63.3649 195.475 63.3598 195.418 63.3662 195.363L68.0312 165.578C68.0444 165.486 68.0903 165.403 68.1604 165.343C68.2305 165.283 68.3199 165.25 68.4122 165.251H87.0722C87.1279 165.252 87.1829 165.264 87.2337 165.287C87.2846 165.309 87.3302 165.342 87.3677 165.383C87.4027 165.428 87.4284 165.479 87.4431 165.534C87.4578 165.589 87.4612 165.646 87.4532 165.702L82.4927 195.487C82.4808 195.568 82.4436 195.643 82.3863 195.702C82.3291 195.76 82.2547 195.799 82.174 195.813ZM64.2371 195.037H81.8396L86.6757 166.028H68.7932L64.2371 195.037Z" fill="#D1D3D4"/>
<path d="M82.5006 173.026H71.118C71.0149 173.026 70.916 172.985 70.8431 172.912C70.7702 172.839 70.7292 172.74 70.7292 172.637C70.7292 172.534 70.7702 172.436 70.8431 172.363C70.916 172.29 71.0149 172.249 71.118 172.249H82.5006C82.6037 172.249 82.7026 172.29 82.7755 172.363C82.8484 172.436 82.8894 172.534 82.8894 172.637C82.8874 172.74 82.8458 172.837 82.7733 172.91C82.7008 172.982 82.6031 173.024 82.5006 173.026Z" fill="#D1D3D4"/>
<path d="M80.2847 177.507H70.4571C70.3546 177.505 70.2569 177.464 70.1844 177.391C70.1119 177.319 70.0703 177.221 70.0684 177.119C70.0684 177.016 70.1093 176.917 70.1822 176.844C70.2551 176.771 70.354 176.73 70.4571 176.73H80.2847C80.3878 176.73 80.4867 176.771 80.5596 176.844C80.6325 176.917 80.6735 177.016 80.6735 177.119C80.6735 177.222 80.6325 177.321 80.5596 177.393C80.4867 177.466 80.3878 177.507 80.2847 177.507Z" fill="#D1D3D4"/>
<path d="M81.1788 182.315H69.7962C69.6931 182.315 69.5942 182.274 69.5213 182.201C69.4484 182.128 69.4075 182.029 69.4075 181.926C69.4075 181.823 69.4484 181.725 69.5213 181.652C69.5942 181.579 69.6931 181.538 69.7962 181.538H81.1788C81.2819 181.538 81.3808 181.579 81.4537 181.652C81.5266 181.725 81.5676 181.823 81.5676 181.926C81.5676 182.029 81.5266 182.128 81.4537 182.201C81.3808 182.274 81.2819 182.315 81.1788 182.315Z" fill="#D1D3D4"/>
<path d="M78.9707 186.796H69.1353C69.0322 186.796 68.9333 186.755 68.8604 186.682C68.7875 186.61 68.7466 186.511 68.7466 186.408C68.7486 186.305 68.7902 186.208 68.8627 186.135C68.9351 186.063 69.0329 186.021 69.1353 186.019H78.9707C79.0732 186.021 79.1709 186.063 79.2434 186.135C79.3159 186.208 79.3575 186.305 79.3595 186.408C79.3595 186.511 79.3185 186.61 79.2456 186.682C79.1727 186.755 79.0738 186.796 78.9707 186.796Z" fill="#D1D3D4"/>
<g filter="url(#filter0_d)">
<circle cx="155" cy="38" r="33" fill="white"/>
<path d="M175.759 30.0179C175.759 29.3482 175.491 28.6786 175.009 28.1964L171.366 24.5536C170.884 24.0714 170.214 23.8036 169.545 23.8036C168.875 23.8036 168.205 24.0714 167.723 24.5536L150.152 42.1518L142.277 34.25C141.795 33.7679 141.125 33.5 140.455 33.5C139.786 33.5 139.116 33.7679 138.634 34.25L134.991 37.8929C134.509 38.375 134.241 39.0446 134.241 39.7143C134.241 40.3839 134.509 41.0536 134.991 41.5357L144.688 51.2321L148.33 54.875C148.813 55.3571 149.482 55.625 150.152 55.625C150.821 55.625 151.491 55.3571 151.973 54.875L155.616 51.2321L175.009 31.8393C175.491 31.3571 175.759 30.6875 175.759 30.0179Z" fill="#219653"/>
</g>
<defs>
<filter id="filter0_d" x="115" y="1" width="86" height="86" filterUnits="userSpaceOnUse" color-interpolation-filters="sRGB">
<feFlood flood-opacity="0" result="BackgroundImageFix"/>
<feColorMatrix in="SourceAlpha" type="matrix" values="0 0 0 0 0 0 0 0 0 0 0 0 0 0 0 0 0 0 127 0"/>
<feOffset dx="3" dy="6"/>
<feGaussianBlur stdDeviation="5"/>
<feColorMatrix type="matrix" values="0 0 0 0 0.118698 0 0 0 0 0.185706 0 0 0 0 0.5375 0 0 0 0.33 0"/>
<feBlend mode="normal" in2="BackgroundImageFix" result="effect1_dropShadow"/>
<feBlend mode="normal" in="SourceGraphic" in2="effect1_dropShadow" result="shape"/>
</filter>
</defs>
</svg>
